<svg xmlns="http://www.w3.org/2000/svg" xmlns:xlink="http://www.w3.org/1999/xlink" width="34" zoomAndPan="magnify" viewBox="0 0 25.5 41.250001" height="55" preserveAspectRatio="xMidYMid meet" version="1.0"><defs><clipPath id="98cb51782b"><path d="M 0 0.0273438 L 24.273438 0.0273438 L 24.273438 40.484375 L 0 40.484375 Z M 0 0.0273438 " clip-rule="nonzero"/></clipPath><clipPath id="17b50e9919"><path d="M 0.046875 0.0273438 L 24.273438 0.0273438 L 24.273438 40.484375 L 0.046875 40.484375 Z M 0.046875 0.0273438 " clip-rule="nonzero"/></clipPath><clipPath id="ffeb97c4cf"><rect x="0" width="25" y="0" height="41"/></clipPath><clipPath id="dbc0aa74cd"><path d="M 0.046875 0.0273438 L 24.273438 0.0273438 L 24.273438 40.484375 L 0.046875 40.484375 Z M 0.046875 0.0273438 " clip-rule="nonzero"/></clipPath><clipPath id="ba265a1734"><rect x="0" width="25" y="0" height="41"/></clipPath></defs><g clip-path="url(#98cb51782b)"><g transform="matrix(1, 0, 0, 1, 0, 0.000000000000003834)"><g clip-path="url(#ffeb97c4cf)"><g clip-path="url(#17b50e9919)"><path fill="#4e6aff" d="M 4.246094 40.351562 L 24.316406 20.277344 L 4.105469 0.0664062 L -0.00390625 4.175781 L 16.097656 20.277344 L 0.136719 36.242188 L 4.246094 40.351562 " fill-opacity="1" fill-rule="nonzero"/></g></g></g><g transform="matrix(1, 0, 0, 1, 0, 0.000000000000003834)"><g clip-path="url(#ba265a1734)"><g clip-path="url(#dbc0aa74cd)"><path fill="#4e6aff" d="M 4.246094 40.351562 L 24.316406 20.277344 L 4.105469 0.0664062 L -0.00390625 4.175781 L 16.097656 20.277344 L 0.136719 36.242188 L 4.246094 40.351562 " fill-opacity="1" fill-rule="nonzero"/></g></g></g></g></svg>