<svg xmlns="http://www.w3.org/2000/svg" xmlns:xlink="http://www.w3.org/1999/xlink" width="56" zoomAndPan="magnify" viewBox="0 0 42 42" height="56" preserveAspectRatio="xMidYMid meet" version="1.0"><defs><clipPath id="2caa083833"><path d="M 0.488281 0 L 41.511719 0 L 41.511719 41 L 0.488281 41 Z M 0.488281 0 " clip-rule="nonzero"/></clipPath><clipPath id="633dacf452"><path d="M 0.488281 0 L 41.511719 0 L 41.511719 41.023438 L 0.488281 41.023438 Z M 0.488281 0 " clip-rule="nonzero"/></clipPath><clipPath id="e45c5d5dda"><path d="M 0.488281 0 L 41.511719 0 L 41.511719 41 L 0.488281 41 Z M 0.488281 0 " clip-rule="nonzero"/></clipPath><clipPath id="c5ec3dff58"><path d="M 0.488281 0 L 41.511719 0 L 41.511719 41.023438 L 0.488281 41.023438 Z M 0.488281 0 " clip-rule="nonzero"/></clipPath></defs><g clip-path="url(#2caa083833)"><path fill="#e33a3a" d="M 41.265625 20.511719 C 41.265625 21.175781 41.234375 21.835938 41.167969 22.5 C 41.105469 23.160156 41.007812 23.816406 40.878906 24.464844 C 40.75 25.117188 40.585938 25.761719 40.394531 26.394531 C 40.203125 27.03125 39.976562 27.65625 39.722656 28.269531 C 39.46875 28.882812 39.1875 29.480469 38.875 30.066406 C 38.5625 30.652344 38.21875 31.21875 37.851562 31.773438 C 37.484375 32.324219 37.085938 32.855469 36.667969 33.367188 C 36.246094 33.882812 35.800781 34.375 35.332031 34.84375 C 34.863281 35.3125 34.371094 35.757812 33.855469 36.179688 C 33.34375 36.597656 32.8125 36.996094 32.261719 37.363281 C 31.707031 37.730469 31.140625 38.074219 30.554688 38.386719 C 29.96875 38.699219 29.367188 38.980469 28.757812 39.234375 C 28.144531 39.488281 27.519531 39.714844 26.882812 39.90625 C 26.246094 40.097656 25.605469 40.261719 24.953125 40.390625 C 24.304688 40.519531 23.648438 40.617188 22.988281 40.679688 C 22.324219 40.746094 21.664062 40.777344 21 40.777344 C 20.335938 40.777344 19.675781 40.746094 19.011719 40.679688 C 18.351562 40.617188 17.695312 40.519531 17.046875 40.390625 C 16.394531 40.261719 15.753906 40.097656 15.117188 39.90625 C 14.480469 39.714844 13.855469 39.488281 13.242188 39.234375 C 12.632812 38.980469 12.03125 38.699219 11.445312 38.386719 C 10.859375 38.074219 10.292969 37.730469 9.738281 37.363281 C 9.1875 36.996094 8.65625 36.597656 8.144531 36.179688 C 7.628906 35.757812 7.136719 35.3125 6.667969 34.84375 C 6.199219 34.375 5.753906 33.882812 5.332031 33.367188 C 4.914062 32.855469 4.515625 32.324219 4.148438 31.773438 C 3.78125 31.21875 3.4375 30.652344 3.125 30.066406 C 2.8125 29.480469 2.53125 28.882812 2.277344 28.269531 C 2.023438 27.65625 1.796875 27.03125 1.605469 26.394531 C 1.414062 25.761719 1.25 25.117188 1.121094 24.464844 C 0.992188 23.816406 0.894531 23.160156 0.832031 22.5 C 0.765625 21.835938 0.734375 21.175781 0.734375 20.511719 C 0.734375 19.847656 0.765625 19.1875 0.832031 18.523438 C 0.894531 17.863281 0.992188 17.207031 1.121094 16.558594 C 1.25 15.90625 1.414062 15.265625 1.605469 14.628906 C 1.796875 13.992188 2.023438 13.367188 2.277344 12.753906 C 2.53125 12.140625 2.8125 11.542969 3.125 10.957031 C 3.4375 10.371094 3.78125 9.804688 4.148438 9.25 C 4.515625 8.699219 4.914062 8.167969 5.332031 7.65625 C 5.753906 7.140625 6.199219 6.648438 6.667969 6.179688 C 7.136719 5.710938 7.628906 5.265625 8.144531 4.84375 C 8.65625 4.425781 9.1875 4.027344 9.738281 3.660156 C 10.292969 3.292969 10.859375 2.949219 11.445312 2.636719 C 12.03125 2.324219 12.632812 2.042969 13.242188 1.789062 C 13.855469 1.535156 14.480469 1.308594 15.117188 1.117188 C 15.753906 0.925781 16.394531 0.761719 17.046875 0.632812 C 17.695312 0.503906 18.351562 0.40625 19.011719 0.34375 C 19.675781 0.277344 20.335938 0.246094 21 0.246094 C 21.664062 0.246094 22.324219 0.277344 22.988281 0.34375 C 23.648438 0.40625 24.304688 0.503906 24.953125 0.632812 C 25.605469 0.761719 26.246094 0.925781 26.882812 1.117188 C 27.519531 1.308594 28.144531 1.535156 28.757812 1.789062 C 29.367188 2.042969 29.96875 2.324219 30.554688 2.636719 C 31.140625 2.949219 31.707031 3.292969 32.261719 3.660156 C 32.8125 4.027344 33.34375 4.425781 33.855469 4.84375 C 34.371094 5.265625 34.863281 5.710938 35.332031 6.179688 C 35.800781 6.648438 36.246094 7.140625 36.667969 7.65625 C 37.085938 8.167969 37.484375 8.699219 37.851562 9.25 C 38.21875 9.804688 38.5625 10.371094 38.875 10.957031 C 39.1875 11.542969 39.46875 12.140625 39.722656 12.753906 C 39.976562 13.367188 40.203125 13.992188 40.394531 14.628906 C 40.585938 15.265625 40.75 15.90625 40.878906 16.558594 C 41.007812 17.207031 41.105469 17.863281 41.167969 18.523438 C 41.234375 19.1875 41.265625 19.847656 41.265625 20.511719 Z M 41.265625 20.511719 " fill-opacity="1" fill-rule="nonzero"/></g><g clip-path="url(#633dacf452)"><path stroke-linecap="round" transform="matrix(0.00378496, 0, 0, 0.00378496, 0.477963, -0.00567548)" fill="none" stroke-linejoin="round" d="M 10776.255614 5420.77362 C 10776.255614 5596.221459 10767.999245 5770.637252 10750.454461 5946.085092 C 10733.941723 6120.500885 10708.14057 6293.884631 10674.083049 6465.204286 C 10640.025527 6637.555987 10596.67959 6807.843595 10546.109331 6975.035066 C 10495.539071 7143.258582 10435.680397 7308.38596 10368.597399 7470.4172 C 10301.514402 7632.448439 10227.207082 7790.351495 10144.643393 7945.158411 C 10062.079704 8099.965328 9971.259646 8249.612015 9874.247311 8396.162563 C 9777.234977 8541.681064 9671.966273 8682.039336 9561.537339 8817.237376 C 9450.076359 8953.467463 9332.423102 9083.505273 9208.577569 9207.350807 C 9084.732035 9331.19634 8954.694225 9448.849597 8818.464138 9560.310577 C 8683.266098 9670.739511 8542.907826 9776.008215 8397.389324 9873.020549 C 8250.838776 9970.032884 8101.19209 10060.852942 7946.385173 10143.416631 C 7791.578256 10225.98032 7632.643155 10300.28764 7471.643962 10367.370637 C 7309.612722 10434.453635 7144.485344 10494.312309 6976.261828 10544.882569 C 6808.038311 10595.452828 6638.782749 10638.798765 6466.431048 10672.856287 C 6295.111393 10706.913808 6121.727647 10732.714961 5947.311854 10749.227699 C 5771.864014 10766.772483 5597.448221 10775.028852 5422.000382 10775.028852 C 5246.552543 10775.028852 5072.13675 10766.772483 4896.688911 10749.227699 C 4722.273118 10732.714961 4548.889371 10706.913808 4377.569716 10672.856287 C 4205.218016 10638.798765 4035.962453 10595.452828 3867.738937 10544.882569 C 3699.515421 10494.312309 3534.388043 10434.453635 3372.356803 10367.370637 C 3211.357609 10300.28764 3052.422508 10225.98032 2897.615591 10143.416631 C 2742.808674 10060.852942 2593.161988 9970.032884 2446.61144 9873.020549 C 2301.092938 9776.008215 2160.734667 9670.739511 2025.536626 9560.310577 C 1889.306539 9448.849597 1759.268729 9331.19634 1635.423196 9207.350807 C 1511.577662 9083.505273 1393.924405 8953.467463 1282.463425 8817.237376 C 1172.034491 8682.039336 1066.765788 8541.681064 969.753453 8396.162563 C 872.741119 8249.612015 781.921061 8099.965328 699.357372 7945.158411 C 616.793683 7790.351495 542.486363 7632.448439 475.403365 7470.4172 C 408.320368 7308.38596 348.461693 7143.258582 297.891434 6975.035066 C 247.321174 6807.843595 203.975238 6637.555987 169.917716 6465.204286 C 135.860194 6293.884631 110.059042 6120.500885 93.546304 5946.085092 C 76.00152 5770.637252 67.745151 5596.221459 67.745151 5420.77362 C 67.745151 5245.325781 76.00152 5070.909988 93.546304 4895.462149 C 110.059042 4721.046356 135.860194 4547.662609 169.917716 4376.342955 C 203.975238 4203.991254 247.321174 4034.735691 297.891434 3866.512175 C 348.461693 3698.288659 408.320368 3533.161281 475.403365 3371.130041 C 542.486363 3209.098801 616.793683 3051.195746 699.357372 2896.388829 C 781.921061 2741.581912 872.741119 2591.935226 969.753453 2445.384678 C 1066.765788 2299.866176 1172.034491 2159.507905 1282.463425 2024.309864 C 1393.924405 1888.079777 1511.577662 1758.041967 1635.423196 1634.196434 C 1759.268729 1510.3509 1889.306539 1392.697643 2025.536626 1281.236663 C 2160.734667 1170.807729 2301.092938 1065.539026 2446.61144 968.526691 C 2593.161988 871.514357 2742.808674 780.694299 2897.615591 698.13061 C 3052.422508 615.566921 3211.357609 541.259601 3372.356803 474.176603 C 3534.388043 407.093606 3699.515421 347.234932 3867.738937 296.664672 C 4035.962453 246.094413 4205.218016 202.748476 4377.569716 168.690954 C 4548.889371 134.633432 4722.273118 108.83228 4896.688911 92.319542 C 5072.13675 74.774758 5246.552543 66.518389 5422.000382 66.518389 C 5597.448221 66.518389 5771.864014 74.774758 5947.311854 92.319542 C 6121.727647 108.83228 6295.111393 134.633432 6466.431048 168.690954 C 6638.782749 202.748476 6808.038311 246.094413 6976.261828 296.664672 C 7144.485344 347.234932 7309.612722 407.093606 7471.643962 474.176603 C 7632.643155 541.259601 7791.578256 615.566921 7946.385173 698.13061 C 8101.19209 780.694299 8250.838776 871.514357 8397.389324 968.526691 C 8542.907826 1065.539026 8683.266098 1170.807729 8818.464138 1281.236663 C 8954.694225 1392.697643 9084.732035 1510.3509 9208.577569 1634.196434 C 9332.423102 1758.041967 9450.076359 1888.079777 9561.537339 2024.309864 C 9671.966273 2159.507905 9777.234977 2299.866176 9874.247311 2445.384678 C 9971.259646 2591.935226 10062.079704 2741.581912 10144.643393 2896.388829 C 10227.207082 3051.195746 10301.514402 3209.098801 10368.597399 3371.130041 C 10435.680397 3533.161281 10495.539071 3698.288659 10546.109331 3866.512175 C 10596.67959 4034.735691 10640.025527 4203.991254 10674.083049 4376.342955 C 10708.14057 4547.662609 10733.941723 4721.046356 10750.454461 4895.462149 C 10767.999245 5070.909988 10776.255614 5245.325781 10776.255614 5420.77362 Z M 10776.255614 5420.77362 " stroke="#000000" stroke-width="129.130005" stroke-opacity="1" stroke-miterlimit="1.5"/></g><path stroke-linecap="round" transform="matrix(0.00378496, 0, 0, 0.00378496, 0.477963, -0.00567548)" fill-opacity="1" fill="#fff0f0" fill-rule="nonzero" stroke-linejoin="round" d="M 10141.547254 5419.741574 C 10141.547254 5573.516445 10134.322932 5728.323362 10118.84224 5882.098233 C 10103.361548 6035.873103 10080.656534 6188.615928 10050.727197 6340.326707 C 10020.797859 6492.037485 9983.644199 6641.684171 9938.23417 6789.266765 C 9893.856187 6936.84936 9841.221836 7082.367861 9782.395207 7224.790225 C 9723.568579 7368.244635 9657.517628 7507.57086 9584.242354 7643.800947 C 9510.96708 7780.031033 9432.531575 7912.132936 9345.839702 8041.1387 C 9260.179874 8169.112418 9168.32777 8293.989997 9070.28339 8412.6753 C 8972.239009 8532.392649 8869.034398 8646.949768 8759.63751 8756.346656 C 8650.240622 8865.743544 8535.683504 8968.948155 8415.966154 9066.992536 C 8297.280852 9165.036916 8172.403272 9256.88902 8044.429554 9342.548848 C 7915.42379 9429.240721 7783.321888 9507.676226 7647.091801 9580.9515 C 7510.861714 9654.226774 7371.535489 9720.277725 7228.081079 9779.104353 C 7085.658716 9837.930982 6940.140214 9890.565333 6792.55762 9934.943316 C 6644.975026 9979.321299 6495.328339 10017.507005 6343.617561 10047.436342 C 6191.906782 10077.36568 6039.163958 10100.070694 5885.389087 10115.551386 C 5731.614216 10131.032078 5577.839345 10138.2564 5423.032428 10138.2564 C 5268.225512 10138.2564 5114.450641 10131.032078 4960.67577 10115.551386 C 4806.900899 10100.070694 4654.158075 10077.36568 4502.447296 10047.436342 C 4350.736518 10017.507005 4201.089831 9979.321299 4053.507237 9934.943316 C 3904.892597 9890.565333 3759.374095 9837.930982 3616.951732 9779.104353 C 3474.529368 9720.277725 3335.203143 9654.226774 3197.94101 9580.9515 C 3061.710923 9507.676226 2929.609021 9429.240721 2801.635303 9342.548848 C 2672.629539 9256.88902 2548.784005 9165.036916 2429.066656 9066.992536 C 2309.349307 8968.948155 2195.824235 8865.743544 2086.427347 8756.346656 C 1977.030459 8646.949768 1872.793802 8532.392649 1774.749421 8412.6753 C 1676.70504 8293.989997 1584.852936 8169.112418 1499.193109 8041.1387 C 1413.533282 7912.132936 1334.065731 7780.031033 1260.790457 7643.800947 C 1188.547229 7507.57086 1122.496278 7368.244635 1063.669649 7224.790225 C 1003.810975 7082.367861 952.208669 6936.84936 906.79864 6789.266765 C 862.420657 6641.684171 825.266997 6492.037485 794.305614 6340.326707 C 764.376277 6188.615928 741.671262 6035.873103 727.222617 5882.098233 C 711.741925 5728.323362 704.517602 5573.516445 704.517602 5419.741574 C 704.517602 5264.934657 711.741925 5111.159787 727.222617 4957.384916 C 741.671262 4803.610045 764.376277 4650.86722 794.305614 4499.156442 C 825.266997 4347.445663 862.420657 4197.798977 906.79864 4049.184337 C 952.208669 3901.601743 1003.810975 3756.083241 1063.669649 3613.660877 C 1122.496278 3471.238514 1188.547229 3330.880243 1260.790457 3194.650156 C 1334.065731 3058.420069 1413.533282 2926.318167 1499.193109 2798.344449 C 1584.852936 2669.338685 1676.70504 2545.493151 1774.749421 2425.775802 C 1872.793802 2306.058453 1977.030459 2192.533381 2086.427347 2083.136493 C 2195.824235 1973.739605 2309.349307 1869.502947 2429.066656 1771.458567 C 2548.784005 1673.414186 2672.629539 1581.562082 2801.635303 1495.902255 C 2929.609021 1410.242427 3061.710923 1330.774877 3197.94101 1257.499603 C 3335.203143 1185.256375 3474.529368 1119.205424 3616.951732 1060.378795 C 3759.374095 1000.520121 3904.892597 948.917815 4053.507237 903.507786 C 4201.089831 859.129803 4350.736518 821.976143 4502.447296 791.01476 C 4654.158075 761.085423 4806.900899 738.380408 4960.67577 723.931763 C 5114.450641 708.451071 5268.225512 701.226748 5423.032428 701.226748 C 5577.839345 701.226748 5731.614216 708.451071 5885.389087 723.931763 C 6039.163958 738.380408 6191.906782 761.085423 6343.617561 791.01476 C 6495.328339 821.976143 6644.975026 859.129803 6792.55762 903.507786 C 6940.140214 948.917815 7085.658716 1000.520121 7228.081079 1060.378795 C 7371.535489 1119.205424 7510.861714 1185.256375 7647.091801 1257.499603 C 7783.321888 1330.774877 7915.42379 1410.242427 8044.429554 1495.902255 C 8172.403272 1581.562082 8297.280852 1673.414186 8415.966154 1771.458567 C 8535.683504 1869.502947 8650.240622 1973.739605 8759.63751 2083.136493 C 8869.034398 2192.533381 8972.239009 2306.058453 9070.28339 2425.775802 C 9168.32777 2545.493151 9260.179874 2669.338685 9345.839702 2798.344449 C 9432.531575 2926.318167 9510.96708 3058.420069 9584.242354 3194.650156 C 9657.517628 3330.880243 9723.568579 3471.238514 9782.395207 3613.660877 C 9841.221836 3756.083241 9893.856187 3901.601743 9938.23417 4049.184337 C 9983.644199 4197.798977 10020.797859 4347.445663 10050.727197 4499.156442 C 10080.656534 4650.86722 10103.361548 4803.610045 10118.84224 4957.384916 C 10134.322932 5111.159787 10141.547254 5264.934657 10141.547254 5419.741574 Z M 10141.547254 5419.741574 " stroke="#000000" stroke-width="128.990005" stroke-opacity="1" stroke-miterlimit="1.5"/><path stroke-linecap="round" transform="matrix(0.00378496, 0, 0, 0.00378496, 0.477963, -0.00567548)" fill-opacity="1" fill="#000000" fill-rule="evenodd" stroke-linejoin="round" d="M 5613.960959 2275.09707 L 5613.960959 5446.574773 C 5613.960959 5551.843477 5528.301132 5637.503304 5424.064474 5637.503304 C 5318.795771 5637.503304 5233.135944 5551.843477 5233.135944 5446.574773 L 5233.135944 2275.09707 C 5233.135944 2169.828366 5318.795771 2084.168539 5424.064474 2084.168539 C 5528.301132 2084.168539 5613.960959 2169.828366 5613.960959 2275.09707 Z M 5613.960959 2275.09707 " stroke="#000000" stroke-width="129.070007" stroke-opacity="1" stroke-miterlimit="1.5"/><path stroke-linecap="round" transform="matrix(0.00378496, 0, 0, 0.00378496, 0.477963, -0.00567548)" fill-opacity="1" fill="#000000" fill-rule="evenodd" stroke-linejoin="round" d="M 5578.871391 5572.484399 L 4730.529487 7042.118063 C 4677.895135 7132.938121 4561.273924 7163.899504 4470.453867 7111.265153 C 4379.633809 7058.630801 4347.640379 6942.00959 4400.274731 6851.189532 L 5249.648681 5381.555868 C 5301.250987 5291.767856 5418.904244 5259.774427 5508.692256 5312.408779 C 5599.512314 5365.04313 5631.505743 5481.664341 5578.871391 5572.484399 Z M 5578.871391 5572.484399 " stroke="#000000" stroke-width="129.100006" stroke-opacity="1" stroke-miterlimit="1.5"/><g clip-path="url(#e45c5d5dda)"><path fill="#e33a3a" d="M 41.265625 20.511719 C 41.265625 21.175781 41.234375 21.835938 41.167969 22.5 C 41.105469 23.160156 41.007812 23.816406 40.878906 24.464844 C 40.75 25.117188 40.585938 25.761719 40.394531 26.394531 C 40.203125 27.03125 39.976562 27.65625 39.722656 28.269531 C 39.46875 28.882812 39.1875 29.480469 38.875 30.066406 C 38.5625 30.652344 38.21875 31.21875 37.851562 31.773438 C 37.484375 32.324219 37.085938 32.855469 36.667969 33.367188 C 36.246094 33.882812 35.800781 34.375 35.332031 34.84375 C 34.863281 35.3125 34.371094 35.757812 33.855469 36.179688 C 33.34375 36.597656 32.8125 36.996094 32.261719 37.363281 C 31.707031 37.730469 31.140625 38.074219 30.554688 38.386719 C 29.96875 38.699219 29.367188 38.980469 28.757812 39.234375 C 28.144531 39.488281 27.519531 39.714844 26.882812 39.90625 C 26.246094 40.097656 25.605469 40.261719 24.953125 40.390625 C 24.304688 40.519531 23.648438 40.617188 22.988281 40.679688 C 22.324219 40.746094 21.664062 40.777344 21 40.777344 C 20.335938 40.777344 19.675781 40.746094 19.011719 40.679688 C 18.351562 40.617188 17.695312 40.519531 17.046875 40.390625 C 16.394531 40.261719 15.753906 40.097656 15.117188 39.90625 C 14.480469 39.714844 13.855469 39.488281 13.242188 39.234375 C 12.632812 38.980469 12.03125 38.699219 11.445312 38.386719 C 10.859375 38.074219 10.292969 37.730469 9.738281 37.363281 C 9.1875 36.996094 8.65625 36.597656 8.144531 36.179688 C 7.628906 35.757812 7.136719 35.3125 6.667969 34.84375 C 6.199219 34.375 5.753906 33.882812 5.332031 33.367188 C 4.914062 32.855469 4.515625 32.324219 4.148438 31.773438 C 3.78125 31.21875 3.4375 30.652344 3.125 30.066406 C 2.8125 29.480469 2.53125 28.882812 2.277344 28.269531 C 2.023438 27.65625 1.796875 27.03125 1.605469 26.394531 C 1.414062 25.761719 1.25 25.117188 1.121094 24.464844 C 0.992188 23.816406 0.894531 23.160156 0.832031 22.5 C 0.765625 21.835938 0.734375 21.175781 0.734375 20.511719 C 0.734375 19.847656 0.765625 19.1875 0.832031 18.523438 C 0.894531 17.863281 0.992188 17.207031 1.121094 16.558594 C 1.25 15.90625 1.414062 15.265625 1.605469 14.628906 C 1.796875 13.992188 2.023438 13.367188 2.277344 12.753906 C 2.53125 12.140625 2.8125 11.542969 3.125 10.957031 C 3.4375 10.371094 3.78125 9.804688 4.148438 9.25 C 4.515625 8.699219 4.914062 8.167969 5.332031 7.65625 C 5.753906 7.140625 6.199219 6.648438 6.667969 6.179688 C 7.136719 5.710938 7.628906 5.265625 8.144531 4.84375 C 8.65625 4.425781 9.1875 4.027344 9.738281 3.660156 C 10.292969 3.292969 10.859375 2.949219 11.445312 2.636719 C 12.03125 2.324219 12.632812 2.042969 13.242188 1.789062 C 13.855469 1.535156 14.480469 1.308594 15.117188 1.117188 C 15.753906 0.925781 16.394531 0.761719 17.046875 0.632812 C 17.695312 0.503906 18.351562 0.40625 19.011719 0.34375 C 19.675781 0.277344 20.335938 0.246094 21 0.246094 C 21.664062 0.246094 22.324219 0.277344 22.988281 0.34375 C 23.648438 0.40625 24.304688 0.503906 24.953125 0.632812 C 25.605469 0.761719 26.246094 0.925781 26.882812 1.117188 C 27.519531 1.308594 28.144531 1.535156 28.757812 1.789062 C 29.367188 2.042969 29.96875 2.324219 30.554688 2.636719 C 31.140625 2.949219 31.707031 3.292969 32.261719 3.660156 C 32.8125 4.027344 33.34375 4.425781 33.855469 4.84375 C 34.371094 5.265625 34.863281 5.710938 35.332031 6.179688 C 35.800781 6.648438 36.246094 7.140625 36.667969 7.65625 C 37.085938 8.167969 37.484375 8.699219 37.851562 9.25 C 38.21875 9.804688 38.5625 10.371094 38.875 10.957031 C 39.1875 11.542969 39.46875 12.140625 39.722656 12.753906 C 39.976562 13.367188 40.203125 13.992188 40.394531 14.628906 C 40.585938 15.265625 40.75 15.90625 40.878906 16.558594 C 41.007812 17.207031 41.105469 17.863281 41.167969 18.523438 C 41.234375 19.1875 41.265625 19.847656 41.265625 20.511719 Z M 41.265625 20.511719 " fill-opacity="1" fill-rule="nonzero"/></g><g clip-path="url(#c5ec3dff58)"><path stroke-linecap="round" transform="matrix(0.00378496, 0, 0, 0.00378496, 0.477963, -0.00567548)" fill="none" stroke-linejoin="round" d="M 10776.255614 5420.77362 C 10776.255614 5596.221459 10767.999245 5770.637252 10750.454461 5946.085092 C 10733.941723 6120.500885 10708.14057 6293.884631 10674.083049 6465.204286 C 10640.025527 6637.555987 10596.67959 6807.843595 10546.109331 6975.035066 C 10495.539071 7143.258582 10435.680397 7308.38596 10368.597399 7470.4172 C 10301.514402 7632.448439 10227.207082 7790.351495 10144.643393 7945.158411 C 10062.079704 8099.965328 9971.259646 8249.612015 9874.247311 8396.162563 C 9777.234977 8541.681064 9671.966273 8682.039336 9561.537339 8817.237376 C 9450.076359 8953.467463 9332.423102 9083.505273 9208.577569 9207.350807 C 9084.732035 9331.19634 8954.694225 9448.849597 8818.464138 9560.310577 C 8683.266098 9670.739511 8542.907826 9776.008215 8397.389324 9873.020549 C 8250.838776 9970.032884 8101.19209 10060.852942 7946.385173 10143.416631 C 7791.578256 10225.98032 7632.643155 10300.28764 7471.643962 10367.370637 C 7309.612722 10434.453635 7144.485344 10494.312309 6976.261828 10544.882569 C 6808.038311 10595.452828 6638.782749 10638.798765 6466.431048 10672.856287 C 6295.111393 10706.913808 6121.727647 10732.714961 5947.311854 10749.227699 C 5771.864014 10766.772483 5597.448221 10775.028852 5422.000382 10775.028852 C 5246.552543 10775.028852 5072.13675 10766.772483 4896.688911 10749.227699 C 4722.273118 10732.714961 4548.889371 10706.913808 4377.569716 10672.856287 C 4205.218016 10638.798765 4035.962453 10595.452828 3867.738937 10544.882569 C 3699.515421 10494.312309 3534.388043 10434.453635 3372.356803 10367.370637 C 3211.357609 10300.28764 3052.422508 10225.98032 2897.615591 10143.416631 C 2742.808674 10060.852942 2593.161988 9970.032884 2446.61144 9873.020549 C 2301.092938 9776.008215 2160.734667 9670.739511 2025.536626 9560.310577 C 1889.306539 9448.849597 1759.268729 9331.19634 1635.423196 9207.350807 C 1511.577662 9083.505273 1393.924405 8953.467463 1282.463425 8817.237376 C 1172.034491 8682.039336 1066.765788 8541.681064 969.753453 8396.162563 C 872.741119 8249.612015 781.921061 8099.965328 699.357372 7945.158411 C 616.793683 7790.351495 542.486363 7632.448439 475.403365 7470.4172 C 408.320368 7308.38596 348.461693 7143.258582 297.891434 6975.035066 C 247.321174 6807.843595 203.975238 6637.555987 169.917716 6465.204286 C 135.860194 6293.884631 110.059042 6120.500885 93.546304 5946.085092 C 76.00152 5770.637252 67.745151 5596.221459 67.745151 5420.77362 C 67.745151 5245.325781 76.00152 5070.909988 93.546304 4895.462149 C 110.059042 4721.046356 135.860194 4547.662609 169.917716 4376.342955 C 203.975238 4203.991254 247.321174 4034.735691 297.891434 3866.512175 C 348.461693 3698.288659 408.320368 3533.161281 475.403365 3371.130041 C 542.486363 3209.098801 616.793683 3051.195746 699.357372 2896.388829 C 781.921061 2741.581912 872.741119 2591.935226 969.753453 2445.384678 C 1066.765788 2299.866176 1172.034491 2159.507905 1282.463425 2024.309864 C 1393.924405 1888.079777 1511.577662 1758.041967 1635.423196 1634.196434 C 1759.268729 1510.3509 1889.306539 1392.697643 2025.536626 1281.236663 C 2160.734667 1170.807729 2301.092938 1065.539026 2446.61144 968.526691 C 2593.161988 871.514357 2742.808674 780.694299 2897.615591 698.13061 C 3052.422508 615.566921 3211.357609 541.259601 3372.356803 474.176603 C 3534.388043 407.093606 3699.515421 347.234932 3867.738937 296.664672 C 4035.962453 246.094413 4205.218016 202.748476 4377.569716 168.690954 C 4548.889371 134.633432 4722.273118 108.83228 4896.688911 92.319542 C 5072.13675 74.774758 5246.552543 66.518389 5422.000382 66.518389 C 5597.448221 66.518389 5771.864014 74.774758 5947.311854 92.319542 C 6121.727647 108.83228 6295.111393 134.633432 6466.431048 168.690954 C 6638.782749 202.748476 6808.038311 246.094413 6976.261828 296.664672 C 7144.485344 347.234932 7309.612722 407.093606 7471.643962 474.176603 C 7632.643155 541.259601 7791.578256 615.566921 7946.385173 698.13061 C 8101.19209 780.694299 8250.838776 871.514357 8397.389324 968.526691 C 8542.907826 1065.539026 8683.266098 1170.807729 8818.464138 1281.236663 C 8954.694225 1392.697643 9084.732035 1510.3509 9208.577569 1634.196434 C 9332.423102 1758.041967 9450.076359 1888.079777 9561.537339 2024.309864 C 9671.966273 2159.507905 9777.234977 2299.866176 9874.247311 2445.384678 C 9971.259646 2591.935226 10062.079704 2741.581912 10144.643393 2896.388829 C 10227.207082 3051.195746 10301.514402 3209.098801 10368.597399 3371.130041 C 10435.680397 3533.161281 10495.539071 3698.288659 10546.109331 3866.512175 C 10596.67959 4034.735691 10640.025527 4203.991254 10674.083049 4376.342955 C 10708.14057 4547.662609 10733.941723 4721.046356 10750.454461 4895.462149 C 10767.999245 5070.909988 10776.255614 5245.325781 10776.255614 5420.77362 Z M 10776.255614 5420.77362 " stroke="#000000" stroke-width="129.130005" stroke-opacity="1" stroke-miterlimit="1.5"/></g><path stroke-linecap="round" transform="matrix(0.00378496, 0, 0, 0.00378496, 0.477963, -0.00567548)" fill-opacity="1" fill="#fff0f0" fill-rule="nonzero" stroke-linejoin="round" d="M 10141.547254 5419.741574 C 10141.547254 5573.516445 10134.322932 5728.323362 10118.84224 5882.098233 C 10103.361548 6035.873103 10080.656534 6188.615928 10050.727197 6340.326707 C 10020.797859 6492.037485 9983.644199 6641.684171 9938.23417 6789.266765 C 9893.856187 6936.84936 9841.221836 7082.367861 9782.395207 7224.790225 C 9723.568579 7368.244635 9657.517628 7507.57086 9584.242354 7643.800947 C 9510.96708 7780.031033 9432.531575 7912.132936 9345.839702 8041.1387 C 9260.179874 8169.112418 9168.32777 8293.989997 9070.28339 8412.6753 C 8972.239009 8532.392649 8869.034398 8646.949768 8759.63751 8756.346656 C 8650.240622 8865.743544 8535.683504 8968.948155 8415.966154 9066.992536 C 8297.280852 9165.036916 8172.403272 9256.88902 8044.429554 9342.548848 C 7915.42379 9429.240721 7783.321888 9507.676226 7647.091801 9580.9515 C 7510.861714 9654.226774 7371.535489 9720.277725 7228.081079 9779.104353 C 7085.658716 9837.930982 6940.140214 9890.565333 6792.55762 9934.943316 C 6644.975026 9979.321299 6495.328339 10017.507005 6343.617561 10047.436342 C 6191.906782 10077.36568 6039.163958 10100.070694 5885.389087 10115.551386 C 5731.614216 10131.032078 5577.839345 10138.2564 5423.032428 10138.2564 C 5268.225512 10138.2564 5114.450641 10131.032078 4960.67577 10115.551386 C 4806.900899 10100.070694 4654.158075 10077.36568 4502.447296 10047.436342 C 4350.736518 10017.507005 4201.089831 9979.321299 4053.507237 9934.943316 C 3904.892597 9890.565333 3759.374095 9837.930982 3616.951732 9779.104353 C 3474.529368 9720.277725 3335.203143 9654.226774 3197.94101 9580.9515 C 3061.710923 9507.676226 2929.609021 9429.240721 2801.635303 9342.548848 C 2672.629539 9256.88902 2548.784005 9165.036916 2429.066656 9066.992536 C 2309.349307 8968.948155 2195.824235 8865.743544 2086.427347 8756.346656 C 1977.030459 8646.949768 1872.793802 8532.392649 1774.749421 8412.6753 C 1676.70504 8293.989997 1584.852936 8169.112418 1499.193109 8041.1387 C 1413.533282 7912.132936 1334.065731 7780.031033 1260.790457 7643.800947 C 1188.547229 7507.57086 1122.496278 7368.244635 1063.669649 7224.790225 C 1003.810975 7082.367861 952.208669 6936.84936 906.79864 6789.266765 C 862.420657 6641.684171 825.266997 6492.037485 794.305614 6340.326707 C 764.376277 6188.615928 741.671262 6035.873103 727.222617 5882.098233 C 711.741925 5728.323362 704.517602 5573.516445 704.517602 5419.741574 C 704.517602 5264.934657 711.741925 5111.159787 727.222617 4957.384916 C 741.671262 4803.610045 764.376277 4650.86722 794.305614 4499.156442 C 825.266997 4347.445663 862.420657 4197.798977 906.79864 4049.184337 C 952.208669 3901.601743 1003.810975 3756.083241 1063.669649 3613.660877 C 1122.496278 3471.238514 1188.547229 3330.880243 1260.790457 3194.650156 C 1334.065731 3058.420069 1413.533282 2926.318167 1499.193109 2798.344449 C 1584.852936 2669.338685 1676.70504 2545.493151 1774.749421 2425.775802 C 1872.793802 2306.058453 1977.030459 2192.533381 2086.427347 2083.136493 C 2195.824235 1973.739605 2309.349307 1869.502947 2429.066656 1771.458567 C 2548.784005 1673.414186 2672.629539 1581.562082 2801.635303 1495.902255 C 2929.609021 1410.242427 3061.710923 1330.774877 3197.94101 1257.499603 C 3335.203143 1185.256375 3474.529368 1119.205424 3616.951732 1060.378795 C 3759.374095 1000.520121 3904.892597 948.917815 4053.507237 903.507786 C 4201.089831 859.129803 4350.736518 821.976143 4502.447296 791.01476 C 4654.158075 761.085423 4806.900899 738.380408 4960.67577 723.931763 C 5114.450641 708.451071 5268.225512 701.226748 5423.032428 701.226748 C 5577.839345 701.226748 5731.614216 708.451071 5885.389087 723.931763 C 6039.163958 738.380408 6191.906782 761.085423 6343.617561 791.01476 C 6495.328339 821.976143 6644.975026 859.129803 6792.55762 903.507786 C 6940.140214 948.917815 7085.658716 1000.520121 7228.081079 1060.378795 C 7371.535489 1119.205424 7510.861714 1185.256375 7647.091801 1257.499603 C 7783.321888 1330.774877 7915.42379 1410.242427 8044.429554 1495.902255 C 8172.403272 1581.562082 8297.280852 1673.414186 8415.966154 1771.458567 C 8535.683504 1869.502947 8650.240622 1973.739605 8759.63751 2083.136493 C 8869.034398 2192.533381 8972.239009 2306.058453 9070.28339 2425.775802 C 9168.32777 2545.493151 9260.179874 2669.338685 9345.839702 2798.344449 C 9432.531575 2926.318167 9510.96708 3058.420069 9584.242354 3194.650156 C 9657.517628 3330.880243 9723.568579 3471.238514 9782.395207 3613.660877 C 9841.221836 3756.083241 9893.856187 3901.601743 9938.23417 4049.184337 C 9983.644199 4197.798977 10020.797859 4347.445663 10050.727197 4499.156442 C 10080.656534 4650.86722 10103.361548 4803.610045 10118.84224 4957.384916 C 10134.322932 5111.159787 10141.547254 5264.934657 10141.547254 5419.741574 Z M 10141.547254 5419.741574 " stroke="#000000" stroke-width="128.990005" stroke-opacity="1" stroke-miterlimit="1.5"/><path stroke-linecap="round" transform="matrix(0.00378496, 0, 0, 0.00378496, 0.477963, -0.00567548)" fill-opacity="1" fill="#000000" fill-rule="evenodd" stroke-linejoin="round" d="M 5613.960959 2275.09707 L 5613.960959 5446.574773 C 5613.960959 5551.843477 5528.301132 5637.503304 5424.064474 5637.503304 C 5318.795771 5637.503304 5233.135944 5551.843477 5233.135944 5446.574773 L 5233.135944 2275.09707 C 5233.135944 2169.828366 5318.795771 2084.168539 5424.064474 2084.168539 C 5528.301132 2084.168539 5613.960959 2169.828366 5613.960959 2275.09707 Z M 5613.960959 2275.09707 " stroke="#000000" stroke-width="129.070007" stroke-opacity="1" stroke-miterlimit="1.5"/><path stroke-linecap="round" transform="matrix(0.00378496, 0, 0, 0.00378496, 0.477963, -0.00567548)" fill-opacity="1" fill="#000000" fill-rule="evenodd" stroke-linejoin="round" d="M 5578.871391 5572.484399 L 4730.529487 7042.118063 C 4677.895135 7132.938121 4561.273924 7163.899504 4470.453867 7111.265153 C 4379.633809 7058.630801 4347.640379 6942.00959 4400.274731 6851.189532 L 5249.648681 5381.555868 C 5301.250987 5291.767856 5418.904244 5259.774427 5508.692256 5312.408779 C 5599.512314 5365.04313 5631.505743 5481.664341 5578.871391 5572.484399 Z M 5578.871391 5572.484399 " stroke="#000000" stroke-width="129.100006" stroke-opacity="1" stroke-miterlimit="1.5"/></svg>