<svg xmlns="http://www.w3.org/2000/svg" xmlns:xlink="http://www.w3.org/1999/xlink" width="57" zoomAndPan="magnify" viewBox="0 0 42.75 38.249999" height="51" preserveAspectRatio="xMidYMid meet" version="1.0"><defs><clipPath id="b4c487b991"><path d="M 4 17 L 11 17 L 11 36.777344 L 4 36.777344 Z M 4 17 " clip-rule="nonzero"/></clipPath><clipPath id="5b4789f6a1"><path d="M 13 14 L 20 14 L 20 36.777344 L 13 36.777344 Z M 13 14 " clip-rule="nonzero"/></clipPath><clipPath id="510564bcd1"><path d="M 21 15 L 28 15 L 28 36.777344 L 21 36.777344 Z M 21 15 " clip-rule="nonzero"/></clipPath><clipPath id="ff95bea499"><path d="M 30 8 L 36 8 L 36 36.777344 L 30 36.777344 Z M 30 8 " clip-rule="nonzero"/></clipPath><clipPath id="f7972e553d"><path d="M 0.289062 0 L 41.480469 0 L 41.480469 23 L 0.289062 23 Z M 0.289062 0 " clip-rule="nonzero"/></clipPath><clipPath id="f2ddef17ab"><path d="M 4 17 L 11 17 L 11 36.777344 L 4 36.777344 Z M 4 17 " clip-rule="nonzero"/></clipPath><clipPath id="13d36f4e5d"><path d="M 13 14 L 20 14 L 20 36.777344 L 13 36.777344 Z M 13 14 " clip-rule="nonzero"/></clipPath><clipPath id="6d5f0cd11c"><path d="M 21 15 L 28 15 L 28 36.777344 L 21 36.777344 Z M 21 15 " clip-rule="nonzero"/></clipPath><clipPath id="a321a55c58"><path d="M 30 8 L 36 8 L 36 36.777344 L 30 36.777344 Z M 30 8 " clip-rule="nonzero"/></clipPath><clipPath id="cfc7101d58"><path d="M 0.289062 0 L 41.480469 0 L 41.480469 23 L 0.289062 23 Z M 0.289062 0 " clip-rule="nonzero"/></clipPath></defs><g clip-path="url(#b4c487b991)"><path fill="#ffde59" d="M 4.894531 36.839844 L 10.664062 36.839844 L 10.664062 17.867188 L 4.894531 22.347656 Z M 4.894531 36.839844 " fill-opacity="1" fill-rule="nonzero"/></g><g clip-path="url(#5b4789f6a1)"><path fill="#ffde59" d="M 15.265625 14.289062 L 13.339844 15.785156 L 13.339844 36.84375 L 19.109375 36.84375 L 19.109375 19.234375 C 18.980469 19.121094 18.859375 18.996094 18.753906 18.855469 Z M 15.265625 14.289062 " fill-opacity="1" fill-rule="nonzero"/></g><g clip-path="url(#510564bcd1)"><path fill="#ffde59" d="M 21.785156 19.882812 L 21.785156 36.84375 L 27.550781 36.84375 L 27.550781 15.492188 L 22.878906 19.332031 C 22.554688 19.597656 22.179688 19.777344 21.785156 19.882812 Z M 21.785156 19.882812 " fill-opacity="1" fill-rule="nonzero"/></g><g clip-path="url(#ff95bea499)"><path fill="#ffde59" d="M 30.230469 36.839844 L 35.996094 36.839844 L 35.996094 8.550781 L 30.230469 13.289062 Z M 30.230469 36.839844 " fill-opacity="1" fill-rule="nonzero"/></g><g clip-path="url(#f7972e553d)"><path fill="#ffde59" d="M 40.246094 0.273438 L 39.34375 0.410156 C 38.449219 0.546875 36.980469 0.769531 36.085938 0.902344 L 35.183594 1.042969 C 34.289062 1.175781 34.015625 1.867188 34.582031 2.574219 L 35.152344 3.285156 C 35.242188 3.398438 35.347656 3.53125 35.453125 3.664062 L 21.25 15.339844 L 16.777344 9.476562 C 16.574219 9.214844 16.28125 9.042969 15.953125 9.003906 C 15.625 8.960938 15.296875 9.050781 15.035156 9.25 L 0.289062 20.636719 L 1.804688 22.59375 L 15.566406 11.96875 L 20.0625 17.855469 C 20.265625 18.125 20.570312 18.296875 20.902344 18.332031 C 21.238281 18.375 21.570312 18.273438 21.828125 18.0625 L 36.996094 5.597656 C 37.070312 5.691406 37.144531 5.78125 37.207031 5.863281 L 37.773438 6.574219 C 38.339844 7.28125 39.074219 7.171875 39.402344 6.328125 L 39.734375 5.480469 C 40.066406 4.636719 40.609375 3.253906 40.9375 2.410156 L 41.273438 1.5625 C 41.601562 0.71875 41.140625 0.140625 40.246094 0.273438 Z M 40.246094 0.273438 " fill-opacity="1" fill-rule="nonzero"/></g><g clip-path="url(#f2ddef17ab)"><path fill="#ffde59" d="M 4.894531 36.839844 L 10.664062 36.839844 L 10.664062 17.867188 L 4.894531 22.347656 Z M 4.894531 36.839844 " fill-opacity="1" fill-rule="nonzero"/></g><g clip-path="url(#13d36f4e5d)"><path fill="#ffde59" d="M 15.265625 14.289062 L 13.339844 15.785156 L 13.339844 36.84375 L 19.109375 36.84375 L 19.109375 19.234375 C 18.980469 19.121094 18.859375 18.996094 18.753906 18.855469 Z M 15.265625 14.289062 " fill-opacity="1" fill-rule="nonzero"/></g><g clip-path="url(#6d5f0cd11c)"><path fill="#ffde59" d="M 21.785156 19.882812 L 21.785156 36.84375 L 27.550781 36.84375 L 27.550781 15.492188 L 22.878906 19.332031 C 22.554688 19.597656 22.179688 19.777344 21.785156 19.882812 Z M 21.785156 19.882812 " fill-opacity="1" fill-rule="nonzero"/></g><g clip-path="url(#a321a55c58)"><path fill="#ffde59" d="M 30.230469 36.839844 L 35.996094 36.839844 L 35.996094 8.550781 L 30.230469 13.289062 Z M 30.230469 36.839844 " fill-opacity="1" fill-rule="nonzero"/></g><g clip-path="url(#cfc7101d58)"><path fill="#ffde59" d="M 40.246094 0.273438 L 39.34375 0.410156 C 38.449219 0.546875 36.980469 0.769531 36.085938 0.902344 L 35.183594 1.042969 C 34.289062 1.175781 34.015625 1.867188 34.582031 2.574219 L 35.152344 3.285156 C 35.242188 3.398438 35.347656 3.53125 35.453125 3.664062 L 21.25 15.339844 L 16.777344 9.476562 C 16.574219 9.214844 16.28125 9.042969 15.953125 9.003906 C 15.625 8.960938 15.296875 9.050781 15.035156 9.25 L 0.289062 20.636719 L 1.804688 22.59375 L 15.566406 11.96875 L 20.0625 17.855469 C 20.265625 18.125 20.570312 18.296875 20.902344 18.332031 C 21.238281 18.375 21.570312 18.273438 21.828125 18.0625 L 36.996094 5.597656 C 37.070312 5.691406 37.144531 5.78125 37.207031 5.863281 L 37.773438 6.574219 C 38.339844 7.28125 39.074219 7.171875 39.402344 6.328125 L 39.734375 5.480469 C 40.066406 4.636719 40.609375 3.253906 40.9375 2.410156 L 41.273438 1.5625 C 41.601562 0.71875 41.140625 0.140625 40.246094 0.273438 Z M 40.246094 0.273438 " fill-opacity="1" fill-rule="nonzero"/></g></svg>