<svg xmlns="http://www.w3.org/2000/svg" xmlns:xlink="http://www.w3.org/1999/xlink" width="89" zoomAndPan="magnify" viewBox="0 0 66.75 81.749997" height="109" preserveAspectRatio="xMidYMid meet" version="1.0"><defs><g/><clipPath id="3b7c65cb83"><path d="M 0 7 L 66.5 7 L 66.5 74 L 0 74 Z M 0 7 " clip-rule="nonzero"/></clipPath><clipPath id="58dc592c5e"><path d="M 0 0.402344 L 66.363281 0.402344 L 66.363281 66.761719 L 0 66.761719 Z M 0 0.402344 " clip-rule="nonzero"/></clipPath><clipPath id="354c333560"><path d="M 33.179688 0.402344 C 14.855469 0.402344 0 15.257812 0 33.582031 C 0 51.90625 14.855469 66.761719 33.179688 66.761719 C 51.507812 66.761719 66.363281 51.90625 66.363281 33.582031 C 66.363281 15.257812 51.507812 0.402344 33.179688 0.402344 Z M 33.179688 0.402344 " clip-rule="nonzero"/></clipPath><clipPath id="c6036155b5"><path d="M 0 0.402344 L 66.363281 0.402344 L 66.363281 66.761719 L 0 66.761719 Z M 0 0.402344 " clip-rule="nonzero"/></clipPath><clipPath id="dc687892be"><path d="M 33.179688 0.402344 C 14.855469 0.402344 0 15.257812 0 33.582031 C 0 51.90625 14.855469 66.761719 33.179688 66.761719 C 51.507812 66.761719 66.363281 51.90625 66.363281 33.582031 C 66.363281 15.257812 51.507812 0.402344 33.179688 0.402344 Z M 33.179688 0.402344 " clip-rule="nonzero"/></clipPath><clipPath id="d09462ecde"><rect x="0" width="67" y="0" height="67"/></clipPath><clipPath id="929e52c7c0"><rect x="0" width="67" y="0" height="67"/></clipPath></defs><g clip-path="url(#3b7c65cb83)"><g transform="matrix(1, 0, 0, 1, 0, 7)"><g clip-path="url(#929e52c7c0)"><g clip-path="url(#58dc592c5e)"><g clip-path="url(#354c333560)"><g transform="matrix(1, 0, 0, 1, 0, -0.000000000000008882)"><g clip-path="url(#d09462ecde)"><g clip-path="url(#c6036155b5)"><g clip-path="url(#dc687892be)"><path fill="#e83d34" d="M 0 0.402344 L 66.363281 0.402344 L 66.363281 66.761719 L 0 66.761719 Z M 0 0.402344 " fill-opacity="1" fill-rule="nonzero"/></g></g></g></g></g></g><g fill="#ffffff" fill-opacity="1"><g transform="translate(20.237687, 46.495867)"><g><path d="M 17.25 -29.078125 C 20.164062 -29.078125 22.691406 -28.660156 24.828125 -27.828125 C 26.960938 -27.003906 28.59375 -25.921875 29.71875 -24.578125 C 30.84375 -23.242188 31.40625 -21.820312 31.40625 -20.3125 C 31.40625 -19.757812 31.316406 -19.191406 31.140625 -18.609375 C 30.734375 -17.378906 30.046875 -16.414062 29.078125 -15.71875 C 28.117188 -15.019531 26.648438 -14.382812 24.671875 -13.8125 C 22.691406 -13.25 19.648438 -12.578125 15.546875 -11.796875 C 13.066406 -11.328125 11.207031 -10.910156 9.96875 -10.546875 C 8.738281 -10.179688 7.882812 -9.796875 7.40625 -9.390625 C 6.925781 -8.984375 6.65625 -8.457031 6.59375 -7.8125 L 19.171875 -7.8125 C 20.921875 -7.8125 22.242188 -8.046875 23.140625 -8.515625 C 24.046875 -8.984375 24.890625 -9.609375 25.671875 -10.390625 C 26.023438 -10.773438 26.3125 -11.046875 26.53125 -11.203125 C 26.75 -11.359375 27.003906 -11.4375 27.296875 -11.4375 C 27.816406 -11.4375 28.296875 -11.078125 28.734375 -10.359375 C 29.171875 -9.648438 29.390625 -8.742188 29.390625 -7.640625 C 29.390625 -6.910156 29.257812 -6.082031 29 -5.15625 C 28.414062 -3.289062 27.363281 -1.960938 25.84375 -1.171875 C 24.332031 -0.390625 22.050781 0 19 0 L 3.578125 0 C 2.648438 0 1.898438 -0.390625 1.328125 -1.171875 C 0.765625 -1.960938 0.484375 -3.023438 0.484375 -4.359375 C 0.484375 -5.359375 0.65625 -6.4375 1 -7.59375 C 1.613281 -9.601562 2.734375 -11.226562 4.359375 -12.46875 C 5.992188 -13.707031 8.296875 -14.75 11.265625 -15.59375 C 13.242188 -16.175781 14.769531 -16.75 15.84375 -17.3125 C 16.925781 -17.882812 17.695312 -18.453125 18.15625 -19.015625 C 18.625 -19.585938 18.992188 -20.296875 19.265625 -21.140625 C 19.410156 -21.722656 19.484375 -22.203125 19.484375 -22.578125 C 19.484375 -23.390625 19.234375 -24.039062 18.734375 -24.53125 C 18.242188 -25.03125 17.570312 -25.28125 16.71875 -25.28125 C 16.488281 -25.28125 16.082031 -25.222656 15.5 -25.109375 C 15.53125 -24.929688 15.546875 -24.671875 15.546875 -24.328125 C 15.546875 -22.347656 14.945312 -20.863281 13.75 -19.875 C 12.5625 -18.882812 11.066406 -18.390625 9.265625 -18.390625 C 7.921875 -18.390625 6.851562 -18.738281 6.0625 -19.4375 C 5.28125 -20.132812 4.890625 -21.078125 4.890625 -22.265625 C 4.890625 -22.847656 4.960938 -23.375 5.109375 -23.84375 C 5.628906 -25.5625 6.953125 -26.863281 9.078125 -27.75 C 11.203125 -28.632812 13.925781 -29.078125 17.25 -29.078125 Z M 17.25 -29.078125 "/></g></g></g></g></g></g></svg>