<svg xmlns="http://www.w3.org/2000/svg" xmlns:xlink="http://www.w3.org/1999/xlink" width="742" zoomAndPan="magnify" viewBox="0 0 556.5 440.25" height="587" preserveAspectRatio="xMidYMid meet" version="1.0"><defs><g/><clipPath id="85f6dbdc7a"><path d="M 0.222656 98 L 503 98 L 503 438.753906 L 0.222656 438.753906 Z M 0.222656 98 " clip-rule="nonzero"/></clipPath><clipPath id="b9ccfe4804"><path d="M 370 0 L 555.777344 0 L 555.777344 306 L 370 306 Z M 370 0 " clip-rule="nonzero"/></clipPath></defs><g fill="#000000" fill-opacity="1"><g transform="translate(87.444802, 223.889286)"><g><path d="M 19.984375 0 L 18.890625 -3.625 L 9.890625 -3.625 L 8.8125 0 L 0.375 0 L 9.75 -25.6875 L 19.34375 -25.6875 L 28.71875 0 Z M 11.609375 -9.375 L 17.171875 -9.375 L 14.484375 -18.515625 L 14.34375 -18.515625 Z M 11.609375 -9.375 "/></g></g></g><g fill="#000000" fill-opacity="1"><g transform="translate(116.488218, 223.889286)"><g><path d="M 17.171875 -25.6875 C 18.765625 -25.6875 20.179688 -25.316406 21.421875 -24.578125 C 22.671875 -23.847656 23.644531 -22.84375 24.34375 -21.5625 C 25.039062 -20.28125 25.390625 -18.84375 25.390625 -17.25 L 25.390625 -16.765625 C 25.390625 -15.171875 25.039062 -13.726562 24.34375 -12.4375 C 23.644531 -11.144531 22.671875 -10.128906 21.421875 -9.390625 C 20.179688 -8.660156 18.765625 -8.296875 17.171875 -8.296875 L 11.015625 -8.296875 L 11.015625 0 L 2.765625 0 L 2.765625 -25.6875 Z M 11.015625 -14.296875 L 14.421875 -14.296875 C 15.285156 -14.296875 15.9375 -14.519531 16.375 -14.96875 C 16.8125 -15.414062 17.03125 -16.023438 17.03125 -16.796875 L 17.03125 -17.109375 C 17.03125 -17.898438 16.8125 -18.515625 16.375 -18.953125 C 15.9375 -19.390625 15.285156 -19.609375 14.421875 -19.609375 L 11.015625 -19.609375 Z M 11.015625 -14.296875 "/></g></g></g><g fill="#000000" fill-opacity="1"><g transform="translate(143.441099, 223.889286)"><g><path d="M 19.984375 0 L 18.890625 -3.625 L 9.890625 -3.625 L 8.8125 0 L 0.375 0 L 9.75 -25.6875 L 19.34375 -25.6875 L 28.71875 0 Z M 11.609375 -9.375 L 17.171875 -9.375 L 14.484375 -18.515625 L 14.34375 -18.515625 Z M 11.609375 -9.375 "/></g></g></g><g fill="#000000" fill-opacity="1"><g transform="translate(172.484516, 223.889286)"><g><path d="M 20.171875 -25.6875 L 30.390625 -25.6875 L 21.171875 -15.125 L 30.578125 0 L 20.84375 0 L 15.5 -9.40625 L 11.015625 -5.75 L 11.015625 0 L 2.765625 0 L 2.765625 -25.6875 L 11.015625 -25.6875 L 11.015625 -14.71875 Z M 20.171875 -25.6875 "/></g></g></g><g fill="#000000" fill-opacity="1"><g transform="translate(203.581132, 223.889286)"><g><path d="M 19.984375 0 L 18.890625 -3.625 L 9.890625 -3.625 L 8.8125 0 L 0.375 0 L 9.75 -25.6875 L 19.34375 -25.6875 L 28.71875 0 Z M 11.609375 -9.375 L 17.171875 -9.375 L 14.484375 -18.515625 L 14.34375 -18.515625 Z M 11.609375 -9.375 "/></g></g></g><g fill="#000000" fill-opacity="1"><g transform="translate(232.624548, 223.889286)"><g><path d="M 20.09375 0 L 20.09375 -9.75 L 11.015625 -9.75 L 11.015625 0 L 2.765625 0 L 2.765625 -25.6875 L 11.015625 -25.6875 L 11.015625 -16.3125 L 20.09375 -16.3125 L 20.09375 -25.6875 L 28.34375 -25.6875 L 28.34375 0 Z M 20.09375 0 "/></g></g></g><g fill="#000000" fill-opacity="1"><g transform="translate(263.721165, 223.889286)"><g/></g></g><g fill="#000000" fill-opacity="1"><g transform="translate(276.152349, 223.889286)"><g><path d="M 3.140625 0 L 3.140625 -25.6875 L 11.390625 -25.6875 L 11.390625 0 Z M 3.140625 0 "/></g></g></g><g fill="#000000" fill-opacity="1"><g transform="translate(290.674045, 223.889286)"><g><path d="M 19.859375 -25.6875 C 21.160156 -25.6875 22.351562 -25.421875 23.4375 -24.890625 C 24.519531 -24.359375 25.378906 -23.601562 26.015625 -22.625 C 26.648438 -21.65625 26.96875 -20.570312 26.96875 -19.375 C 26.96875 -16.21875 25.535156 -14.226562 22.671875 -13.40625 L 22.671875 -13.25 C 25.929688 -12.507812 27.5625 -10.367188 27.5625 -6.828125 C 27.5625 -5.484375 27.226562 -4.296875 26.5625 -3.265625 C 25.90625 -2.234375 25.003906 -1.429688 23.859375 -0.859375 C 22.710938 -0.285156 21.457031 0 20.09375 0 L 2.765625 0 L 2.765625 -25.6875 Z M 11.015625 -15.6875 L 16.6875 -15.6875 C 17.238281 -15.6875 17.691406 -15.878906 18.046875 -16.265625 C 18.410156 -16.648438 18.59375 -17.128906 18.59375 -17.703125 L 18.59375 -18.078125 C 18.59375 -18.617188 18.40625 -19.082031 18.03125 -19.46875 C 17.664062 -19.851562 17.21875 -20.046875 16.6875 -20.046875 L 11.015625 -20.046875 Z M 11.015625 -5.96875 L 17.296875 -5.96875 C 17.835938 -5.96875 18.285156 -6.160156 18.640625 -6.546875 C 19.003906 -6.929688 19.1875 -7.410156 19.1875 -7.984375 L 19.1875 -8.359375 C 19.1875 -8.929688 19.003906 -9.410156 18.640625 -9.796875 C 18.285156 -10.179688 17.835938 -10.375 17.296875 -10.375 L 11.015625 -10.375 Z M 11.015625 -5.96875 "/></g></g></g><g fill="#000000" fill-opacity="1"><g transform="translate(319.717462, 223.889286)"><g><path d="M 28.34375 -10.34375 C 28.34375 -6.832031 27.234375 -4.15625 25.015625 -2.3125 C 22.804688 -0.46875 19.660156 0.453125 15.578125 0.453125 C 11.492188 0.453125 8.335938 -0.46875 6.109375 -2.3125 C 3.878906 -4.15625 2.765625 -6.832031 2.765625 -10.34375 L 2.765625 -25.6875 L 11.015625 -25.6875 L 11.015625 -10.453125 C 11.015625 -9.015625 11.398438 -7.863281 12.171875 -7 C 12.941406 -6.144531 14.0625 -5.71875 15.53125 -5.71875 C 17 -5.71875 18.125 -6.148438 18.90625 -7.015625 C 19.695312 -7.890625 20.09375 -9.035156 20.09375 -10.453125 L 20.09375 -25.6875 L 28.34375 -25.6875 Z M 28.34375 -10.34375 "/></g></g></g><g fill="#000000" fill-opacity="1"><g transform="translate(47.013681, 278.546171)"><g><path d="M 13.5625 -26.140625 C 16.84375 -26.140625 19.539062 -25.472656 21.65625 -24.140625 C 23.769531 -22.804688 24.851562 -20.832031 24.90625 -18.21875 L 24.90625 -17.78125 L 17.171875 -17.78125 L 17.171875 -17.921875 C 17.171875 -18.671875 16.894531 -19.289062 16.34375 -19.78125 C 15.800781 -20.28125 14.972656 -20.53125 13.859375 -20.53125 C 12.765625 -20.53125 11.921875 -20.367188 11.328125 -20.046875 C 10.742188 -19.722656 10.453125 -19.328125 10.453125 -18.859375 C 10.453125 -18.179688 10.847656 -17.679688 11.640625 -17.359375 C 12.441406 -17.035156 13.726562 -16.703125 15.5 -16.359375 C 17.5625 -15.929688 19.257812 -15.488281 20.59375 -15.03125 C 21.925781 -14.570312 23.085938 -13.816406 24.078125 -12.765625 C 25.078125 -11.722656 25.59375 -10.304688 25.625 -8.515625 C 25.625 -5.472656 24.59375 -3.21875 22.53125 -1.75 C 20.476562 -0.28125 17.734375 0.453125 14.296875 0.453125 C 10.296875 0.453125 7.179688 -0.21875 4.953125 -1.5625 C 2.722656 -2.90625 1.609375 -5.285156 1.609375 -8.703125 L 9.40625 -8.703125 C 9.40625 -7.410156 9.738281 -6.546875 10.40625 -6.109375 C 11.082031 -5.671875 12.132812 -5.453125 13.5625 -5.453125 C 14.601562 -5.453125 15.460938 -5.5625 16.140625 -5.78125 C 16.828125 -6.007812 17.171875 -6.472656 17.171875 -7.171875 C 17.171875 -7.796875 16.789062 -8.257812 16.03125 -8.5625 C 15.28125 -8.875 14.046875 -9.207031 12.328125 -9.5625 C 10.234375 -10.007812 8.5 -10.472656 7.125 -10.953125 C 5.757812 -11.441406 4.566406 -12.242188 3.546875 -13.359375 C 2.523438 -14.484375 2.015625 -16.003906 2.015625 -17.921875 C 2.015625 -20.734375 3.101562 -22.804688 5.28125 -24.140625 C 7.457031 -25.472656 10.21875 -26.140625 13.5625 -26.140625 Z M 13.5625 -26.140625 "/></g></g></g><g fill="#000000" fill-opacity="1"><g transform="translate(73.966562, 278.546171)"><g><path d="M 28.34375 -10.34375 C 28.34375 -6.832031 27.234375 -4.15625 25.015625 -2.3125 C 22.804688 -0.46875 19.660156 0.453125 15.578125 0.453125 C 11.492188 0.453125 8.335938 -0.46875 6.109375 -2.3125 C 3.878906 -4.15625 2.765625 -6.832031 2.765625 -10.34375 L 2.765625 -25.6875 L 11.015625 -25.6875 L 11.015625 -10.453125 C 11.015625 -9.015625 11.398438 -7.863281 12.171875 -7 C 12.941406 -6.144531 14.0625 -5.71875 15.53125 -5.71875 C 17 -5.71875 18.125 -6.148438 18.90625 -7.015625 C 19.695312 -7.890625 20.09375 -9.035156 20.09375 -10.453125 L 20.09375 -25.6875 L 28.34375 -25.6875 Z M 28.34375 -10.34375 "/></g></g></g><g fill="#000000" fill-opacity="1"><g transform="translate(105.063179, 278.546171)"><g><path d="M 13.890625 -25.6875 C 22.878906 -25.6875 27.375 -21.40625 27.375 -12.84375 C 27.375 -4.28125 22.878906 0 13.890625 0 L 2.765625 0 L 2.765625 -25.6875 Z M 11.015625 -6.15625 L 13.75 -6.15625 C 17.207031 -6.15625 18.9375 -8.007812 18.9375 -11.71875 L 18.9375 -13.96875 C 18.9375 -17.675781 17.207031 -19.53125 13.75 -19.53125 L 11.015625 -19.53125 Z M 11.015625 -6.15625 "/></g></g></g><g fill="#000000" fill-opacity="1"><g transform="translate(134.106595, 278.546171)"><g><path d="M 19.984375 0 L 18.890625 -3.625 L 9.890625 -3.625 L 8.8125 0 L 0.375 0 L 9.75 -25.6875 L 19.34375 -25.6875 L 28.71875 0 Z M 11.609375 -9.375 L 17.171875 -9.375 L 14.484375 -18.515625 L 14.34375 -18.515625 Z M 11.609375 -9.375 "/></g></g></g><g fill="#000000" fill-opacity="1"><g transform="translate(163.150011, 278.546171)"><g><path d="M 20.09375 0 L 20.09375 -9.75 L 11.015625 -9.75 L 11.015625 0 L 2.765625 0 L 2.765625 -25.6875 L 11.015625 -25.6875 L 11.015625 -16.3125 L 20.09375 -16.3125 L 20.09375 -25.6875 L 28.34375 -25.6875 L 28.34375 0 Z M 20.09375 0 "/></g></g></g><g fill="#000000" fill-opacity="1"><g transform="translate(194.246628, 278.546171)"><g/></g></g><g fill="#000000" fill-opacity="1"><g transform="translate(206.677812, 278.546171)"><g><path d="M 17.546875 -19.125 L 17.546875 0 L 9.296875 0 L 9.296875 -19.125 L 0.859375 -19.125 L 0.859375 -25.6875 L 25.953125 -25.6875 L 25.953125 -19.125 Z M 17.546875 -19.125 "/></g></g></g><g fill="#000000" fill-opacity="1"><g transform="translate(233.630693, 278.546171)"><g><path d="M 19.984375 0 L 18.890625 -3.625 L 9.890625 -3.625 L 8.8125 0 L 0.375 0 L 9.75 -25.6875 L 19.34375 -25.6875 L 28.71875 0 Z M 11.609375 -9.375 L 17.171875 -9.375 L 14.484375 -18.515625 L 14.34375 -18.515625 Z M 11.609375 -9.375 "/></g></g></g><g fill="#000000" fill-opacity="1"><g transform="translate(262.674109, 278.546171)"><g><path d="M 28.34375 -10.34375 C 28.34375 -6.832031 27.234375 -4.15625 25.015625 -2.3125 C 22.804688 -0.46875 19.660156 0.453125 15.578125 0.453125 C 11.492188 0.453125 8.335938 -0.46875 6.109375 -2.3125 C 3.878906 -4.15625 2.765625 -6.832031 2.765625 -10.34375 L 2.765625 -25.6875 L 11.015625 -25.6875 L 11.015625 -10.453125 C 11.015625 -9.015625 11.398438 -7.863281 12.171875 -7 C 12.941406 -6.144531 14.0625 -5.71875 15.53125 -5.71875 C 17 -5.71875 18.125 -6.148438 18.90625 -7.015625 C 19.695312 -7.890625 20.09375 -9.035156 20.09375 -10.453125 L 20.09375 -25.6875 L 28.34375 -25.6875 Z M 28.34375 -10.34375 "/></g></g></g><g fill="#000000" fill-opacity="1"><g transform="translate(293.770714, 278.546171)"><g/></g></g><g fill="#000000" fill-opacity="1"><g transform="translate(306.201898, 278.546171)"><g><path d="M 19.984375 0 L 18.890625 -3.625 L 9.890625 -3.625 L 8.8125 0 L 0.375 0 L 9.75 -25.6875 L 19.34375 -25.6875 L 28.71875 0 Z M 11.609375 -9.375 L 17.171875 -9.375 L 14.484375 -18.515625 L 14.34375 -18.515625 Z M 11.609375 -9.375 "/></g></g></g><g fill="#000000" fill-opacity="1"><g transform="translate(335.245315, 278.546171)"><g><path d="M 17.171875 -25.6875 C 18.765625 -25.6875 20.179688 -25.316406 21.421875 -24.578125 C 22.671875 -23.847656 23.644531 -22.84375 24.34375 -21.5625 C 25.039062 -20.28125 25.390625 -18.84375 25.390625 -17.25 L 25.390625 -16.765625 C 25.390625 -15.171875 25.039062 -13.726562 24.34375 -12.4375 C 23.644531 -11.144531 22.671875 -10.128906 21.421875 -9.390625 C 20.179688 -8.660156 18.765625 -8.296875 17.171875 -8.296875 L 11.015625 -8.296875 L 11.015625 0 L 2.765625 0 L 2.765625 -25.6875 Z M 11.015625 -14.296875 L 14.421875 -14.296875 C 15.285156 -14.296875 15.9375 -14.519531 16.375 -14.96875 C 16.8125 -15.414062 17.03125 -16.023438 17.03125 -16.796875 L 17.03125 -17.109375 C 17.03125 -17.898438 16.8125 -18.515625 16.375 -18.953125 C 15.9375 -19.390625 15.285156 -19.609375 14.421875 -19.609375 L 11.015625 -19.609375 Z M 11.015625 -14.296875 "/></g></g></g><g fill="#000000" fill-opacity="1"><g transform="translate(362.198207, 278.546171)"><g><path d="M 19.984375 0 L 18.890625 -3.625 L 9.890625 -3.625 L 8.8125 0 L 0.375 0 L 9.75 -25.6875 L 19.34375 -25.6875 L 28.71875 0 Z M 11.609375 -9.375 L 17.171875 -9.375 L 14.484375 -18.515625 L 14.34375 -18.515625 Z M 11.609375 -9.375 "/></g></g></g><g fill="#000000" fill-opacity="1"><g transform="translate(109.204606, 333.203056)"><g><path d="M 3.140625 0 L 3.140625 -25.6875 L 11.390625 -25.6875 L 11.390625 0 Z M 3.140625 0 "/></g></g></g><g fill="#000000" fill-opacity="1"><g transform="translate(123.726315, 333.203056)"><g><path d="M 17.546875 -19.125 L 17.546875 0 L 9.296875 0 L 9.296875 -19.125 L 0.859375 -19.125 L 0.859375 -25.6875 L 25.953125 -25.6875 L 25.953125 -19.125 Z M 17.546875 -19.125 "/></g></g></g><g fill="#000000" fill-opacity="1"><g transform="translate(150.679196, 333.203056)"><g><path d="M 28.34375 -10.34375 C 28.34375 -6.832031 27.234375 -4.15625 25.015625 -2.3125 C 22.804688 -0.46875 19.660156 0.453125 15.578125 0.453125 C 11.492188 0.453125 8.335938 -0.46875 6.109375 -2.3125 C 3.878906 -4.15625 2.765625 -6.832031 2.765625 -10.34375 L 2.765625 -25.6875 L 11.015625 -25.6875 L 11.015625 -10.453125 C 11.015625 -9.015625 11.398438 -7.863281 12.171875 -7 C 12.941406 -6.144531 14.0625 -5.71875 15.53125 -5.71875 C 17 -5.71875 18.125 -6.148438 18.90625 -7.015625 C 19.695312 -7.890625 20.09375 -9.035156 20.09375 -10.453125 L 20.09375 -25.6875 L 28.34375 -25.6875 Z M 28.34375 -10.34375 "/></g></g></g><g fill="#000000" fill-opacity="1"><g transform="translate(181.775813, 333.203056)"><g/></g></g><g fill="#000000" fill-opacity="1"><g transform="translate(194.206997, 333.203056)"><g><path d="M 19.859375 -25.6875 C 21.160156 -25.6875 22.351562 -25.421875 23.4375 -24.890625 C 24.519531 -24.359375 25.378906 -23.601562 26.015625 -22.625 C 26.648438 -21.65625 26.96875 -20.570312 26.96875 -19.375 C 26.96875 -16.21875 25.535156 -14.226562 22.671875 -13.40625 L 22.671875 -13.25 C 25.929688 -12.507812 27.5625 -10.367188 27.5625 -6.828125 C 27.5625 -5.484375 27.226562 -4.296875 26.5625 -3.265625 C 25.90625 -2.234375 25.003906 -1.429688 23.859375 -0.859375 C 22.710938 -0.285156 21.457031 0 20.09375 0 L 2.765625 0 L 2.765625 -25.6875 Z M 11.015625 -15.6875 L 16.6875 -15.6875 C 17.238281 -15.6875 17.691406 -15.878906 18.046875 -16.265625 C 18.410156 -16.648438 18.59375 -17.128906 18.59375 -17.703125 L 18.59375 -18.078125 C 18.59375 -18.617188 18.40625 -19.082031 18.03125 -19.46875 C 17.664062 -19.851562 17.21875 -20.046875 16.6875 -20.046875 L 11.015625 -20.046875 Z M 11.015625 -5.96875 L 17.296875 -5.96875 C 17.835938 -5.96875 18.285156 -6.160156 18.640625 -6.546875 C 19.003906 -6.929688 19.1875 -7.410156 19.1875 -7.984375 L 19.1875 -8.359375 C 19.1875 -8.929688 19.003906 -9.410156 18.640625 -9.796875 C 18.285156 -10.179688 17.835938 -10.375 17.296875 -10.375 L 11.015625 -10.375 Z M 11.015625 -5.96875 "/></g></g></g><g fill="#000000" fill-opacity="1"><g transform="translate(223.250413, 333.203056)"><g><path d="M 19.859375 -25.6875 C 21.160156 -25.6875 22.351562 -25.421875 23.4375 -24.890625 C 24.519531 -24.359375 25.378906 -23.601562 26.015625 -22.625 C 26.648438 -21.65625 26.96875 -20.570312 26.96875 -19.375 C 26.96875 -16.21875 25.535156 -14.226562 22.671875 -13.40625 L 22.671875 -13.25 C 25.929688 -12.507812 27.5625 -10.367188 27.5625 -6.828125 C 27.5625 -5.484375 27.226562 -4.296875 26.5625 -3.265625 C 25.90625 -2.234375 25.003906 -1.429688 23.859375 -0.859375 C 22.710938 -0.285156 21.457031 0 20.09375 0 L 2.765625 0 L 2.765625 -25.6875 Z M 11.015625 -15.6875 L 16.6875 -15.6875 C 17.238281 -15.6875 17.691406 -15.878906 18.046875 -16.265625 C 18.410156 -16.648438 18.59375 -17.128906 18.59375 -17.703125 L 18.59375 -18.078125 C 18.59375 -18.617188 18.40625 -19.082031 18.03125 -19.46875 C 17.664062 -19.851562 17.21875 -20.046875 16.6875 -20.046875 L 11.015625 -20.046875 Z M 11.015625 -5.96875 L 17.296875 -5.96875 C 17.835938 -5.96875 18.285156 -6.160156 18.640625 -6.546875 C 19.003906 -6.929688 19.1875 -7.410156 19.1875 -7.984375 L 19.1875 -8.359375 C 19.1875 -8.929688 19.003906 -9.410156 18.640625 -9.796875 C 18.285156 -10.179688 17.835938 -10.375 17.296875 -10.375 L 11.015625 -10.375 Z M 11.015625 -5.96875 "/></g></g></g><g fill="#000000" fill-opacity="1"><g transform="translate(252.293829, 333.203056)"><g><path d="M 2.765625 -25.6875 L 11.015625 -25.6875 L 11.015625 -6.578125 L 24.203125 -6.578125 L 24.203125 0 L 2.765625 0 Z M 2.765625 -25.6875 "/></g></g></g><g fill="#000000" fill-opacity="1"><g transform="translate(277.193521, 333.203056)"><g><path d="M 27.15625 -17.8125 C 27.15625 -16.238281 26.726562 -14.816406 25.875 -13.546875 C 25.03125 -12.285156 23.800781 -11.351562 22.1875 -10.75 L 27.890625 0 L 18.640625 0 L 14.078125 -9.375 L 11.015625 -9.375 L 11.015625 0 L 2.765625 0 L 2.765625 -25.6875 L 18.484375 -25.6875 C 20.328125 -25.6875 21.898438 -25.332031 23.203125 -24.625 C 24.515625 -23.914062 25.5 -22.957031 26.15625 -21.75 C 26.820312 -20.539062 27.15625 -19.226562 27.15625 -17.8125 Z M 18.75 -17.484375 C 18.75 -18.148438 18.523438 -18.707031 18.078125 -19.15625 C 17.628906 -19.601562 17.082031 -19.828125 16.4375 -19.828125 L 11.015625 -19.828125 L 11.015625 -15.09375 L 16.4375 -15.09375 C 17.082031 -15.09375 17.628906 -15.320312 18.078125 -15.78125 C 18.523438 -16.238281 18.75 -16.804688 18.75 -17.484375 Z M 18.75 -17.484375 "/></g></g></g><g fill="#000000" fill-opacity="1"><g transform="translate(306.23695, 333.203056)"><g><path d="M 11.578125 -26.140625 C 13.472656 -26.140625 15.140625 -25.828125 16.578125 -25.203125 C 18.023438 -24.578125 19.144531 -23.6875 19.9375 -22.53125 C 20.738281 -21.375 21.140625 -20.035156 21.140625 -18.515625 C 21.140625 -17.546875 20.925781 -16.679688 20.5 -15.921875 C 20.070312 -15.160156 19.570312 -14.519531 19 -14 C 18.4375 -13.476562 17.71875 -12.90625 16.84375 -12.28125 C 16.125 -11.738281 15.59375 -11.304688 15.25 -10.984375 C 14.914062 -10.660156 14.75 -10.320312 14.75 -9.96875 L 14.75 -9.1875 L 8.359375 -9.1875 L 8.359375 -11.046875 C 8.359375 -11.648438 8.546875 -12.191406 8.921875 -12.671875 C 9.296875 -13.160156 9.882812 -13.78125 10.6875 -14.53125 C 11.5 -15.25 12.125 -15.894531 12.5625 -16.46875 C 13 -17.039062 13.21875 -17.675781 13.21875 -18.375 C 13.21875 -19.09375 12.992188 -19.707031 12.546875 -20.21875 C 12.097656 -20.726562 11.5 -20.984375 10.75 -20.984375 C 9.132812 -20.984375 8.328125 -19.9375 8.328125 -17.84375 C 8.328125 -17.394531 8.335938 -17.0625 8.359375 -16.84375 L 1.5 -16.84375 C 1.46875 -17.019531 1.4375 -17.21875 1.40625 -17.4375 C 1.382812 -17.664062 1.375 -17.941406 1.375 -18.265625 C 1.375 -19.859375 1.8125 -21.242188 2.6875 -22.421875 C 3.5625 -23.609375 4.773438 -24.523438 6.328125 -25.171875 C 7.878906 -25.816406 9.628906 -26.140625 11.578125 -26.140625 Z M 7.921875 0 L 7.921875 -6.90625 L 15.3125 -6.90625 L 15.3125 0 Z M 7.921875 0 "/></g></g></g><g clip-path="url(#85f6dbdc7a)"><path fill="#c9001d" d="M 458.914062 438.714844 C 456.652344 438.714844 454.441406 437.96875 452.585938 436.554688 L 420.273438 411.679688 C 420.058594 411.679688 419.863281 411.679688 419.652344 411.679688 L 84.417969 411.792969 L 84.386719 411.792969 C 74.628906 411.792969 65.066406 410.132812 55.941406 406.832031 C 50.070312 404.71875 44.410156 401.921875 39.140625 398.542969 C 34.003906 395.242188 29.222656 391.371094 24.894531 387.03125 C 21.722656 383.84375 18.78125 380.363281 16.144531 376.707031 C 8.828125 366.527344 3.964844 355.132812 1.703125 342.824219 C 0.761719 337.753906 0.289062 332.550781 0.289062 327.347656 L 0.238281 183.1875 C 0.238281 175.332031 1.3125 167.527344 3.445312 160.019531 C 7.332031 146.28125 14.730469 133.648438 24.8125 123.484375 C 29.125 119.144531 33.90625 115.273438 39.058594 111.976562 C 44.328125 108.59375 49.972656 105.796875 55.84375 103.667969 C 64.984375 100.367188 74.5625 98.691406 84.320312 98.691406 L 321.539062 98.59375 C 324.464844 98.59375 326.824219 100.953125 326.824219 103.878906 C 326.824219 106.804688 324.464844 109.164062 321.539062 109.164062 L 84.320312 109.261719 C 75.78125 109.261719 67.40625 110.722656 59.4375 113.601562 C 54.316406 115.453125 49.371094 117.894531 44.769531 120.851562 C 40.28125 123.746094 36.085938 127.144531 32.3125 130.933594 C 23.480469 139.824219 17.007812 150.863281 13.609375 162.894531 C 11.753906 169.464844 10.8125 176.292969 10.8125 183.167969 L 10.859375 327.332031 C 10.859375 331.882812 11.28125 336.453125 12.097656 340.890625 C 14.097656 351.652344 18.339844 361.617188 24.730469 370.527344 C 27.027344 373.730469 29.613281 376.773438 32.390625 379.566406 C 36.164062 383.355469 40.363281 386.753906 44.851562 389.632812 C 49.453125 392.589844 54.398438 395.03125 59.535156 396.882812 C 67.488281 399.761719 75.863281 401.207031 84.386719 401.207031 L 84.417969 401.207031 L 419.652344 401.09375 C 420.140625 401.09375 420.628906 401.078125 421.117188 401.0625 L 421.847656 401.0625 C 423.050781 400.914062 424.273438 401.386719 425.230469 402.132812 L 459.058594 428.164062 L 468.800781 383.390625 C 469.027344 382.363281 469.550781 381.4375 470.3125 380.722656 L 470.6875 380.363281 C 471.011719 380.054688 471.339844 379.746094 471.648438 379.4375 C 474.429688 376.640625 477.015625 373.601562 479.324219 370.382812 C 485.714844 361.472656 489.960938 351.507812 491.945312 340.742188 C 492.480469 337.882812 495.210938 335.980469 498.109375 336.5 C 500.984375 337.035156 502.871094 339.785156 502.351562 342.660156 C 500.089844 354.953125 495.230469 366.351562 487.925781 376.542969 C 485.277344 380.234375 482.332031 383.699219 479.175781 386.882812 C 479.046875 387.015625 478.933594 387.128906 478.804688 387.257812 L 469.109375 430.570312 C 468.328125 434.050781 465.859375 436.863281 462.507812 438.066406 C 461.351562 438.488281 460.148438 438.699219 458.960938 438.699219 Z M 458.914062 438.714844 " fill-opacity="1" fill-rule="nonzero"/></g><g clip-path="url(#b9ccfe4804)"><path fill="#c9001d" d="M 468.914062 200.484375 L 457.824219 200.484375 C 449.871094 200.484375 443.414062 194.046875 443.414062 186.078125 L 443.414062 173.269531 C 443.414062 164.132812 445.253906 156.929688 448.945312 151.695312 C 452.636719 146.441406 460.734375 138.980469 473.242188 129.304688 C 492.335938 114.640625 501.878906 99.113281 501.863281 82.710938 C 501.863281 70.335938 498.125 60.535156 490.660156 53.265625 C 483.195312 46.015625 473.46875 42.390625 461.515625 42.390625 C 437.28125 42.390625 421.75 57.070312 414.921875 86.402344 C 413.179688 93.863281 405.925781 98.707031 398.382812 97.359375 L 382.34375 94.496094 C 374.359375 93.066406 369.089844 85.3125 370.734375 77.359375 C 375.238281 55.609375 385.109375 38.015625 400.300781 24.585938 C 418.773438 8.246094 440.941406 0.0703125 466.753906 0.0703125 C 491.617188 0.0703125 512.320312 7.207031 528.863281 21.5 C 545.773438 36.097656 555.710938 57.558594 555.726562 79.898438 C 555.726562 91.179688 553.417969 101.910156 548.785156 112.054688 C 544.148438 122.199219 538.878906 130.070312 532.960938 135.648438 C 527.039062 141.222656 514.535156 151.011719 495.457031 164.992188 C 490.074219 168.894531 486.660156 172.699219 485.179688 176.390625 C 484.332031 178.519531 483.699219 182.097656 483.292969 187.105469 C 482.691406 194.632812 476.476562 200.484375 468.929688 200.484375 Z M 488.15625 275.988281 L 488.15625 279.320312 C 488.15625 293.726562 476.476562 305.414062 462.066406 305.414062 C 447.660156 305.414062 435.964844 293.742188 435.964844 279.335938 L 435.964844 276.003906 C 435.964844 261.597656 447.644531 249.910156 462.050781 249.910156 C 476.460938 249.910156 488.15625 261.582031 488.15625 275.988281 Z M 488.15625 275.988281 " fill-opacity="1" fill-rule="nonzero"/></g></svg>