<svg xmlns="http://www.w3.org/2000/svg" xmlns:xlink="http://www.w3.org/1999/xlink" width="89" zoomAndPan="magnify" viewBox="0 0 66.75 81.749997" height="109" preserveAspectRatio="xMidYMid meet" version="1.0"><defs><g/><clipPath id="3afb86e7d0"><path d="M 0 7 L 66.5 7 L 66.5 74 L 0 74 Z M 0 7 " clip-rule="nonzero"/></clipPath><clipPath id="9d59e18939"><path d="M 0 0.402344 L 66.363281 0.402344 L 66.363281 66.761719 L 0 66.761719 Z M 0 0.402344 " clip-rule="nonzero"/></clipPath><clipPath id="bcf0d3aa6c"><path d="M 33.179688 0.402344 C 14.855469 0.402344 0 15.257812 0 33.582031 C 0 51.90625 14.855469 66.761719 33.179688 66.761719 C 51.507812 66.761719 66.363281 51.90625 66.363281 33.582031 C 66.363281 15.257812 51.507812 0.402344 33.179688 0.402344 Z M 33.179688 0.402344 " clip-rule="nonzero"/></clipPath><clipPath id="725d87160f"><path d="M 0 0.402344 L 66.363281 0.402344 L 66.363281 66.761719 L 0 66.761719 Z M 0 0.402344 " clip-rule="nonzero"/></clipPath><clipPath id="47a2da0347"><path d="M 33.179688 0.402344 C 14.855469 0.402344 0 15.257812 0 33.582031 C 0 51.90625 14.855469 66.761719 33.179688 66.761719 C 51.507812 66.761719 66.363281 51.90625 66.363281 33.582031 C 66.363281 15.257812 51.507812 0.402344 33.179688 0.402344 Z M 33.179688 0.402344 " clip-rule="nonzero"/></clipPath><clipPath id="33e8a3c6cc"><rect x="0" width="67" y="0" height="67"/></clipPath><clipPath id="c4c40a2c32"><rect x="0" width="67" y="0" height="67"/></clipPath></defs><g clip-path="url(#3afb86e7d0)"><g transform="matrix(1, 0, 0, 1, 0, 7)"><g clip-path="url(#c4c40a2c32)"><g clip-path="url(#9d59e18939)"><g clip-path="url(#bcf0d3aa6c)"><g transform="matrix(1, 0, 0, 1, 0, -0.000000000000008882)"><g clip-path="url(#33e8a3c6cc)"><g clip-path="url(#725d87160f)"><g clip-path="url(#47a2da0347)"><path fill="#e83d34" d="M 0 0.402344 L 66.363281 0.402344 L 66.363281 66.761719 L 0 66.761719 Z M 0 0.402344 " fill-opacity="1" fill-rule="nonzero"/></g></g></g></g></g></g><g fill="#ffffff" fill-opacity="1"><g transform="translate(20.237687, 46.495867)"><g><path d="M 16.765625 -29.046875 C 17.523438 -29.191406 18.148438 -29.265625 18.640625 -29.265625 C 19.253906 -29.265625 19.734375 -29.085938 20.078125 -28.734375 C 20.429688 -28.390625 20.609375 -27.851562 20.609375 -27.125 C 20.609375 -26.65625 20.519531 -26.085938 20.34375 -25.421875 L 14.625 -5.375 C 14.570312 -5.226562 14.546875 -5.007812 14.546875 -4.71875 C 14.546875 -4.3125 14.660156 -3.988281 14.890625 -3.75 C 15.117188 -3.519531 15.46875 -3.273438 15.9375 -3.015625 C 16.375 -2.753906 16.679688 -2.535156 16.859375 -2.359375 C 17.035156 -2.179688 17.125 -1.929688 17.125 -1.609375 C 17.125 -1.410156 17.109375 -1.265625 17.078125 -1.171875 C 16.929688 -0.742188 16.617188 -0.441406 16.140625 -0.265625 C 15.660156 -0.0859375 14.878906 0 13.796875 0 L 0.65625 0 C 0.0390625 0 -0.410156 -0.113281 -0.703125 -0.34375 C -0.992188 -0.582031 -1.140625 -0.90625 -1.140625 -1.3125 C -1.140625 -1.488281 -1.125 -1.617188 -1.09375 -1.703125 C -0.976562 -2.054688 -0.765625 -2.328125 -0.453125 -2.515625 C -0.148438 -2.703125 0.304688 -2.910156 0.921875 -3.140625 C 1.671875 -3.398438 2.269531 -3.691406 2.71875 -4.015625 C 3.175781 -4.335938 3.492188 -4.816406 3.671875 -5.453125 L 8.203125 -21.53125 C 8.265625 -21.707031 8.296875 -21.925781 8.296875 -22.1875 C 8.296875 -22.625 8.164062 -22.992188 7.90625 -23.296875 C 7.644531 -23.597656 7.28125 -23.894531 6.8125 -24.1875 C 6.375 -24.507812 6.050781 -24.78125 5.84375 -25 C 5.644531 -25.21875 5.546875 -25.488281 5.546875 -25.8125 C 5.546875 -25.925781 5.578125 -26.070312 5.640625 -26.25 C 5.691406 -26.570312 5.863281 -26.816406 6.15625 -26.984375 C 6.445312 -27.160156 6.914062 -27.304688 7.5625 -27.421875 Z M 16.765625 -29.046875 "/></g></g></g></g></g></g></svg>