<svg xmlns="http://www.w3.org/2000/svg" xmlns:xlink="http://www.w3.org/1999/xlink" width="67" zoomAndPan="magnify" viewBox="0 0 50.25 48.749998" height="65" preserveAspectRatio="xMidYMid meet" version="1.0"><defs><clipPath id="34c09c5ac8"><path d="M 9 24 L 19 24 L 19 45 L 9 45 Z M 9 24 " clip-rule="nonzero"/></clipPath><clipPath id="b2b1c87803"><path d="M 0 9.953125 L 40.230469 0.257812 L 48.886719 36.179688 L 8.65625 45.871094 Z M 0 9.953125 " clip-rule="nonzero"/></clipPath><clipPath id="6803d1d9e3"><path d="M 0 9.953125 L 40.230469 0.257812 L 48.886719 36.179688 L 8.65625 45.871094 Z M 0 9.953125 " clip-rule="nonzero"/></clipPath><clipPath id="f8ad842dc9"><path d="M 16 20 L 28 20 L 28 43 L 16 43 Z M 16 20 " clip-rule="nonzero"/></clipPath><clipPath id="d3ebe95583"><path d="M 0 9.953125 L 40.230469 0.257812 L 48.886719 36.179688 L 8.65625 45.871094 Z M 0 9.953125 " clip-rule="nonzero"/></clipPath><clipPath id="5b471b8c97"><path d="M 0 9.953125 L 40.230469 0.257812 L 48.886719 36.179688 L 8.65625 45.871094 Z M 0 9.953125 " clip-rule="nonzero"/></clipPath><clipPath id="7f3d88011b"><path d="M 25 18 L 36 18 L 36 41 L 25 41 Z M 25 18 " clip-rule="nonzero"/></clipPath><clipPath id="e8483213e0"><path d="M 0 9.953125 L 40.230469 0.257812 L 48.886719 36.179688 L 8.65625 45.871094 Z M 0 9.953125 " clip-rule="nonzero"/></clipPath><clipPath id="47a6b0fddf"><path d="M 0 9.953125 L 40.230469 0.257812 L 48.886719 36.179688 L 8.65625 45.871094 Z M 0 9.953125 " clip-rule="nonzero"/></clipPath><clipPath id="7790c4059b"><path d="M 32 9 L 44 9 L 44 39 L 32 39 Z M 32 9 " clip-rule="nonzero"/></clipPath><clipPath id="236dc28744"><path d="M 0 9.953125 L 40.230469 0.257812 L 48.886719 36.179688 L 8.65625 45.871094 Z M 0 9.953125 " clip-rule="nonzero"/></clipPath><clipPath id="5860511613"><path d="M 0 9.953125 L 40.230469 0.257812 L 48.886719 36.179688 L 8.65625 45.871094 Z M 0 9.953125 " clip-rule="nonzero"/></clipPath><clipPath id="960219cb3d"><path d="M 4 0.234375 L 41 0.234375 L 41 32 L 4 32 Z M 4 0.234375 " clip-rule="nonzero"/></clipPath><clipPath id="6040b3cff9"><path d="M 0 9.953125 L 40.230469 0.257812 L 48.886719 36.179688 L 8.65625 45.871094 Z M 0 9.953125 " clip-rule="nonzero"/></clipPath><clipPath id="f5ba19af46"><path d="M 0 9.953125 L 40.230469 0.257812 L 48.886719 36.179688 L 8.65625 45.871094 Z M 0 9.953125 " clip-rule="nonzero"/></clipPath><clipPath id="9d6f5d4d92"><path d="M 9 26 L 19 26 L 19 47 L 9 47 Z M 9 26 " clip-rule="nonzero"/></clipPath><clipPath id="ba5284a7f2"><path d="M 0 11.855469 L 40.230469 2.164062 L 48.886719 38.082031 L 8.65625 47.777344 Z M 0 11.855469 " clip-rule="nonzero"/></clipPath><clipPath id="0e805b1487"><path d="M 0 11.855469 L 40.230469 2.164062 L 48.886719 38.082031 L 8.65625 47.777344 Z M 0 11.855469 " clip-rule="nonzero"/></clipPath><clipPath id="297f1cd1d9"><path d="M 16 22 L 28 22 L 28 45 L 16 45 Z M 16 22 " clip-rule="nonzero"/></clipPath><clipPath id="470a0c6055"><path d="M 0 11.855469 L 40.230469 2.164062 L 48.886719 38.082031 L 8.65625 47.777344 Z M 0 11.855469 " clip-rule="nonzero"/></clipPath><clipPath id="ee11e08561"><path d="M 0 11.855469 L 40.230469 2.164062 L 48.886719 38.082031 L 8.65625 47.777344 Z M 0 11.855469 " clip-rule="nonzero"/></clipPath><clipPath id="dd2c17deb2"><path d="M 25 20 L 36 20 L 36 43 L 25 43 Z M 25 20 " clip-rule="nonzero"/></clipPath><clipPath id="ac58f0b605"><path d="M 0 11.855469 L 40.230469 2.164062 L 48.886719 38.082031 L 8.65625 47.777344 Z M 0 11.855469 " clip-rule="nonzero"/></clipPath><clipPath id="cd9cafaa09"><path d="M 0 11.855469 L 40.230469 2.164062 L 48.886719 38.082031 L 8.65625 47.777344 Z M 0 11.855469 " clip-rule="nonzero"/></clipPath><clipPath id="3ded5318fd"><path d="M 32 11 L 44 11 L 44 41 L 32 41 Z M 32 11 " clip-rule="nonzero"/></clipPath><clipPath id="d322bba997"><path d="M 0 11.855469 L 40.230469 2.164062 L 48.886719 38.082031 L 8.65625 47.777344 Z M 0 11.855469 " clip-rule="nonzero"/></clipPath><clipPath id="68edd4279a"><path d="M 0 11.855469 L 40.230469 2.164062 L 48.886719 38.082031 L 8.65625 47.777344 Z M 0 11.855469 " clip-rule="nonzero"/></clipPath><clipPath id="7e9fcb857f"><path d="M 4 2 L 41 2 L 41 34 L 4 34 Z M 4 2 " clip-rule="nonzero"/></clipPath><clipPath id="f5ddce4b9d"><path d="M 0 11.855469 L 40.230469 2.164062 L 48.886719 38.082031 L 8.65625 47.777344 Z M 0 11.855469 " clip-rule="nonzero"/></clipPath><clipPath id="9428decb70"><path d="M 0 11.855469 L 40.230469 2.164062 L 48.886719 38.082031 L 8.65625 47.777344 Z M 0 11.855469 " clip-rule="nonzero"/></clipPath></defs><g clip-path="url(#34c09c5ac8)"><g clip-path="url(#b2b1c87803)"><g clip-path="url(#6803d1d9e3)"><path fill="#ffde59" d="M 13.164062 44.839844 L 18.796875 43.484375 L 14.332031 24.960938 L 9.757812 30.691406 Z M 13.164062 44.839844 " fill-opacity="1" fill-rule="nonzero"/></g></g></g><g clip-path="url(#f8ad842dc9)"><g clip-path="url(#d3ebe95583)"><g clip-path="url(#5b471b8c97)"><path fill="#ffde59" d="M 17.984375 20.386719 L 16.457031 22.300781 L 21.410156 42.855469 L 27.039062 41.496094 L 22.898438 24.3125 C 22.746094 24.230469 22.597656 24.136719 22.464844 24.023438 Z M 17.984375 20.386719 " fill-opacity="1" fill-rule="nonzero"/></g></g></g><g clip-path="url(#7f3d88011b)"><g clip-path="url(#e8483213e0)"><g clip-path="url(#47a6b0fddf)"><path fill="#ffde59" d="M 25.664062 24.316406 L 29.652344 40.867188 L 35.28125 39.511719 L 30.257812 18.671875 L 26.601562 23.519531 C 26.347656 23.855469 26.023438 24.121094 25.664062 24.316406 Z M 25.664062 24.316406 " fill-opacity="1" fill-rule="nonzero"/></g></g></g><g clip-path="url(#7790c4059b)"><g clip-path="url(#236dc28744)"><g clip-path="url(#5860511613)"><path fill="#ffde59" d="M 37.894531 38.882812 L 43.523438 37.523438 L 36.871094 9.910156 L 32.355469 15.894531 Z M 37.894531 38.882812 " fill-opacity="1" fill-rule="nonzero"/></g></g></g><g clip-path="url(#960219cb3d)"><g clip-path="url(#6040b3cff9)"><g clip-path="url(#f5ba19af46)"><path fill="#ffde59" d="M 39.070312 0.832031 L 38.222656 1.179688 C 37.378906 1.519531 36 2.082031 35.15625 2.425781 L 34.308594 2.769531 C 33.46875 3.113281 33.363281 3.851562 34.082031 4.410156 L 34.804688 4.96875 C 34.921875 5.058594 35.054688 5.164062 35.1875 5.269531 L 24.074219 20.003906 L 18.324219 15.335938 C 18.070312 15.125 17.738281 15.03125 17.410156 15.066406 C 17.078125 15.101562 16.78125 15.265625 16.574219 15.523438 L 4.859375 30.109375 L 6.796875 31.660156 L 17.734375 18.050781 L 23.507812 22.742188 C 23.765625 22.953125 24.105469 23.050781 24.4375 23.007812 C 24.773438 22.96875 25.074219 22.792969 25.277344 22.527344 L 37.148438 6.792969 C 37.246094 6.863281 37.335938 6.9375 37.417969 7 L 38.140625 7.5625 C 38.855469 8.121094 39.546875 7.839844 39.671875 6.9375 L 39.796875 6.03125 C 39.921875 5.128906 40.125 3.65625 40.25 2.753906 L 40.375 1.847656 C 40.5 0.949219 39.910156 0.488281 39.070312 0.832031 Z M 39.070312 0.832031 " fill-opacity="1" fill-rule="nonzero"/></g></g></g><g clip-path="url(#9d6f5d4d92)"><g clip-path="url(#ba5284a7f2)"><g clip-path="url(#0e805b1487)"><path fill="#ffde59" d="M 13.164062 46.746094 L 18.796875 45.386719 L 14.332031 26.867188 L 9.757812 32.597656 Z M 13.164062 46.746094 " fill-opacity="1" fill-rule="nonzero"/></g></g></g><g clip-path="url(#297f1cd1d9)"><g clip-path="url(#470a0c6055)"><g clip-path="url(#ee11e08561)"><path fill="#ffde59" d="M 17.984375 22.289062 L 16.457031 24.207031 L 21.410156 44.757812 L 27.039062 43.402344 L 22.898438 26.214844 C 22.746094 26.132812 22.597656 26.039062 22.464844 25.929688 Z M 17.984375 22.289062 " fill-opacity="1" fill-rule="nonzero"/></g></g></g><g clip-path="url(#dd2c17deb2)"><g clip-path="url(#ac58f0b605)"><g clip-path="url(#cd9cafaa09)"><path fill="#ffde59" d="M 25.664062 26.21875 L 29.652344 42.773438 L 35.28125 41.417969 L 30.257812 20.574219 L 26.601562 25.425781 C 26.347656 25.761719 26.023438 26.023438 25.664062 26.21875 Z M 25.664062 26.21875 " fill-opacity="1" fill-rule="nonzero"/></g></g></g><g clip-path="url(#3ded5318fd)"><g clip-path="url(#d322bba997)"><g clip-path="url(#68edd4279a)"><path fill="#ffde59" d="M 37.894531 40.785156 L 43.523438 39.429688 L 36.871094 11.816406 L 32.355469 17.796875 Z M 37.894531 40.785156 " fill-opacity="1" fill-rule="nonzero"/></g></g></g><g clip-path="url(#7e9fcb857f)"><g clip-path="url(#f5ddce4b9d)"><g clip-path="url(#9428decb70)"><path fill="#ffde59" d="M 39.070312 2.738281 L 38.222656 3.082031 C 37.378906 3.425781 36 3.988281 35.15625 4.328125 L 34.308594 4.675781 C 33.46875 5.019531 33.363281 5.757812 34.082031 6.3125 L 34.804688 6.875 C 34.921875 6.964844 35.054688 7.066406 35.1875 7.171875 L 24.074219 21.910156 L 18.324219 17.238281 C 18.070312 17.03125 17.738281 16.933594 17.410156 16.96875 C 17.078125 17.003906 16.78125 17.171875 16.574219 17.429688 L 4.859375 32.011719 L 6.796875 33.5625 L 17.734375 19.957031 L 23.507812 24.644531 C 23.765625 24.859375 24.105469 24.957031 24.4375 24.914062 C 24.773438 24.875 25.074219 24.699219 25.277344 24.429688 L 37.148438 8.695312 C 37.246094 8.769531 37.335938 8.839844 37.417969 8.90625 L 38.140625 9.464844 C 38.855469 10.023438 39.546875 9.746094 39.671875 8.84375 L 39.796875 7.9375 C 39.921875 7.035156 40.125 5.558594 40.25 4.660156 L 40.375 3.75 C 40.5 2.851562 39.910156 2.394531 39.070312 2.738281 Z M 39.070312 2.738281 " fill-opacity="1" fill-rule="nonzero"/></g></g></g></svg>