<svg xmlns="http://www.w3.org/2000/svg" xmlns:xlink="http://www.w3.org/1999/xlink" width="89" zoomAndPan="magnify" viewBox="0 0 66.75 81.749997" height="109" preserveAspectRatio="xMidYMid meet" version="1.0"><defs><g/><clipPath id="ec63d54afa"><path d="M 0 7 L 66.5 7 L 66.5 74 L 0 74 Z M 0 7 " clip-rule="nonzero"/></clipPath><clipPath id="612fdfca48"><path d="M 0 0.402344 L 66.363281 0.402344 L 66.363281 66.761719 L 0 66.761719 Z M 0 0.402344 " clip-rule="nonzero"/></clipPath><clipPath id="027246b5ce"><path d="M 33.179688 0.402344 C 14.855469 0.402344 0 15.257812 0 33.582031 C 0 51.90625 14.855469 66.761719 33.179688 66.761719 C 51.507812 66.761719 66.363281 51.90625 66.363281 33.582031 C 66.363281 15.257812 51.507812 0.402344 33.179688 0.402344 Z M 33.179688 0.402344 " clip-rule="nonzero"/></clipPath><clipPath id="43115eaba7"><path d="M 0 0.402344 L 66.363281 0.402344 L 66.363281 66.761719 L 0 66.761719 Z M 0 0.402344 " clip-rule="nonzero"/></clipPath><clipPath id="064a3d1d0e"><path d="M 33.179688 0.402344 C 14.855469 0.402344 0 15.257812 0 33.582031 C 0 51.90625 14.855469 66.761719 33.179688 66.761719 C 51.507812 66.761719 66.363281 51.90625 66.363281 33.582031 C 66.363281 15.257812 51.507812 0.402344 33.179688 0.402344 Z M 33.179688 0.402344 " clip-rule="nonzero"/></clipPath><clipPath id="10ea92009d"><rect x="0" width="67" y="0" height="67"/></clipPath><clipPath id="5ce8bda375"><rect x="0" width="67" y="0" height="67"/></clipPath></defs><g clip-path="url(#ec63d54afa)"><g transform="matrix(1, 0, 0, 1, 0, 7)"><g clip-path="url(#5ce8bda375)"><g clip-path="url(#612fdfca48)"><g clip-path="url(#027246b5ce)"><g transform="matrix(1, 0, 0, 1, 0, -0.000000000000008882)"><g clip-path="url(#10ea92009d)"><g clip-path="url(#43115eaba7)"><g clip-path="url(#064a3d1d0e)"><path fill="#e83d34" d="M 0 0.402344 L 66.363281 0.402344 L 66.363281 66.761719 L 0 66.761719 Z M 0 0.402344 " fill-opacity="1" fill-rule="nonzero"/></g></g></g></g></g></g><g fill="#ffffff" fill-opacity="1"><g transform="translate(20.237687, 46.495867)"><g><path d="M 32.578125 -19.125 C 32.109375 -17.519531 31.328125 -16.328125 30.234375 -15.546875 C 29.148438 -14.765625 27.675781 -14.210938 25.8125 -13.890625 C 27.414062 -13.242188 28.59375 -12.488281 29.34375 -11.625 C 30.101562 -10.769531 30.484375 -9.765625 30.484375 -8.609375 C 30.484375 -7.960938 30.378906 -7.289062 30.171875 -6.59375 C 29.535156 -4.53125 27.847656 -2.878906 25.109375 -1.640625 C 22.367188 -0.398438 19.003906 0.21875 15.015625 0.21875 C 11.816406 0.21875 9.140625 -0.09375 6.984375 -0.71875 C 4.828125 -1.34375 3.222656 -2.1875 2.171875 -3.25 C 1.128906 -4.3125 0.609375 -5.515625 0.609375 -6.859375 C 0.609375 -7.410156 0.695312 -7.945312 0.875 -8.46875 C 1.25 -9.71875 1.929688 -10.613281 2.921875 -11.15625 C 3.910156 -11.695312 5.09375 -11.96875 6.46875 -11.96875 C 8.238281 -11.96875 9.675781 -11.570312 10.78125 -10.78125 C 11.894531 -10 12.453125 -8.984375 12.453125 -7.734375 C 12.453125 -7.234375 12.367188 -6.691406 12.203125 -6.109375 C 12.046875 -5.523438 11.820312 -5.03125 11.53125 -4.625 C 12.289062 -4.3125 13.238281 -4.15625 14.375 -4.15625 C 15.476562 -4.15625 16.40625 -4.441406 17.15625 -5.015625 C 17.914062 -5.597656 18.441406 -6.457031 18.734375 -7.59375 C 18.910156 -8.175781 19 -8.71875 19 -9.21875 C 19 -10.238281 18.6875 -11.046875 18.0625 -11.640625 C 17.4375 -12.234375 16.628906 -12.53125 15.640625 -12.53125 C 13.972656 -12.53125 13.140625 -13.023438 13.140625 -14.015625 C 13.140625 -14.128906 13.171875 -14.332031 13.234375 -14.625 C 13.429688 -15.207031 13.710938 -15.644531 14.078125 -15.9375 C 14.441406 -16.226562 14.960938 -16.375 15.640625 -16.375 L 16.90625 -16.375 C 17.914062 -16.40625 18.773438 -16.75 19.484375 -17.40625 C 20.203125 -18.0625 20.738281 -18.941406 21.09375 -20.046875 C 21.269531 -20.742188 21.359375 -21.335938 21.359375 -21.828125 C 21.359375 -22.941406 21.050781 -23.765625 20.4375 -24.296875 C 19.820312 -24.835938 19.09375 -25.109375 18.25 -25.109375 C 17.644531 -25.109375 17.09375 -25.050781 16.59375 -24.9375 C 16.675781 -24.46875 16.71875 -23.988281 16.71875 -23.5 C 16.71875 -23.0625 16.675781 -22.625 16.59375 -22.1875 C 16.300781 -21.082031 15.660156 -20.175781 14.671875 -19.46875 C 13.679688 -18.769531 12.34375 -18.421875 10.65625 -18.421875 C 8.9375 -18.421875 7.601562 -18.769531 6.65625 -19.46875 C 5.707031 -20.175781 5.234375 -21.140625 5.234375 -22.359375 C 5.234375 -22.859375 5.320312 -23.382812 5.5 -23.9375 C 5.96875 -25.507812 7.265625 -26.757812 9.390625 -27.6875 C 11.515625 -28.613281 14.671875 -29.078125 18.859375 -29.078125 C 21.515625 -29.078125 23.90625 -28.726562 26.03125 -28.03125 C 28.15625 -27.332031 29.820312 -26.363281 31.03125 -25.125 C 32.238281 -23.894531 32.84375 -22.492188 32.84375 -20.921875 C 32.84375 -20.335938 32.753906 -19.738281 32.578125 -19.125 Z M 32.578125 -19.125 "/></g></g></g></g></g></g></svg>