<svg xmlns="http://www.w3.org/2000/svg" xmlns:xlink="http://www.w3.org/1999/xlink" width="162" zoomAndPan="magnify" viewBox="0 0 121.5 194.250001" height="259" preserveAspectRatio="xMidYMid meet" version="1.0"><defs><clipPath id="6a7cf51bb9"><path d="M 8 1 L 121.003906 1 L 121.003906 139 L 8 139 Z M 8 1 " clip-rule="nonzero"/></clipPath><clipPath id="c64effbe19"><path d="M 8 69 L 109 69 L 109 193.476562 L 8 193.476562 Z M 8 69 " clip-rule="nonzero"/></clipPath><clipPath id="2380c4a5d5"><path d="M 8 1 L 121.003906 1 L 121.003906 139 L 8 139 Z M 8 1 " clip-rule="nonzero"/></clipPath><clipPath id="08d0cfc12e"><path d="M 8 69 L 109 69 L 109 193.476562 L 8 193.476562 Z M 8 69 " clip-rule="nonzero"/></clipPath></defs><g clip-path="url(#6a7cf51bb9)"><path fill="#71422e" d="M 27.765625 115.992188 C 28.078125 115.105469 28.382812 114.222656 28.5625 113.335938 C 29.167969 110.542969 27.984375 108.390625 26.125 106.480469 C 25.3125 105.660156 24.371094 104.996094 23.628906 104.097656 C 20.730469 100.5625 20.445312 96.554688 21.65625 92.320312 C 22.21875 90.410156 23.167969 88.683594 24.335938 87.085938 C 25.277344 85.804688 25.949219 84.40625 26.28125 82.808594 C 26.796875 80.292969 25.917969 78.226562 24.386719 76.394531 C 23.460938 75.308594 22.433594 74.359375 21.535156 73.269531 C 18.992188 70.191406 18.179688 66.640625 18.820312 62.710938 C 19.148438 60.523438 19.496094 58.347656 19.832031 56.160156 C 20.210938 53.734375 19.148438 50.734375 16.582031 49.496094 C 12.492188 47.527344 10.480469 43.890625 9.398438 39.597656 C 8.128906 34.480469 9.171875 29.644531 11.308594 24.996094 C 13.175781 20.941406 15.742188 17.414062 18.847656 14.261719 C 24.984375 8.03125 34.042969 2.703125 42.757812 1.621094 C 54.035156 0.207031 65.132812 5.304688 72.992188 13.183594 C 78.679688 18.886719 80.617188 26.265625 84.757812 32.902344 C 87.21875 36.875 90.175781 40.304688 94.652344 42.023438 C 95.636719 42.40625 96.519531 42.984375 97.410156 43.535156 C 101.585938 46.078125 103.980469 49.871094 104.945312 54.65625 C 105.234375 56.054688 105.371094 57.457031 105.671875 58.828125 C 106.425781 62.207031 108.363281 64.679688 111.351562 66.304688 C 113.574219 67.503906 115.847656 68.679688 117.730469 70.40625 C 122.796875 75.039062 124.441406 80.714844 122.574219 87.410156 C 122.140625 88.941406 121.59375 90.460938 121.34375 92.050781 C 120.964844 94.480469 121.65625 96.65625 123.074219 98.582031 C 124.222656 100.15625 125.25 101.796875 125.925781 103.648438 C 127.722656 108.683594 126.273438 114.4375 122.328125 118 C 120.585938 119.5625 118.628906 120.917969 117.023438 122.671875 C 116.019531 123.777344 115.136719 124.96875 114.621094 126.398438 C 113.703125 128.929688 114.480469 130.839844 116.929688 131.769531 C 117.714844 132.066406 117.664062 132.394531 117.238281 132.921875 C 115.613281 134.933594 113.460938 135.710938 110.972656 135.640625 C 109.140625 135.609375 107.515625 134.976562 106.027344 133.871094 C 104.023438 137.136719 101.378906 139.113281 97.402344 138.457031 C 90.6875 138.257812 78.058594 130.472656 78.058594 130.472656 C 78.058594 130.472656 39.003906 131.148438 38.960938 131.148438 C 37.398438 131.167969 34.832031 129.453125 33.578125 128.71875 C 30.96875 127.199219 27.691406 124.539062 27 121.4375 C 26.574219 119.582031 27.164062 117.773438 27.765625 115.992188 Z M 27.765625 115.992188 " fill-opacity="1" fill-rule="evenodd"/></g><path fill="#633120" d="M 33.964844 105.394531 C 33.957031 105.394531 33.945312 105.394531 33.933594 105.394531 C 33.5625 105.375 33.273438 105.058594 33.289062 104.6875 C 33.398438 102.378906 32.125 100.761719 30.773438 99.046875 C 29.5 97.4375 28.1875 95.769531 28.0625 93.480469 C 27.972656 91.402344 28.835938 89.425781 29.59375 87.679688 L 29.691406 87.464844 C 29.867188 87.050781 30.0625 86.628906 30.253906 86.199219 C 31.710938 83 33.210938 79.695312 31.25 76.714844 C 30.011719 74.84375 28.367188 73.089844 26.21875 71.347656 C 25.929688 71.113281 25.882812 70.6875 26.121094 70.398438 C 26.355469 70.109375 26.78125 70.0625 27.070312 70.300781 C 29.324219 72.128906 31.0625 73.984375 32.375 75.972656 C 34.75 79.574219 33.015625 83.390625 31.484375 86.753906 C 31.292969 87.179688 31.105469 87.59375 30.929688 88 L 30.832031 88.21875 C 30.09375 89.910156 29.332031 91.65625 29.410156 93.414062 C 29.511719 95.269531 30.640625 96.699219 31.832031 98.214844 C 33.277344 100.042969 34.769531 101.941406 34.640625 104.75 C 34.625 105.109375 34.324219 105.394531 33.964844 105.394531 Z M 33.964844 105.394531 " fill-opacity="1" fill-rule="nonzero"/><path fill="#633120" d="M 38.632812 87.121094 C 38.523438 87.121094 38.410156 87.09375 38.304688 87.035156 C 37.980469 86.855469 37.863281 86.445312 38.042969 86.117188 C 41.785156 79.363281 37.914062 75.3125 37.746094 75.144531 C 37.488281 74.878906 37.488281 74.453125 37.75 74.191406 C 38.015625 73.929688 38.441406 73.929688 38.703125 74.191406 C 38.753906 74.238281 43.472656 79.097656 39.222656 86.769531 C 39.101562 86.992188 38.871094 87.121094 38.632812 87.121094 Z M 38.632812 87.121094 " fill-opacity="1" fill-rule="nonzero"/><path fill="#fed2b9" d="M 47.953125 38.523438 C 42.359375 39.078125 38.511719 37.902344 32.980469 36.675781 C 27.578125 35.484375 22.761719 33.167969 18.863281 29.160156 C 18.285156 28.554688 17.699219 27.957031 17.109375 27.363281 C 16.675781 26.929688 16.410156 27.058594 16.253906 27.628906 C 16.105469 28.15625 15.941406 28.675781 15.796875 29.203125 C 15.382812 30.179688 15.449219 31.214844 15.382812 32.21875 C 15.269531 34.421875 15.484375 36.574219 16.304688 38.648438 C 16.351562 38.75 16.410156 38.835938 16.445312 38.949219 C 17.371094 41.765625 18.589844 44.402344 20.773438 46.511719 C 23.066406 48.730469 23.894531 51.519531 23.792969 54.675781 C 23.765625 56.058594 23.652344 57.449219 23.582031 58.8125 C 23.515625 60.273438 24.1875 60.992188 25.640625 61.050781 C 26.671875 61.113281 27.691406 60.964844 28.648438 60.566406 C 29.386719 60.257812 29.84375 60.492188 30.242188 61.136719 C 32.046875 64.085938 35.21875 66.15625 37.847656 68.308594 C 40.777344 70.695312 43.847656 70.695312 47.113281 69.097656 C 49.214844 68.078125 50.941406 66.5625 52.679688 65.042969 C 53.605469 65.761719 54.261719 66.710938 55.015625 67.582031 C 55.792969 68.984375 56.726562 70.3125 57.019531 71.941406 C 56.792969 72.179688 56.578125 72.441406 56.363281 72.671875 C 56.199219 72.8125 56.035156 72.941406 55.867188 73.0625 C 55.394531 73.640625 54.890625 74.203125 54.441406 74.796875 C 52.878906 76.878906 51.484375 79.058594 50.925781 81.640625 C 50.613281 83.152344 51.089844 84.5 53.007812 85.027344 C 54.546875 85.417969 56 85.160156 57.433594 84.769531 C 60.390625 83.972656 62.914062 82.332031 65.335938 80.542969 C 68.800781 77.953125 72.039062 75.039062 75.765625 72.8125 C 78.300781 71.296875 80.875 69.933594 83.988281 70.253906 C 84.132812 70.261719 84.316406 70.296875 84.4375 70.132812 C 83.867188 70.851562 75.84375 65.542969 74.894531 64.914062 C 73.582031 64.042969 71.660156 62.269531 70.695312 61 C 68.964844 58.738281 67.867188 56.152344 66.8125 53.535156 C 66.214844 52.066406 65.660156 50.597656 64.96875 49.164062 C 62.007812 42.921875 55.183594 37.808594 47.953125 38.523438 Z M 47.953125 38.523438 " fill-opacity="1" fill-rule="evenodd"/><path fill="#f8a58c" d="M 52.679688 65.042969 C 53.378906 64.167969 54.097656 63.296875 54.789062 62.382812 C 55.539062 61.402344 56.25 60.375 56.828125 59.253906 C 57.398438 58.191406 57.917969 57.101562 58.296875 55.746094 C 58.523438 57.699219 58.21875 59.402344 57.839844 61.121094 C 57.398438 63.226562 56.691406 65.222656 55.53125 67.054688 C 55.394531 67.269531 55.253906 67.480469 55.015625 67.582031 C 54.261719 66.710938 53.605469 65.761719 52.679688 65.042969 Z M 52.679688 65.042969 " fill-opacity="1" fill-rule="evenodd"/><path fill="#6e391e" d="M 27.285156 37.835938 C 28.734375 37.851562 29.773438 38.007812 30.808594 38.25 C 31.15625 38.328125 31.570312 38.449219 31.5 38.921875 C 31.449219 39.433594 31.027344 39.398438 30.65625 39.347656 C 29.03125 39.148438 27.40625 39.097656 25.816406 39.691406 C 24.964844 40.019531 24.128906 40.367188 23.324219 40.824219 C 23.046875 40.996094 22.746094 41.207031 22.449219 40.824219 C 22.167969 40.480469 22.382812 40.183594 22.597656 39.945312 C 23.949219 38.4375 25.71875 37.921875 27.285156 37.835938 Z M 27.285156 37.835938 " fill-opacity="1" fill-rule="evenodd"/><path fill="#3e2433" d="M 30.84375 49.84375 C 29.394531 49.992188 27.707031 48.894531 27.265625 47.492188 C 27.179688 47.210938 27 46.785156 27.398438 46.613281 C 27.707031 46.464844 28.054688 46.65625 28.269531 46.941406 C 28.382812 47.054688 28.476562 47.207031 28.546875 47.363281 C 29.203125 48.902344 30.863281 48.511719 31.625 47.691406 C 32.132812 47.148438 32.402344 46.5 32.503906 45.765625 C 32.539062 45.453125 32.652344 45.109375 33.039062 45.132812 C 33.367188 45.144531 33.558594 45.394531 33.636719 45.722656 C 34.058594 47.378906 32.503906 49.679688 30.84375 49.84375 Z M 30.84375 49.84375 " fill-opacity="1" fill-rule="evenodd"/><g clip-path="url(#c64effbe19)"><path fill="#ff9aaa" d="M 107.144531 208.523438 C 105.335938 194.15625 104.59375 179.570312 100.238281 165.660156 C 98.984375 161.675781 97.53125 157.753906 96.085938 153.847656 C 95.734375 152.847656 91.886719 144.042969 92.492188 143.574219 C 93.0625 143.125 93.574219 142.625 94.039062 142.097656 C 98.941406 136.421875 98.75 128.324219 98.90625 121.273438 C 99 116.988281 98.75 112.71875 98.628906 108.433594 C 98.542969 105.601562 98.421875 102.773438 98.300781 99.941406 C 98.144531 96.332031 97.746094 92.734375 97.246094 89.148438 C 96.605469 84.570312 95.320312 80.183594 92.457031 76.414062 C 90.359375 73.640625 87.84375 71.378906 84.609375 69.984375 C 81.652344 69.675781 79.007812 70.582031 76.5 72.042969 C 74.46875 73.253906 72.523438 74.582031 70.652344 76.027344 C 67.988281 78.097656 65.453125 80.328125 62.585938 82.089844 C 60.148438 83.59375 57.605469 84.863281 54.667969 84.949219 C 52.195312 85.019531 50.5 83.800781 51.347656 81.113281 C 51.390625 80.933594 51.433594 80.777344 51.484375 80.605469 C 52.300781 78.113281 53.804688 76.015625 55.445312 73.984375 C 55.652344 73.71875 56 73.492188 55.886719 73.0625 C 55.558594 72.808594 55.246094 72.976562 54.9375 73.105469 C 53.285156 73.855469 51.71875 74.761719 50.285156 75.878906 C 47.769531 77.832031 45.894531 80.363281 44.253906 83.058594 C 42.410156 86.046875 40.542969 89.011719 38.242188 91.683594 C 37.207031 92.875 36.222656 94.125 35.28125 95.394531 C 31.519531 100.527344 31.328125 106.707031 34.820312 112.027344 C 35.132812 112.519531 35.121094 112.78125 34.597656 113.09375 C 26.625 117.464844 19.460938 124.601562 14.863281 132.410156 C 13.515625 134.726562 12.347656 137.171875 11.371094 139.679688 C 8.710938 146.554688 7.90625 153.632812 9.191406 160.941406 C 10.058594 165.875 11.675781 170.566406 13.558594 175.164062 C 15.433594 179.726562 16.730469 184.390625 16.765625 189.359375 C 16.800781 194.476562 16.160156 199.503906 15.53125 204.550781 C 14.855469 210.027344 14.035156 215.472656 13.066406 220.90625 L 108.742188 220.90625 C 108.191406 216.777344 107.664062 212.65625 107.144531 208.523438 Z M 107.144531 208.523438 " fill-opacity="1" fill-rule="evenodd"/></g><path fill="#fed2b9" d="M 56.90625 162.453125 C 54.0625 159.523438 52.628906 156.023438 52.488281 151.964844 C 52.488281 151.730469 52.550781 151.429688 52.195312 151.386719 C 51.796875 151.695312 51.3125 151.695312 50.847656 151.730469 C 49.28125 151.867188 47.820312 151.402344 46.351562 151.003906 C 44.433594 150.453125 42.566406 149.785156 40.5625 149.527344 C 38.019531 149.191406 35.496094 148.914062 32.964844 148.601562 C 32.332031 148.53125 31.660156 148.414062 31.054688 148.644531 C 30.066406 149.042969 30.007812 150.132812 30.949219 150.953125 C 31.761719 151.671875 32.703125 152.222656 33.75 152.535156 C 35.132812 152.949219 36.535156 153.355469 37.933594 153.71875 C 38.589844 153.890625 38.453125 154.175781 38.125 154.511719 C 37.976562 154.667969 37.761719 154.765625 37.570312 154.851562 C 35.359375 155.714844 33.109375 156.40625 30.792969 156.941406 C 27.691406 157.683594 24.5 157.902344 21.363281 158.417969 C 20.59375 158.546875 20.136719 158.957031 20.109375 159.742188 C 20.09375 160.164062 20.242188 160.421875 20.472656 160.605469 L 20.863281 161.519531 L 20.066406 161.675781 C 19.625 161.675781 19.316406 161.953125 19.046875 162.339844 C 18.683594 162.859375 18.847656 163.273438 19.253906 163.671875 C 19.539062 163.957031 19.859375 164.128906 20.230469 164.265625 C 20.523438 164.378906 20.820312 164.464844 21.121094 164.535156 L 21.613281 165.105469 L 21.285156 165.945312 L 21.3125 165.976562 C 21.164062 166.074219 21.042969 166.246094 20.976562 166.453125 C 20.785156 167.015625 21.183594 167.351562 21.640625 167.523438 C 22.367188 167.816406 23.101562 168.121094 23.851562 168.265625 L 25.539062 169.191406 C 25.539062 169.191406 24.96875 169.589844 25.296875 170.089844 C 25.3125 170.367188 25.574219 170.53125 25.816406 170.644531 C 26.472656 171.015625 27.179688 171.273438 27.925781 171.457031 C 31.933594 172.421875 35.953125 172.363281 39.945312 171.316406 C 44.085938 170.253906 47.804688 168.265625 51.332031 165.910156 C 53.15625 164.691406 55.089844 163.636719 57.183594 162.929688 C 57.207031 162.695312 57.035156 162.582031 56.90625 162.453125 Z M 56.90625 162.453125 " fill-opacity="1" fill-rule="evenodd"/><path fill="#e07288" d="M 78.738281 130.40625 C 78.386719 130.40625 78.058594 130.171875 77.9375 129.828125 C 75.75 122.507812 73.339844 94.714844 73.25 93.539062 C 73.199219 93.070312 73.546875 92.671875 74.011719 92.632812 C 74.480469 92.605469 74.878906 92.933594 74.910156 93.382812 C 74.929688 93.683594 77.402344 122.199219 79.542969 129.34375 C 79.683594 129.785156 79.421875 130.242188 78.984375 130.390625 C 78.90625 130.398438 78.816406 130.40625 78.738281 130.40625 Z M 78.738281 130.40625 " fill-opacity="1" fill-rule="nonzero"/><path fill="#f8a58c" d="M 27.410156 162.492188 C 23.550781 162.492188 20.976562 161.78125 20.8125 161.734375 C 20.546875 161.660156 20.390625 161.382812 20.464844 161.117188 C 20.542969 160.851562 20.820312 160.695312 21.085938 160.769531 C 21.144531 160.785156 27.238281 162.464844 34.691406 160.601562 C 34.957031 160.539062 35.230469 160.699219 35.300781 160.96875 C 35.367188 161.234375 35.203125 161.507812 34.933594 161.574219 C 32.15625 162.269531 29.582031 162.492188 27.410156 162.492188 Z M 27.410156 162.492188 " fill-opacity="1" fill-rule="nonzero"/><path fill="#f8a58c" d="M 28.722656 166.347656 C 24.746094 166.347656 21.921875 165.703125 21.742188 165.664062 C 21.472656 165.601562 21.304688 165.332031 21.367188 165.0625 C 21.429688 164.792969 21.699219 164.625 21.96875 164.6875 C 22.035156 164.703125 28.726562 166.222656 35.953125 164.558594 C 36.222656 164.496094 36.492188 164.664062 36.554688 164.933594 C 36.613281 165.203125 36.445312 165.472656 36.175781 165.535156 C 33.507812 166.148438 30.9375 166.347656 28.722656 166.347656 Z M 28.722656 166.347656 " fill-opacity="1" fill-rule="nonzero"/><path fill="#f8a58c" d="M 31.527344 169.96875 C 27.980469 169.96875 25.109375 169.300781 24.929688 169.257812 C 24.660156 169.191406 24.492188 168.921875 24.554688 168.652344 C 24.621094 168.382812 24.890625 168.21875 25.160156 168.28125 C 25.226562 168.296875 31.679688 169.796875 37.042969 168.277344 C 37.308594 168.203125 37.585938 168.359375 37.660156 168.625 C 37.738281 168.890625 37.582031 169.167969 37.316406 169.242188 C 35.394531 169.785156 33.371094 169.96875 31.527344 169.96875 Z M 31.527344 169.96875 " fill-opacity="1" fill-rule="nonzero"/><path fill="#ff9aaa" d="M 80.253906 129.363281 C 76.242188 131.035156 52.851562 150.902344 52.851562 150.902344 C 52.851562 150.902344 51.539062 159.9375 58.546875 164.027344 C 58.546875 164.027344 83.40625 153.269531 91.671875 143.503906 " fill-opacity="1" fill-rule="evenodd"/><path fill="#e07288" d="M 58.546875 164.855469 C 58.402344 164.855469 58.246094 164.820312 58.125 164.734375 C 50.707031 160.421875 51.96875 151.167969 52.023438 150.789062 C 52.058594 150.582031 52.160156 150.402344 52.300781 150.261719 C 53.277344 149.464844 75.84375 130.292969 79.925781 128.601562 C 80.355469 128.410156 80.839844 128.617188 81.03125 129.042969 C 81.203125 129.472656 80.996094 129.964844 80.566406 130.140625 C 77.425781 131.453125 60.320312 145.664062 53.648438 151.34375 C 53.507812 152.835938 53.242188 159.664062 58.609375 163.074219 C 61.804688 161.675781 83.554688 151.808594 91.023438 142.96875 C 91.335938 142.617188 91.851562 142.5625 92.199219 142.867188 C 92.5625 143.167969 92.597656 143.695312 92.300781 144.042969 C 84.019531 153.847656 59.894531 164.335938 58.875 164.804688 C 58.765625 164.832031 58.660156 164.855469 58.546875 164.855469 Z M 58.546875 164.855469 " fill-opacity="1" fill-rule="nonzero"/><path fill="#e07288" d="M 61.539062 119.847656 C 61.355469 119.847656 61.160156 119.789062 61.011719 119.65625 C 52.195312 112.433594 36.550781 113.652344 36.378906 113.671875 C 35.945312 113.707031 35.519531 113.367188 35.488281 112.917969 C 35.445312 112.433594 35.789062 112.046875 36.253906 112.011719 C 36.914062 111.941406 52.730469 110.730469 62.066406 118.371094 C 62.429688 118.65625 62.480469 119.191406 62.179688 119.546875 C 62.007812 119.742188 61.773438 119.847656 61.539062 119.847656 Z M 61.539062 119.847656 " fill-opacity="1" fill-rule="nonzero"/><path fill="#e58076" d="M 34.699219 64.152344 C 36.464844 62.976562 37.5 61.257812 37.785156 59.105469 C 37.898438 58.347656 37.550781 58.121094 37.222656 58.070312 C 37.035156 58.035156 36.859375 58.070312 36.738281 58.164062 C 36.472656 58.328125 36.429688 58.683594 36.394531 58.882812 C 36.238281 59.960938 35.859375 60.867188 35.253906 61.671875 C 34.421875 62.769531 33.507812 63.390625 32.175781 63.609375 C 32.46875 64.066406 33.058594 64.445312 33.523438 64.792969 C 33.871094 64.6875 33.636719 64.722656 34 64.558594 C 34.25 64.429688 34.476562 64.28125 34.699219 64.152344 Z M 34.699219 64.152344 " fill-opacity="1" fill-rule="nonzero"/><path fill="#ffa492" d="M 38.980469 46.699219 C 41.484375 45.558594 44.285156 46.199219 45.316406 48.273438 C 46.214844 50.25 45.402344 52.851562 42.566406 54.242188 C 39.851562 55.53125 37.121094 54.882812 36.082031 52.757812 C 35.148438 50.914062 36.300781 47.890625 38.980469 46.699219 Z M 38.980469 46.699219 " fill-opacity="1" fill-rule="evenodd"/><path fill="#fed2b9" d="M 62.222656 39.035156 C 63.585938 43.097656 61.355469 47.839844 58.59375 48.539062 C 55.824219 49.1875 53.578125 45.539062 52.222656 41.496094 C 50.863281 37.46875 51.96875 33.679688 54.753906 32.996094 C 57.511719 32.289062 60.871094 35.015625 62.222656 39.035156 Z M 62.222656 39.035156 " fill-opacity="1" fill-rule="evenodd"/><path fill="#f8a58c" d="M 54.097656 37.410156 C 54.097656 37.410156 54.519531 33.460938 58.660156 37.410156 C 58.660156 37.410156 61.894531 40.652344 57.917969 45.265625 Z M 54.097656 37.410156 " fill-opacity="0.7" fill-rule="evenodd"/><path fill="#633120" d="M 49.089844 29.589844 C 35.882812 29.589844 21.84375 24.003906 21.109375 23.710938 C 20.765625 23.570312 20.597656 23.179688 20.738281 22.832031 C 20.875 22.488281 21.269531 22.316406 21.617188 22.460938 C 21.835938 22.546875 43.726562 31.257812 58.152344 27.101562 C 58.511719 27 58.886719 27.207031 58.988281 27.566406 C 59.09375 27.921875 58.886719 28.296875 58.527344 28.402344 C 55.574219 29.25 52.355469 29.589844 49.089844 29.589844 Z M 49.089844 29.589844 " fill-opacity="1" fill-rule="nonzero"/><path fill="#633120" d="M 110.160156 122.269531 C 109.988281 122.269531 109.8125 122.203125 109.683594 122.070312 C 109.417969 121.808594 109.417969 121.382812 109.683594 121.117188 C 113.976562 116.816406 115.984375 113.003906 115.480469 110.09375 C 115.046875 107.605469 112.933594 106.574219 112.910156 106.5625 C 112.851562 106.535156 112.792969 106.496094 112.746094 106.449219 C 105.171875 99.484375 110.398438 91.847656 111.171875 90.8125 C 111.984375 87.929688 111.660156 84.984375 110.257812 82.507812 C 108.777344 79.894531 106.246094 78.007812 103.132812 77.195312 L 102.480469 77.027344 C 100.464844 76.515625 98.5625 76.035156 97.175781 74.03125 C 95.839844 72.097656 95.800781 70.097656 95.757812 68.167969 C 95.742188 67.523438 95.730469 66.855469 95.664062 66.195312 C 95.179688 61.136719 91.167969 60.429688 86.917969 59.675781 C 85.738281 59.464844 84.519531 59.25 83.390625 58.9375 C 77.734375 57.375 71.375 53.242188 70.480469 46.320312 C 69.003906 35.015625 62.480469 22.074219 51.238281 18.652344 C 43.480469 16.28125 31.988281 14.824219 23.003906 17.832031 C 22.652344 17.953125 22.269531 17.761719 22.148438 17.40625 C 22.03125 17.054688 22.222656 16.671875 22.574219 16.550781 C 31.863281 13.441406 43.671875 14.929688 51.632812 17.359375 C 63.449219 20.960938 70.285156 34.410156 71.820312 46.144531 C 72.628906 52.414062 78.511719 56.191406 83.75 57.636719 C 84.820312 57.933594 86.007812 58.140625 87.15625 58.347656 C 91.5 59.117188 96.425781 59.988281 97.011719 66.066406 C 97.078125 66.777344 97.09375 67.46875 97.109375 68.136719 C 97.148438 70.03125 97.183594 71.664062 98.289062 73.265625 C 99.386719 74.851562 100.898438 75.234375 102.8125 75.71875 L 103.476562 75.890625 C 106.945312 76.792969 109.773438 78.910156 111.433594 81.839844 C 113.039062 84.675781 113.394531 88.039062 112.433594 91.308594 C 112.410156 91.394531 112.367188 91.476562 112.308594 91.546875 C 112.070312 91.839844 106.539062 98.832031 113.59375 105.398438 C 114.105469 105.671875 116.316406 107.003906 116.808594 109.863281 C 117.398438 113.273438 115.324219 117.382812 110.636719 122.074219 C 110.507812 122.203125 110.332031 122.269531 110.160156 122.269531 Z M 110.160156 122.269531 " fill-opacity="1" fill-rule="nonzero"/><path fill="#633120" d="M 64.433594 22.730469 C 64.175781 22.730469 63.929688 22.585938 63.820312 22.335938 C 56.433594 6 34.140625 11.507812 33.917969 11.5625 C 33.554688 11.65625 33.1875 11.4375 33.097656 11.078125 C 33.003906 10.71875 33.21875 10.347656 33.582031 10.257812 C 33.816406 10.195312 57.199219 4.40625 65.050781 21.777344 C 65.203125 22.117188 65.050781 22.519531 64.714844 22.671875 C 64.621094 22.710938 64.527344 22.730469 64.433594 22.730469 Z M 64.433594 22.730469 " fill-opacity="1" fill-rule="nonzero"/><path fill="#e74e6d" d="M 30.914062 131.503906 C 30.855469 129.878906 31.164062 128.34375 31.898438 126.839844 C 32.730469 125.101562 34.015625 123.753906 35.996094 123.363281 C 38.269531 122.933594 39.929688 124.039062 41.199219 125.707031 C 42.738281 127.796875 43.101562 130.199219 43.101562 132.714844 C 43.074219 136.75 41.839844 140.5 40.199219 144.136719 C 39.945312 144.75 39.59375 145.335938 39.289062 145.941406 C 39.160156 146.242188 39.023438 146.332031 38.695312 146.332031 C 34.855469 146.027344 31.070312 145.390625 27.484375 143.9375 C 25.027344 142.90625 22.824219 141.527344 21.285156 139.296875 C 20.101562 137.484375 19.488281 135.566406 20.28125 133.414062 C 21.105469 131.117188 23.421875 129.714844 26.023438 129.894531 C 27.707031 130.007812 29.253906 130.519531 30.65625 131.453125 C 30.722656 131.453125 30.757812 131.523438 30.914062 131.503906 Z M 30.914062 131.503906 " fill-opacity="1" fill-rule="evenodd"/><path fill="#ff869d" d="M 7.773438 112.71875 C 7.730469 111.613281 7.957031 110.566406 8.449219 109.550781 C 9.011719 108.363281 9.882812 107.457031 11.222656 107.1875 C 12.769531 106.886719 13.902344 107.640625 14.757812 108.785156 C 15.8125 110.203125 16.054688 111.828125 16.054688 113.539062 C 16.03125 116.261719 15.199219 118.828125 14.085938 121.289062 C 13.902344 121.722656 13.679688 122.101562 13.46875 122.523438 C 13.375 122.714844 13.28125 122.785156 13.0625 122.769531 C 10.453125 122.570312 7.871094 122.144531 5.441406 121.160156 C 3.773438 120.449219 2.285156 119.535156 1.242188 118.007812 C 0.425781 116.777344 0.0195312 115.464844 0.566406 114.007812 C 1.101562 112.449219 2.691406 111.507812 4.453125 111.621094 C 5.605469 111.699219 6.648438 112.042969 7.601562 112.667969 C 7.664062 112.667969 7.679688 112.738281 7.773438 112.71875 Z M 7.773438 112.71875 " fill-opacity="1" fill-rule="evenodd"/><path fill="#ff6177" d="M 12.804688 92.664062 C 13.324219 92.191406 13.914062 91.84375 14.613281 91.664062 C 15.417969 91.449219 16.21875 91.480469 16.894531 92.035156 C 17.671875 92.632812 17.792969 93.488281 17.601562 94.375 C 17.351562 95.457031 16.671875 96.261719 15.859375 96.976562 C 14.527344 98.101562 12.96875 98.765625 11.3125 99.25 C 11.042969 99.34375 10.742188 99.398438 10.472656 99.472656 C 10.34375 99.5 10.273438 99.492188 10.1875 99.386719 C 9.191406 98.058594 8.328125 96.640625 7.792969 95.050781 C 7.429688 93.960938 7.257812 92.875 7.550781 91.722656 C 7.800781 90.824219 8.261719 90.089844 9.191406 89.738281 C 10.160156 89.375 11.277344 89.71875 11.949219 90.625 C 12.390625 91.195312 12.667969 91.84375 12.753906 92.546875 C 12.78125 92.597656 12.761719 92.621094 12.804688 92.664062 Z M 12.804688 92.664062 " fill-opacity="1" fill-rule="evenodd"/><g clip-path="url(#2380c4a5d5)"><path fill="#71422e" d="M 27.765625 115.992188 C 28.078125 115.105469 28.382812 114.222656 28.5625 113.335938 C 29.167969 110.542969 27.984375 108.390625 26.125 106.480469 C 25.3125 105.660156 24.371094 104.996094 23.628906 104.097656 C 20.730469 100.5625 20.445312 96.554688 21.65625 92.320312 C 22.21875 90.410156 23.167969 88.683594 24.335938 87.085938 C 25.277344 85.804688 25.949219 84.40625 26.28125 82.808594 C 26.796875 80.292969 25.917969 78.226562 24.386719 76.394531 C 23.460938 75.308594 22.433594 74.359375 21.535156 73.269531 C 18.992188 70.191406 18.179688 66.640625 18.820312 62.710938 C 19.148438 60.523438 19.496094 58.347656 19.832031 56.160156 C 20.210938 53.734375 19.148438 50.734375 16.582031 49.496094 C 12.492188 47.527344 10.480469 43.890625 9.398438 39.597656 C 8.128906 34.480469 9.171875 29.644531 11.308594 24.996094 C 13.175781 20.941406 15.742188 17.414062 18.847656 14.261719 C 24.984375 8.03125 34.042969 2.703125 42.757812 1.621094 C 54.035156 0.207031 65.132812 5.304688 72.992188 13.183594 C 78.679688 18.886719 80.617188 26.265625 84.757812 32.902344 C 87.21875 36.875 90.175781 40.304688 94.652344 42.023438 C 95.636719 42.40625 96.519531 42.984375 97.410156 43.535156 C 101.585938 46.078125 103.980469 49.871094 104.945312 54.65625 C 105.234375 56.054688 105.371094 57.457031 105.671875 58.828125 C 106.425781 62.207031 108.363281 64.679688 111.351562 66.304688 C 113.574219 67.503906 115.847656 68.679688 117.730469 70.40625 C 122.796875 75.039062 124.441406 80.714844 122.574219 87.410156 C 122.140625 88.941406 121.59375 90.460938 121.34375 92.050781 C 120.964844 94.480469 121.65625 96.65625 123.074219 98.582031 C 124.222656 100.15625 125.25 101.796875 125.925781 103.648438 C 127.722656 108.683594 126.273438 114.4375 122.328125 118 C 120.585938 119.5625 118.628906 120.917969 117.023438 122.671875 C 116.019531 123.777344 115.136719 124.96875 114.621094 126.398438 C 113.703125 128.929688 114.480469 130.839844 116.929688 131.769531 C 117.714844 132.066406 117.664062 132.394531 117.238281 132.921875 C 115.613281 134.933594 113.460938 135.710938 110.972656 135.640625 C 109.140625 135.609375 107.515625 134.976562 106.027344 133.871094 C 104.023438 137.136719 101.378906 139.113281 97.402344 138.457031 C 90.6875 138.257812 78.058594 130.472656 78.058594 130.472656 C 78.058594 130.472656 39.003906 131.148438 38.960938 131.148438 C 37.398438 131.167969 34.832031 129.453125 33.578125 128.71875 C 30.96875 127.199219 27.691406 124.539062 27 121.4375 C 26.574219 119.582031 27.164062 117.773438 27.765625 115.992188 Z M 27.765625 115.992188 " fill-opacity="1" fill-rule="evenodd"/></g><path fill="#633120" d="M 33.964844 105.394531 C 33.957031 105.394531 33.945312 105.394531 33.933594 105.394531 C 33.5625 105.375 33.273438 105.058594 33.289062 104.6875 C 33.398438 102.378906 32.125 100.761719 30.773438 99.046875 C 29.5 97.4375 28.1875 95.769531 28.0625 93.480469 C 27.972656 91.402344 28.835938 89.425781 29.59375 87.679688 L 29.691406 87.464844 C 29.867188 87.050781 30.0625 86.628906 30.253906 86.199219 C 31.710938 83 33.210938 79.695312 31.25 76.714844 C 30.011719 74.84375 28.367188 73.089844 26.21875 71.347656 C 25.929688 71.113281 25.882812 70.6875 26.121094 70.398438 C 26.355469 70.109375 26.78125 70.0625 27.070312 70.300781 C 29.324219 72.128906 31.0625 73.984375 32.375 75.972656 C 34.75 79.574219 33.015625 83.390625 31.484375 86.753906 C 31.292969 87.179688 31.105469 87.59375 30.929688 88 L 30.832031 88.21875 C 30.09375 89.910156 29.332031 91.65625 29.410156 93.414062 C 29.511719 95.269531 30.640625 96.699219 31.832031 98.214844 C 33.277344 100.042969 34.769531 101.941406 34.640625 104.75 C 34.625 105.109375 34.324219 105.394531 33.964844 105.394531 Z M 33.964844 105.394531 " fill-opacity="1" fill-rule="nonzero"/><path fill="#633120" d="M 38.632812 87.121094 C 38.523438 87.121094 38.410156 87.09375 38.304688 87.035156 C 37.980469 86.855469 37.863281 86.445312 38.042969 86.117188 C 41.785156 79.363281 37.914062 75.3125 37.746094 75.144531 C 37.488281 74.878906 37.488281 74.453125 37.75 74.191406 C 38.015625 73.929688 38.441406 73.929688 38.703125 74.191406 C 38.753906 74.238281 43.472656 79.097656 39.222656 86.769531 C 39.101562 86.992188 38.871094 87.121094 38.632812 87.121094 Z M 38.632812 87.121094 " fill-opacity="1" fill-rule="nonzero"/><path fill="#fed2b9" d="M 47.953125 38.523438 C 42.359375 39.078125 38.511719 37.902344 32.980469 36.675781 C 27.578125 35.484375 22.761719 33.167969 18.863281 29.160156 C 18.285156 28.554688 17.699219 27.957031 17.109375 27.363281 C 16.675781 26.929688 16.410156 27.058594 16.253906 27.628906 C 16.105469 28.15625 15.941406 28.675781 15.796875 29.203125 C 15.382812 30.179688 15.449219 31.214844 15.382812 32.21875 C 15.269531 34.421875 15.484375 36.574219 16.304688 38.648438 C 16.351562 38.75 16.410156 38.835938 16.445312 38.949219 C 17.371094 41.765625 18.589844 44.402344 20.773438 46.511719 C 23.066406 48.730469 23.894531 51.519531 23.792969 54.675781 C 23.765625 56.058594 23.652344 57.449219 23.582031 58.8125 C 23.515625 60.273438 24.1875 60.992188 25.640625 61.050781 C 26.671875 61.113281 27.691406 60.964844 28.648438 60.566406 C 29.386719 60.257812 29.84375 60.492188 30.242188 61.136719 C 32.046875 64.085938 35.21875 66.15625 37.847656 68.308594 C 40.777344 70.695312 43.847656 70.695312 47.113281 69.097656 C 49.214844 68.078125 50.941406 66.5625 52.679688 65.042969 C 53.605469 65.761719 54.261719 66.710938 55.015625 67.582031 C 55.792969 68.984375 56.726562 70.3125 57.019531 71.941406 C 56.792969 72.179688 56.578125 72.441406 56.363281 72.671875 C 56.199219 72.8125 56.035156 72.941406 55.867188 73.0625 C 55.394531 73.640625 54.890625 74.203125 54.441406 74.796875 C 52.878906 76.878906 51.484375 79.058594 50.925781 81.640625 C 50.613281 83.152344 51.089844 84.5 53.007812 85.027344 C 54.546875 85.417969 56 85.160156 57.433594 84.769531 C 60.390625 83.972656 62.914062 82.332031 65.335938 80.542969 C 68.800781 77.953125 72.039062 75.039062 75.765625 72.8125 C 78.300781 71.296875 80.875 69.933594 83.988281 70.253906 C 84.132812 70.261719 84.316406 70.296875 84.4375 70.132812 C 83.867188 70.851562 75.84375 65.542969 74.894531 64.914062 C 73.582031 64.042969 71.660156 62.269531 70.695312 61 C 68.964844 58.738281 67.867188 56.152344 66.8125 53.535156 C 66.214844 52.066406 65.660156 50.597656 64.96875 49.164062 C 62.007812 42.921875 55.183594 37.808594 47.953125 38.523438 Z M 47.953125 38.523438 " fill-opacity="1" fill-rule="evenodd"/><path fill="#f8a58c" d="M 52.679688 65.042969 C 53.378906 64.167969 54.097656 63.296875 54.789062 62.382812 C 55.539062 61.402344 56.25 60.375 56.828125 59.253906 C 57.398438 58.191406 57.917969 57.101562 58.296875 55.746094 C 58.523438 57.699219 58.21875 59.402344 57.839844 61.121094 C 57.398438 63.226562 56.691406 65.222656 55.53125 67.054688 C 55.394531 67.269531 55.253906 67.480469 55.015625 67.582031 C 54.261719 66.710938 53.605469 65.761719 52.679688 65.042969 Z M 52.679688 65.042969 " fill-opacity="1" fill-rule="evenodd"/><path fill="#6e391e" d="M 27.285156 37.835938 C 28.734375 37.851562 29.773438 38.007812 30.808594 38.25 C 31.15625 38.328125 31.570312 38.449219 31.5 38.921875 C 31.449219 39.433594 31.027344 39.398438 30.65625 39.347656 C 29.03125 39.148438 27.40625 39.097656 25.816406 39.691406 C 24.964844 40.019531 24.128906 40.367188 23.324219 40.824219 C 23.046875 40.996094 22.746094 41.207031 22.449219 40.824219 C 22.167969 40.480469 22.382812 40.183594 22.597656 39.945312 C 23.949219 38.4375 25.71875 37.921875 27.285156 37.835938 Z M 27.285156 37.835938 " fill-opacity="1" fill-rule="evenodd"/><path fill="#3e2433" d="M 30.84375 49.84375 C 29.394531 49.992188 27.707031 48.894531 27.265625 47.492188 C 27.179688 47.210938 27 46.785156 27.398438 46.613281 C 27.707031 46.464844 28.054688 46.65625 28.269531 46.941406 C 28.382812 47.054688 28.476562 47.207031 28.546875 47.363281 C 29.203125 48.902344 30.863281 48.511719 31.625 47.691406 C 32.132812 47.148438 32.402344 46.5 32.503906 45.765625 C 32.539062 45.453125 32.652344 45.109375 33.039062 45.132812 C 33.367188 45.144531 33.558594 45.394531 33.636719 45.722656 C 34.058594 47.378906 32.503906 49.679688 30.84375 49.84375 Z M 30.84375 49.84375 " fill-opacity="1" fill-rule="evenodd"/><g clip-path="url(#08d0cfc12e)"><path fill="#ff9aaa" d="M 107.144531 208.523438 C 105.335938 194.15625 104.59375 179.570312 100.238281 165.660156 C 98.984375 161.675781 97.53125 157.753906 96.085938 153.847656 C 95.734375 152.847656 91.886719 144.042969 92.492188 143.574219 C 93.0625 143.125 93.574219 142.625 94.039062 142.097656 C 98.941406 136.421875 98.75 128.324219 98.90625 121.273438 C 99 116.988281 98.75 112.71875 98.628906 108.433594 C 98.542969 105.601562 98.421875 102.773438 98.300781 99.941406 C 98.144531 96.332031 97.746094 92.734375 97.246094 89.148438 C 96.605469 84.570312 95.320312 80.183594 92.457031 76.414062 C 90.359375 73.640625 87.84375 71.378906 84.609375 69.984375 C 81.652344 69.675781 79.007812 70.582031 76.5 72.042969 C 74.46875 73.253906 72.523438 74.582031 70.652344 76.027344 C 67.988281 78.097656 65.453125 80.328125 62.585938 82.089844 C 60.148438 83.59375 57.605469 84.863281 54.667969 84.949219 C 52.195312 85.019531 50.5 83.800781 51.347656 81.113281 C 51.390625 80.933594 51.433594 80.777344 51.484375 80.605469 C 52.300781 78.113281 53.804688 76.015625 55.445312 73.984375 C 55.652344 73.71875 56 73.492188 55.886719 73.0625 C 55.558594 72.808594 55.246094 72.976562 54.9375 73.105469 C 53.285156 73.855469 51.71875 74.761719 50.285156 75.878906 C 47.769531 77.832031 45.894531 80.363281 44.253906 83.058594 C 42.410156 86.046875 40.542969 89.011719 38.242188 91.683594 C 37.207031 92.875 36.222656 94.125 35.28125 95.394531 C 31.519531 100.527344 31.328125 106.707031 34.820312 112.027344 C 35.132812 112.519531 35.121094 112.78125 34.597656 113.09375 C 26.625 117.464844 19.460938 124.601562 14.863281 132.410156 C 13.515625 134.726562 12.347656 137.171875 11.371094 139.679688 C 8.710938 146.554688 7.90625 153.632812 9.191406 160.941406 C 10.058594 165.875 11.675781 170.566406 13.558594 175.164062 C 15.433594 179.726562 16.730469 184.390625 16.765625 189.359375 C 16.800781 194.476562 16.160156 199.503906 15.53125 204.550781 C 14.855469 210.027344 14.035156 215.472656 13.066406 220.90625 L 108.742188 220.90625 C 108.191406 216.777344 107.664062 212.65625 107.144531 208.523438 Z M 107.144531 208.523438 " fill-opacity="1" fill-rule="evenodd"/></g><path fill="#fed2b9" d="M 56.90625 162.453125 C 54.0625 159.523438 52.628906 156.023438 52.488281 151.964844 C 52.488281 151.730469 52.550781 151.429688 52.195312 151.386719 C 51.796875 151.695312 51.3125 151.695312 50.847656 151.730469 C 49.28125 151.867188 47.820312 151.402344 46.351562 151.003906 C 44.433594 150.453125 42.566406 149.785156 40.5625 149.527344 C 38.019531 149.191406 35.496094 148.914062 32.964844 148.601562 C 32.332031 148.53125 31.660156 148.414062 31.054688 148.644531 C 30.066406 149.042969 30.007812 150.132812 30.949219 150.953125 C 31.761719 151.671875 32.703125 152.222656 33.75 152.535156 C 35.132812 152.949219 36.535156 153.355469 37.933594 153.71875 C 38.589844 153.890625 38.453125 154.175781 38.125 154.511719 C 37.976562 154.667969 37.761719 154.765625 37.570312 154.851562 C 35.359375 155.714844 33.109375 156.40625 30.792969 156.941406 C 27.691406 157.683594 24.5 157.902344 21.363281 158.417969 C 20.59375 158.546875 20.136719 158.957031 20.109375 159.742188 C 20.09375 160.164062 20.242188 160.421875 20.472656 160.605469 L 20.863281 161.519531 L 20.066406 161.675781 C 19.625 161.675781 19.316406 161.953125 19.046875 162.339844 C 18.683594 162.859375 18.847656 163.273438 19.253906 163.671875 C 19.539062 163.957031 19.859375 164.128906 20.230469 164.265625 C 20.523438 164.378906 20.820312 164.464844 21.121094 164.535156 L 21.613281 165.105469 L 21.285156 165.945312 L 21.3125 165.976562 C 21.164062 166.074219 21.042969 166.246094 20.976562 166.453125 C 20.785156 167.015625 21.183594 167.351562 21.640625 167.523438 C 22.367188 167.816406 23.101562 168.121094 23.851562 168.265625 L 25.539062 169.191406 C 25.539062 169.191406 24.96875 169.589844 25.296875 170.089844 C 25.3125 170.367188 25.574219 170.53125 25.816406 170.644531 C 26.472656 171.015625 27.179688 171.273438 27.925781 171.457031 C 31.933594 172.421875 35.953125 172.363281 39.945312 171.316406 C 44.085938 170.253906 47.804688 168.265625 51.332031 165.910156 C 53.15625 164.691406 55.089844 163.636719 57.183594 162.929688 C 57.207031 162.695312 57.035156 162.582031 56.90625 162.453125 Z M 56.90625 162.453125 " fill-opacity="1" fill-rule="evenodd"/><path fill="#e07288" d="M 78.738281 130.40625 C 78.386719 130.40625 78.058594 130.171875 77.9375 129.828125 C 75.75 122.507812 73.339844 94.714844 73.25 93.539062 C 73.199219 93.070312 73.546875 92.671875 74.011719 92.632812 C 74.480469 92.605469 74.878906 92.933594 74.910156 93.382812 C 74.929688 93.683594 77.402344 122.199219 79.542969 129.34375 C 79.683594 129.785156 79.421875 130.242188 78.984375 130.390625 C 78.90625 130.398438 78.816406 130.40625 78.738281 130.40625 Z M 78.738281 130.40625 " fill-opacity="1" fill-rule="nonzero"/><path fill="#f8a58c" d="M 27.410156 162.492188 C 23.550781 162.492188 20.976562 161.78125 20.8125 161.734375 C 20.546875 161.660156 20.390625 161.382812 20.464844 161.117188 C 20.542969 160.851562 20.820312 160.695312 21.085938 160.769531 C 21.144531 160.785156 27.238281 162.464844 34.691406 160.601562 C 34.957031 160.539062 35.230469 160.699219 35.300781 160.96875 C 35.367188 161.234375 35.203125 161.507812 34.933594 161.574219 C 32.15625 162.269531 29.582031 162.492188 27.410156 162.492188 Z M 27.410156 162.492188 " fill-opacity="1" fill-rule="nonzero"/><path fill="#f8a58c" d="M 28.722656 166.347656 C 24.746094 166.347656 21.921875 165.703125 21.742188 165.664062 C 21.472656 165.601562 21.304688 165.332031 21.367188 165.0625 C 21.429688 164.792969 21.699219 164.625 21.96875 164.6875 C 22.035156 164.703125 28.726562 166.222656 35.953125 164.558594 C 36.222656 164.496094 36.492188 164.664062 36.554688 164.933594 C 36.613281 165.203125 36.445312 165.472656 36.175781 165.535156 C 33.507812 166.148438 30.9375 166.347656 28.722656 166.347656 Z M 28.722656 166.347656 " fill-opacity="1" fill-rule="nonzero"/><path fill="#f8a58c" d="M 31.527344 169.96875 C 27.980469 169.96875 25.109375 169.300781 24.929688 169.257812 C 24.660156 169.191406 24.492188 168.921875 24.554688 168.652344 C 24.621094 168.382812 24.890625 168.21875 25.160156 168.28125 C 25.226562 168.296875 31.679688 169.796875 37.042969 168.277344 C 37.308594 168.203125 37.585938 168.359375 37.660156 168.625 C 37.738281 168.890625 37.582031 169.167969 37.316406 169.242188 C 35.394531 169.785156 33.371094 169.96875 31.527344 169.96875 Z M 31.527344 169.96875 " fill-opacity="1" fill-rule="nonzero"/><path fill="#ff9aaa" d="M 80.253906 129.363281 C 76.242188 131.035156 52.851562 150.902344 52.851562 150.902344 C 52.851562 150.902344 51.539062 159.9375 58.546875 164.027344 C 58.546875 164.027344 83.40625 153.269531 91.671875 143.503906 " fill-opacity="1" fill-rule="evenodd"/><path fill="#e07288" d="M 58.546875 164.855469 C 58.402344 164.855469 58.246094 164.820312 58.125 164.734375 C 50.707031 160.421875 51.96875 151.167969 52.023438 150.789062 C 52.058594 150.582031 52.160156 150.402344 52.300781 150.261719 C 53.277344 149.464844 75.84375 130.292969 79.925781 128.601562 C 80.355469 128.410156 80.839844 128.617188 81.03125 129.042969 C 81.203125 129.472656 80.996094 129.964844 80.566406 130.140625 C 77.425781 131.453125 60.320312 145.664062 53.648438 151.34375 C 53.507812 152.835938 53.242188 159.664062 58.609375 163.074219 C 61.804688 161.675781 83.554688 151.808594 91.023438 142.96875 C 91.335938 142.617188 91.851562 142.5625 92.199219 142.867188 C 92.5625 143.167969 92.597656 143.695312 92.300781 144.042969 C 84.019531 153.847656 59.894531 164.335938 58.875 164.804688 C 58.765625 164.832031 58.660156 164.855469 58.546875 164.855469 Z M 58.546875 164.855469 " fill-opacity="1" fill-rule="nonzero"/><path fill="#e07288" d="M 61.539062 119.847656 C 61.355469 119.847656 61.160156 119.789062 61.011719 119.65625 C 52.195312 112.433594 36.550781 113.652344 36.378906 113.671875 C 35.945312 113.707031 35.519531 113.367188 35.488281 112.917969 C 35.445312 112.433594 35.789062 112.046875 36.253906 112.011719 C 36.914062 111.941406 52.730469 110.730469 62.066406 118.371094 C 62.429688 118.65625 62.480469 119.191406 62.179688 119.546875 C 62.007812 119.742188 61.773438 119.847656 61.539062 119.847656 Z M 61.539062 119.847656 " fill-opacity="1" fill-rule="nonzero"/><path fill="#e58076" d="M 34.699219 64.152344 C 36.464844 62.976562 37.5 61.257812 37.785156 59.105469 C 37.898438 58.347656 37.550781 58.121094 37.222656 58.070312 C 37.035156 58.035156 36.859375 58.070312 36.738281 58.164062 C 36.472656 58.328125 36.429688 58.683594 36.394531 58.882812 C 36.238281 59.960938 35.859375 60.867188 35.253906 61.671875 C 34.421875 62.769531 33.507812 63.390625 32.175781 63.609375 C 32.46875 64.066406 33.058594 64.445312 33.523438 64.792969 C 33.871094 64.6875 33.636719 64.722656 34 64.558594 C 34.25 64.429688 34.476562 64.28125 34.699219 64.152344 Z M 34.699219 64.152344 " fill-opacity="1" fill-rule="nonzero"/><path fill="#ffa492" d="M 38.980469 46.699219 C 41.484375 45.558594 44.285156 46.199219 45.316406 48.273438 C 46.214844 50.25 45.402344 52.851562 42.566406 54.242188 C 39.851562 55.53125 37.121094 54.882812 36.082031 52.757812 C 35.148438 50.914062 36.300781 47.890625 38.980469 46.699219 Z M 38.980469 46.699219 " fill-opacity="1" fill-rule="evenodd"/><path fill="#fed2b9" d="M 62.222656 39.035156 C 63.585938 43.097656 61.355469 47.839844 58.59375 48.539062 C 55.824219 49.1875 53.578125 45.539062 52.222656 41.496094 C 50.863281 37.46875 51.96875 33.679688 54.753906 32.996094 C 57.511719 32.289062 60.871094 35.015625 62.222656 39.035156 Z M 62.222656 39.035156 " fill-opacity="1" fill-rule="evenodd"/><path fill="#f8a58c" d="M 54.097656 37.410156 C 54.097656 37.410156 54.519531 33.460938 58.660156 37.410156 C 58.660156 37.410156 61.894531 40.652344 57.917969 45.265625 Z M 54.097656 37.410156 " fill-opacity="0.7" fill-rule="evenodd"/><path fill="#633120" d="M 49.089844 29.589844 C 35.882812 29.589844 21.84375 24.003906 21.109375 23.710938 C 20.765625 23.570312 20.597656 23.179688 20.738281 22.832031 C 20.875 22.488281 21.269531 22.316406 21.617188 22.460938 C 21.835938 22.546875 43.726562 31.257812 58.152344 27.101562 C 58.511719 27 58.886719 27.207031 58.988281 27.566406 C 59.09375 27.921875 58.886719 28.296875 58.527344 28.402344 C 55.574219 29.25 52.355469 29.589844 49.089844 29.589844 Z M 49.089844 29.589844 " fill-opacity="1" fill-rule="nonzero"/><path fill="#633120" d="M 110.160156 122.269531 C 109.988281 122.269531 109.8125 122.203125 109.683594 122.070312 C 109.417969 121.808594 109.417969 121.382812 109.683594 121.117188 C 113.976562 116.816406 115.984375 113.003906 115.480469 110.09375 C 115.046875 107.605469 112.933594 106.574219 112.910156 106.5625 C 112.851562 106.535156 112.792969 106.496094 112.746094 106.449219 C 105.171875 99.484375 110.398438 91.847656 111.171875 90.8125 C 111.984375 87.929688 111.660156 84.984375 110.257812 82.507812 C 108.777344 79.894531 106.246094 78.007812 103.132812 77.195312 L 102.480469 77.027344 C 100.464844 76.515625 98.5625 76.035156 97.175781 74.03125 C 95.839844 72.097656 95.800781 70.097656 95.757812 68.167969 C 95.742188 67.523438 95.730469 66.855469 95.664062 66.195312 C 95.179688 61.136719 91.167969 60.429688 86.917969 59.675781 C 85.738281 59.464844 84.519531 59.25 83.390625 58.9375 C 77.734375 57.375 71.375 53.242188 70.480469 46.320312 C 69.003906 35.015625 62.480469 22.074219 51.238281 18.652344 C 43.480469 16.28125 31.988281 14.824219 23.003906 17.832031 C 22.652344 17.953125 22.269531 17.761719 22.148438 17.40625 C 22.03125 17.054688 22.222656 16.671875 22.574219 16.550781 C 31.863281 13.441406 43.671875 14.929688 51.632812 17.359375 C 63.449219 20.960938 70.285156 34.410156 71.820312 46.144531 C 72.628906 52.414062 78.511719 56.191406 83.75 57.636719 C 84.820312 57.933594 86.007812 58.140625 87.15625 58.347656 C 91.5 59.117188 96.425781 59.988281 97.011719 66.066406 C 97.078125 66.777344 97.09375 67.46875 97.109375 68.136719 C 97.148438 70.03125 97.183594 71.664062 98.289062 73.265625 C 99.386719 74.851562 100.898438 75.234375 102.8125 75.71875 L 103.476562 75.890625 C 106.945312 76.792969 109.773438 78.910156 111.433594 81.839844 C 113.039062 84.675781 113.394531 88.039062 112.433594 91.308594 C 112.410156 91.394531 112.367188 91.476562 112.308594 91.546875 C 112.070312 91.839844 106.539062 98.832031 113.59375 105.398438 C 114.105469 105.671875 116.316406 107.003906 116.808594 109.863281 C 117.398438 113.273438 115.324219 117.382812 110.636719 122.074219 C 110.507812 122.203125 110.332031 122.269531 110.160156 122.269531 Z M 110.160156 122.269531 " fill-opacity="1" fill-rule="nonzero"/><path fill="#633120" d="M 64.433594 22.730469 C 64.175781 22.730469 63.929688 22.585938 63.820312 22.335938 C 56.433594 6 34.140625 11.507812 33.917969 11.5625 C 33.554688 11.65625 33.1875 11.4375 33.097656 11.078125 C 33.003906 10.71875 33.21875 10.347656 33.582031 10.257812 C 33.816406 10.195312 57.199219 4.40625 65.050781 21.777344 C 65.203125 22.117188 65.050781 22.519531 64.714844 22.671875 C 64.621094 22.710938 64.527344 22.730469 64.433594 22.730469 Z M 64.433594 22.730469 " fill-opacity="1" fill-rule="nonzero"/><path fill="#e74e6d" d="M 30.914062 131.503906 C 30.855469 129.878906 31.164062 128.34375 31.898438 126.839844 C 32.730469 125.101562 34.015625 123.753906 35.996094 123.363281 C 38.269531 122.933594 39.929688 124.039062 41.199219 125.707031 C 42.738281 127.796875 43.101562 130.199219 43.101562 132.714844 C 43.074219 136.75 41.839844 140.5 40.199219 144.136719 C 39.945312 144.75 39.59375 145.335938 39.289062 145.941406 C 39.160156 146.242188 39.023438 146.332031 38.695312 146.332031 C 34.855469 146.027344 31.070312 145.390625 27.484375 143.9375 C 25.027344 142.90625 22.824219 141.527344 21.285156 139.296875 C 20.101562 137.484375 19.488281 135.566406 20.28125 133.414062 C 21.105469 131.117188 23.421875 129.714844 26.023438 129.894531 C 27.707031 130.007812 29.253906 130.519531 30.65625 131.453125 C 30.722656 131.453125 30.757812 131.523438 30.914062 131.503906 Z M 30.914062 131.503906 " fill-opacity="1" fill-rule="evenodd"/><path fill="#ff869d" d="M 7.773438 112.71875 C 7.730469 111.613281 7.957031 110.566406 8.449219 109.550781 C 9.011719 108.363281 9.882812 107.457031 11.222656 107.1875 C 12.769531 106.886719 13.902344 107.640625 14.757812 108.785156 C 15.8125 110.203125 16.054688 111.828125 16.054688 113.539062 C 16.03125 116.261719 15.199219 118.828125 14.085938 121.289062 C 13.902344 121.722656 13.679688 122.101562 13.46875 122.523438 C 13.375 122.714844 13.28125 122.785156 13.0625 122.769531 C 10.453125 122.570312 7.871094 122.144531 5.441406 121.160156 C 3.773438 120.449219 2.285156 119.535156 1.242188 118.007812 C 0.425781 116.777344 0.0195312 115.464844 0.566406 114.007812 C 1.101562 112.449219 2.691406 111.507812 4.453125 111.621094 C 5.605469 111.699219 6.648438 112.042969 7.601562 112.667969 C 7.664062 112.667969 7.679688 112.738281 7.773438 112.71875 Z M 7.773438 112.71875 " fill-opacity="1" fill-rule="evenodd"/><path fill="#ff6177" d="M 12.804688 92.664062 C 13.324219 92.191406 13.914062 91.84375 14.613281 91.664062 C 15.417969 91.449219 16.21875 91.480469 16.894531 92.035156 C 17.671875 92.632812 17.792969 93.488281 17.601562 94.375 C 17.351562 95.457031 16.671875 96.261719 15.859375 96.976562 C 14.527344 98.101562 12.96875 98.765625 11.3125 99.25 C 11.042969 99.34375 10.742188 99.398438 10.472656 99.472656 C 10.34375 99.5 10.273438 99.492188 10.1875 99.386719 C 9.191406 98.058594 8.328125 96.640625 7.792969 95.050781 C 7.429688 93.960938 7.257812 92.875 7.550781 91.722656 C 7.800781 90.824219 8.261719 90.089844 9.191406 89.738281 C 10.160156 89.375 11.277344 89.71875 11.949219 90.625 C 12.390625 91.195312 12.667969 91.84375 12.753906 92.546875 C 12.78125 92.597656 12.761719 92.621094 12.804688 92.664062 Z M 12.804688 92.664062 " fill-opacity="1" fill-rule="evenodd"/></svg>