<svg xmlns="http://www.w3.org/2000/svg" xmlns:xlink="http://www.w3.org/1999/xlink" width="650" zoomAndPan="magnify" viewBox="0 0 487.5 350.999992" height="468" preserveAspectRatio="xMidYMid meet" version="1.0"><path fill="#e74c2f" d="M 285.195312 89.78125 C 285.195312 89.78125 285.195312 70.203125 285.195312 70.203125 C 285.195312 62.46875 278.925781 56.199219 271.191406 56.199219 C 263.453125 56.199219 257.183594 62.46875 257.183594 70.203125 C 257.183594 70.203125 257.183594 89.453125 257.183594 89.453125 C 257.183594 89.453125 285.195312 89.78125 285.195312 89.78125 Z M 285.195312 89.78125 " fill-opacity="1" fill-rule="nonzero"/><path fill="#ffffff" d="M 257.183594 89.453125 C 257.183594 89.453125 257.183594 70.203125 257.183594 70.203125 C 257.183594 62.46875 263.453125 56.199219 271.191406 56.199219 C 271.191406 56.199219 256.417969 55.773438 257.21875 72.949219 C 257.21875 72.949219 257.21875 89.496094 257.21875 89.496094 C 257.21875 89.496094 257.183594 89.453125 257.183594 89.453125 Z M 257.183594 89.453125 " fill-opacity="0.1" fill-rule="nonzero"/><path fill="#15130d" d="M 150.488281 309.351562 C 150.488281 327.207031 165.726562 341.679688 184.519531 341.679688 C 203.316406 341.679688 218.550781 327.207031 218.550781 309.351562 C 218.550781 291.496094 203.316406 277.019531 184.519531 277.019531 C 165.726562 277.019531 150.488281 291.496094 150.488281 309.351562 Z M 150.488281 309.351562 " fill-opacity="1" fill-rule="nonzero"/><path fill="#15130d" d="M 322.792969 309.414062 C 322.792969 327.269531 338.03125 341.746094 356.824219 341.746094 C 375.621094 341.746094 390.855469 327.269531 390.855469 309.414062 C 390.855469 291.5625 375.621094 277.085938 356.824219 277.085938 C 338.03125 277.085938 322.792969 291.5625 322.792969 309.414062 Z M 322.792969 309.414062 " fill-opacity="1" fill-rule="nonzero"/><path fill="#fffeff" d="M 473.03125 225.324219 C 473.03125 225.324219 474.113281 287.339844 474.113281 287.339844 C 474.214844 293.171875 469.570312 297.984375 463.738281 298.085938 C 463.738281 298.085938 36.09375 305.550781 36.09375 305.550781 C 25.382812 305.738281 16.546875 297.207031 16.363281 286.5 C 16.363281 286.5 13.539062 124.863281 13.539062 124.863281 C 13.316406 112.078125 23.5 101.535156 36.28125 101.3125 C 36.28125 101.3125 369.960938 95.488281 369.960938 95.488281 C 374.574219 95.40625 378.707031 98.332031 380.164062 102.707031 C 380.164062 102.707031 416.640625 189.257812 416.640625 189.257812 C 417.285156 191.191406 418.476562 192.894531 420.070312 194.167969 C 420.070312 194.167969 469.0625 217.253906 469.0625 217.253906 C 471.519531 219.21875 472.976562 222.175781 473.03125 225.324219 Z M 473.03125 225.324219 " fill-opacity="1" fill-rule="nonzero"/><path fill="#9dc7e2" d="M 363.363281 110.652344 C 363.363281 110.652344 306.820312 111.636719 306.820312 111.636719 C 299.648438 111.761719 294.6875 118.84375 297.011719 125.628906 C 297.011719 125.628906 321.527344 185.484375 321.527344 185.484375 C 323.015625 189.816406 327.125 192.695312 331.703125 192.617188 C 331.703125 192.617188 388.046875 191.632812 388.046875 191.632812 C 395.207031 191.507812 400.167969 184.445312 397.863281 177.667969 C 397.863281 177.667969 373.546875 117.808594 373.546875 117.808594 C 372.070312 113.464844 367.953125 110.570312 363.363281 110.652344 Z M 363.363281 110.652344 " fill-opacity="1" fill-rule="nonzero"/><path fill="#15130d" d="M 249.855469 232.039062 C 249.855469 232.039062 241.714844 232.179688 241.714844 232.179688 C 240.402344 232.203125 239.316406 231.15625 239.292969 229.839844 C 239.269531 228.527344 240.316406 227.441406 241.632812 227.417969 C 241.632812 227.417969 249.773438 227.277344 249.773438 227.277344 C 251.085938 227.253906 252.171875 228.300781 252.195312 229.617188 C 252.21875 230.929688 251.171875 232.015625 249.855469 232.039062 Z M 249.855469 232.039062 " fill-opacity="1" fill-rule="nonzero"/><path fill="#9dc7e2" d="M 286.265625 180.285156 C 286.265625 180.285156 267.574219 125.230469 267.574219 125.230469 C 266.113281 120.859375 261.984375 117.941406 257.375 118.019531 C 257.375 118.019531 232.722656 118.449219 232.722656 118.449219 C 226.890625 118.554688 222.242188 123.367188 222.347656 129.199219 C 222.347656 129.199219 223.402344 184.5625 223.402344 184.5625 C 223.503906 190.394531 228.316406 195.035156 234.144531 194.933594 C 234.144531 194.933594 276.433594 194.195312 276.433594 194.195312 C 283.566406 194.070312 288.527344 187.054688 286.265625 180.285156 Z M 286.265625 180.285156 " fill-opacity="1" fill-rule="nonzero"/><path fill="#fffeff" d="M 271.320312 226.164062 C 271.320312 226.164062 294.207031 192.199219 294.207031 192.199219 C 294.207031 192.199219 290.46875 184.941406 290.46875 184.941406 C 290.46875 184.941406 271.09375 210.449219 271.09375 210.449219 C 271.09375 210.449219 271.320312 226.164062 271.320312 226.164062 Z M 271.320312 226.164062 " fill-opacity="0.3" fill-rule="nonzero"/><path fill="#fffeff" d="M 392.589844 212.066406 C 392.589844 212.066406 403.570312 167.792969 403.570312 167.792969 C 403.570312 167.792969 404.96875 168.902344 403.902344 168.800781 C 403.238281 168.734375 403.027344 167.65625 403.027344 167.65625 C 403.027344 167.65625 392.300781 211.839844 392.300781 211.839844 C 392.300781 211.839844 391.097656 210.808594 391.898438 212.113281 C 392.699219 213.421875 392.589844 212.066406 392.589844 212.066406 Z M 392.589844 212.066406 " fill-opacity="0.3" fill-rule="nonzero"/><path fill="#fffeff" d="M 383.542969 215.464844 C 385.085938 213.125 409.609375 174.863281 409.609375 174.863281 C 409.609375 174.863281 408.042969 172.910156 407.957031 172.8125 C 407.941406 172.792969 380.65625 212.472656 380.851562 212.730469 C 381.289062 213.308594 382.203125 214.402344 383.542969 215.464844 Z M 383.542969 215.464844 " fill-opacity="0.3" fill-rule="nonzero"/><path fill="#15130d" d="M 291.464844 251.957031 C 291.464844 251.957031 229.246094 253.042969 229.246094 253.042969 C 221.378906 253.179688 214.871094 246.894531 214.734375 239.027344 C 214.734375 239.027344 212.699219 122.550781 212.699219 122.550781 C 212.632812 118.734375 214.058594 115.121094 216.71875 112.375 C 219.363281 109.644531 222.910156 108.105469 226.710938 108.039062 C 226.710938 108.039062 226.761719 108.039062 226.761719 108.039062 C 226.761719 108.039062 263.160156 107.523438 263.160156 107.523438 C 269.449219 107.433594 274.980469 111.390625 276.929688 117.371094 C 276.929688 117.371094 304.226562 201.277344 304.226562 201.277344 C 304.664062 202.625 304.898438 204.023438 304.921875 205.441406 C 304.921875 205.441406 305.480469 237.445312 305.480469 237.445312 C 305.617188 245.308594 299.332031 251.820312 291.464844 251.957031 Z M 226.730469 109.011719 C 223.1875 109.074219 219.882812 110.507812 217.414062 113.054688 C 214.9375 115.609375 213.609375 118.976562 213.671875 122.535156 C 213.671875 122.535156 215.703125 239.011719 215.703125 239.011719 C 215.832031 246.339844 221.898438 252.199219 229.226562 252.070312 C 229.226562 252.070312 291.449219 250.984375 291.449219 250.984375 C 298.777344 250.855469 304.636719 244.789062 304.507812 237.460938 C 304.507812 237.460938 303.949219 205.457031 303.949219 205.457031 C 303.925781 204.136719 303.707031 202.832031 303.300781 201.578125 C 303.300781 201.578125 276.003906 117.671875 276.003906 117.671875 C 274.191406 112.101562 269.035156 108.410156 263.175781 108.496094 C 263.175781 108.496094 226.773438 109.011719 226.773438 109.011719 C 226.773438 109.011719 226.730469 109.011719 226.730469 109.011719 Z M 226.730469 109.011719 " fill-opacity="0.3" fill-rule="nonzero"/><path fill="#e74c2f" d="M 89.316406 169.621094 C 89.316406 169.621094 102.792969 169.386719 102.792969 169.386719 C 102.792969 169.386719 102.554688 155.910156 102.554688 155.910156 C 102.554688 155.910156 123.335938 155.546875 123.335938 155.546875 C 123.335938 155.546875 123.574219 169.023438 123.574219 169.023438 C 123.574219 169.023438 137.050781 168.789062 137.050781 168.789062 C 137.050781 168.789062 137.410156 189.570312 137.410156 189.570312 C 137.410156 189.570312 123.9375 189.804688 123.9375 189.804688 C 123.9375 189.804688 124.171875 203.28125 124.171875 203.28125 C 124.171875 203.28125 103.390625 203.644531 103.390625 203.644531 C 103.390625 203.644531 103.152344 190.167969 103.152344 190.167969 C 103.152344 190.167969 89.675781 190.402344 89.675781 190.402344 C 89.675781 190.402344 89.316406 169.621094 89.316406 169.621094 Z M 89.316406 169.621094 " fill-opacity="1" fill-rule="nonzero"/><path fill="#15130d" d="M 442.460938 244.011719 C 442.460938 244.011719 400.660156 244.742188 400.660156 244.742188 C 400.660156 244.742188 400.644531 243.769531 400.644531 243.769531 C 400.644531 243.769531 442.445312 243.039062 442.445312 243.039062 C 442.445312 243.039062 442.460938 244.011719 442.460938 244.011719 Z M 442.460938 244.011719 " fill-opacity="0.3" fill-rule="nonzero"/><path fill="#15130d" d="M 442.601562 251.988281 C 442.601562 251.988281 400.800781 252.71875 400.800781 252.71875 C 400.800781 252.71875 400.785156 251.746094 400.785156 251.746094 C 400.785156 251.746094 442.585938 251.015625 442.585938 251.015625 C 442.585938 251.015625 442.601562 251.988281 442.601562 251.988281 Z M 442.601562 251.988281 " fill-opacity="0.3" fill-rule="nonzero"/><path fill="#15130d" d="M 442.742188 259.964844 C 442.742188 259.964844 400.941406 260.695312 400.941406 260.695312 C 400.941406 260.695312 400.921875 259.722656 400.921875 259.722656 C 400.921875 259.722656 442.722656 258.992188 442.722656 258.992188 C 442.722656 258.992188 442.742188 259.964844 442.742188 259.964844 Z M 442.742188 259.964844 " fill-opacity="0.3" fill-rule="nonzero"/><path fill="#15130d" d="M 442.878906 267.941406 C 442.878906 267.941406 401.078125 268.671875 401.078125 268.671875 C 401.078125 268.671875 401.0625 267.699219 401.0625 267.699219 C 401.0625 267.699219 442.863281 266.96875 442.863281 266.96875 C 442.863281 266.96875 442.878906 267.941406 442.878906 267.941406 Z M 442.878906 267.941406 " fill-opacity="0.3" fill-rule="nonzero"/><path fill="#e74c2f" d="M 19.011719 315.644531 C 19.011719 315.644531 472.371094 307.734375 472.371094 307.734375 C 473.53125 307.710938 474.453125 306.757812 474.433594 305.597656 C 474.433594 305.597656 474.066406 284.59375 474.066406 284.59375 C 474.066406 284.59375 16.46875 292.582031 16.46875 292.582031 C 16.46875 292.582031 16.835938 313.542969 16.835938 313.542969 C 16.855469 314.726562 17.828125 315.667969 19.011719 315.644531 Z M 19.011719 315.644531 " fill-opacity="1" fill-rule="nonzero"/><path fill="#fffeff" d="M 358.148438 309.726562 C 358.148438 309.726562 470.78125 307.761719 470.78125 307.761719 C 472.816406 307.726562 474.4375 306.046875 474.402344 304.007812 C 474.402344 304.007812 474.066406 284.59375 474.066406 284.59375 C 474.066406 284.59375 357.742188 286.625 357.742188 286.625 C 357.742188 286.625 358.148438 309.726562 358.148438 309.726562 Z M 358.148438 309.726562 " fill-opacity="0.2" fill-rule="nonzero"/><path fill="#15130d" d="M 446.875 236.011719 C 446.996094 242.996094 452.757812 248.558594 459.742188 248.4375 C 466.726562 248.316406 472.289062 242.554688 472.167969 235.570312 C 472.046875 228.585938 466.285156 223.023438 459.300781 223.144531 C 452.316406 223.265625 446.753906 229.027344 446.875 236.011719 Z M 446.875 236.011719 " fill-opacity="0.5" fill-rule="nonzero"/><path fill="#15130d" d="M 365.34375 237.433594 C 365.46875 244.417969 371.226562 249.984375 378.210938 249.859375 C 385.199219 249.738281 390.761719 243.976562 390.636719 236.992188 C 390.515625 230.007812 384.753906 224.445312 377.769531 224.566406 C 370.785156 224.6875 365.222656 230.449219 365.34375 237.433594 Z M 365.34375 237.433594 " fill-opacity="0.5" fill-rule="nonzero"/><path fill="#fffeff" d="M 450.777344 235.945312 C 450.859375 240.773438 454.84375 244.621094 459.675781 244.535156 C 464.503906 244.453125 468.351562 240.46875 468.265625 235.636719 C 468.183594 230.808594 464.199219 226.960938 459.367188 227.046875 C 454.539062 227.128906 450.691406 231.113281 450.777344 235.945312 Z M 450.777344 235.945312 " fill-opacity="1" fill-rule="nonzero"/><path fill="#fffeff" d="M 369.246094 237.367188 C 369.332031 242.195312 373.316406 246.042969 378.144531 245.960938 C 382.972656 245.875 386.820312 241.890625 386.738281 237.0625 C 386.652344 232.230469 382.667969 228.386719 377.839844 228.46875 C 373.007812 228.554688 369.164062 232.539062 369.246094 237.367188 Z M 369.246094 237.367188 " fill-opacity="1" fill-rule="nonzero"/><path fill="#e74c2f" d="M 15.914062 260.855469 C 15.914062 260.855469 15.988281 265.023438 15.988281 265.023438 C 15.988281 265.023438 357.003906 259.070312 357.003906 259.070312 C 357.003906 259.070312 356.992188 258.480469 356.992188 258.480469 C 356.992188 258.480469 15.914062 260.855469 15.914062 260.855469 Z M 15.914062 260.855469 " fill-opacity="1" fill-rule="nonzero"/><path fill="#15130d" d="M 445.261719 298.320312 C 445.261719 298.320312 399.933594 299.113281 399.933594 299.113281 C 398.476562 299.136719 397.277344 297.980469 397.25 296.523438 C 397.25 296.523438 396.976562 280.878906 396.976562 280.878906 C 396.953125 279.425781 398.113281 278.226562 399.566406 278.199219 C 399.566406 278.199219 444.898438 277.40625 444.898438 277.40625 C 446.351562 277.382812 447.554688 278.542969 447.578125 279.996094 C 447.578125 279.996094 447.851562 295.640625 447.851562 295.640625 C 447.878906 297.09375 446.71875 298.296875 445.261719 298.320312 Z M 445.261719 298.320312 " fill-opacity="1" fill-rule="nonzero"/><path fill="#fffeff" d="M 445.261719 298.320312 C 445.261719 298.320312 399.933594 299.113281 399.933594 299.113281 C 398.476562 299.136719 397.277344 297.980469 397.25 296.523438 C 397.25 296.523438 396.976562 280.878906 396.976562 280.878906 C 396.953125 279.425781 398.113281 278.226562 399.566406 278.199219 C 399.566406 278.199219 444.898438 277.40625 444.898438 277.40625 C 446.351562 277.382812 447.554688 278.542969 447.578125 279.996094 C 447.578125 279.996094 447.851562 295.640625 447.851562 295.640625 C 447.878906 297.09375 446.71875 298.296875 445.261719 298.320312 Z M 445.261719 298.320312 " fill-opacity="0.3" fill-rule="nonzero"/><path fill="#15130d" d="M 357.660156 309.742188 C 357.660156 309.742188 355.296875 232.929688 355.296875 232.929688 C 355.023438 224.085938 350.421875 215.9375 342.988281 211.132812 C 342.988281 211.132812 320.902344 196.871094 320.902344 196.871094 C 318.164062 195.105469 316.109375 192.5625 314.957031 189.519531 C 314.957031 189.519531 279.996094 97.222656 279.996094 97.222656 C 279.996094 97.222656 280.90625 96.878906 280.90625 96.878906 C 280.90625 96.878906 315.867188 189.171875 315.867188 189.171875 C 316.945312 192.023438 318.871094 194.402344 321.429688 196.054688 C 321.429688 196.054688 343.515625 210.316406 343.515625 210.316406 C 351.21875 215.292969 355.984375 223.734375 356.269531 232.902344 C 356.269531 232.902344 358.632812 309.710938 358.632812 309.710938 C 358.632812 309.710938 357.660156 309.742188 357.660156 309.742188 Z M 357.660156 309.742188 " fill-opacity="1" fill-rule="nonzero"/><path fill="#15130d" d="M 249.839844 97.585938 C 249.839844 97.585938 290.050781 96.882812 290.050781 96.882812 C 290.050781 96.882812 289.929688 89.925781 289.929688 89.925781 C 289.910156 88.683594 288.886719 87.695312 287.644531 87.71875 C 287.644531 87.71875 251.925781 88.339844 251.925781 88.339844 C 250.6875 88.363281 249.699219 89.386719 249.71875 90.628906 C 249.71875 90.628906 249.839844 97.585938 249.839844 97.585938 Z M 249.839844 97.585938 " fill-opacity="1" fill-rule="nonzero"/><path fill="#fffeff" d="M 249.839844 97.585938 C 249.839844 97.585938 290.050781 96.882812 290.050781 96.882812 C 290.050781 96.882812 289.929688 89.925781 289.929688 89.925781 C 289.910156 88.683594 288.886719 87.695312 287.644531 87.71875 C 287.644531 87.71875 251.925781 88.339844 251.925781 88.339844 C 250.6875 88.363281 249.699219 89.386719 249.71875 90.628906 C 249.71875 90.628906 249.839844 97.585938 249.839844 97.585938 Z M 249.839844 97.585938 " fill-opacity="0.2" fill-rule="nonzero"/><path fill="#15130d" d="M 49.730469 309.316406 C 49.730469 327.171875 64.96875 341.648438 83.761719 341.648438 C 102.558594 341.648438 117.792969 327.171875 117.792969 309.316406 C 117.792969 291.460938 102.558594 276.988281 83.761719 276.988281 C 64.96875 276.988281 49.730469 291.460938 49.730469 309.316406 Z M 49.730469 309.316406 " fill-opacity="1" fill-rule="nonzero"/><path fill="#fffeff" d="M 64.265625 309.316406 C 64.265625 319.546875 72.996094 327.839844 83.761719 327.839844 C 94.53125 327.839844 103.261719 319.546875 103.261719 309.316406 C 103.261719 299.089844 94.53125 290.796875 83.761719 290.796875 C 72.996094 290.796875 64.265625 299.089844 64.265625 309.316406 Z M 64.265625 309.316406 " fill-opacity="0.5" fill-rule="nonzero"/><path fill="#15130d" d="M 222.035156 309.285156 C 222.035156 327.140625 237.273438 341.613281 256.066406 341.613281 C 274.863281 341.613281 290.097656 327.140625 290.097656 309.285156 C 290.097656 291.429688 274.863281 276.957031 256.066406 276.957031 C 237.273438 276.957031 222.035156 291.429688 222.035156 309.285156 Z M 222.035156 309.285156 " fill-opacity="1" fill-rule="nonzero"/><path fill="#fffeff" d="M 236.570312 309.285156 C 236.570312 319.515625 245.300781 327.808594 256.066406 327.808594 C 266.835938 327.808594 275.566406 319.515625 275.566406 309.285156 C 275.566406 299.054688 266.835938 290.761719 256.066406 290.761719 C 245.300781 290.761719 236.570312 299.054688 236.570312 309.285156 Z M 236.570312 309.285156 " fill-opacity="0.5" fill-rule="nonzero"/></svg>