<svg xmlns="http://www.w3.org/2000/svg" xmlns:xlink="http://www.w3.org/1999/xlink" width="198" zoomAndPan="magnify" viewBox="0 0 148.5 131.999998" height="176" preserveAspectRatio="xMidYMid meet" version="1.0"><defs><clipPath id="d390844eb0"><path d="M 16 10 L 50 10 L 50 84 L 16 84 Z M 16 10 " clip-rule="nonzero"/></clipPath><clipPath id="3b619a6e4e"><path d="M 18.695312 0.222656 L 147.613281 22.394531 L 128.863281 131.421875 L -0.0546875 109.25 Z M 18.695312 0.222656 " clip-rule="nonzero"/></clipPath><clipPath id="e446feefa4"><path d="M 18.695312 0.222656 L 147.613281 22.394531 L 128.863281 131.421875 L -0.0546875 109.25 Z M 18.695312 0.222656 " clip-rule="nonzero"/></clipPath><clipPath id="59d70527f5"><path d="M 18.695312 0.222656 L 147.613281 22.394531 L 128.863281 131.421875 L -0.0546875 109.25 Z M 18.695312 0.222656 " clip-rule="nonzero"/></clipPath><clipPath id="49e5238eda"><path d="M 79 24 L 143 24 L 143 101 L 79 101 Z M 79 24 " clip-rule="nonzero"/></clipPath><clipPath id="38f828a40f"><path d="M 18.695312 0.222656 L 147.613281 22.394531 L 128.863281 131.421875 L -0.0546875 109.25 Z M 18.695312 0.222656 " clip-rule="nonzero"/></clipPath><clipPath id="078a2a5e80"><path d="M 18.695312 0.222656 L 147.613281 22.394531 L 128.863281 131.421875 L -0.0546875 109.25 Z M 18.695312 0.222656 " clip-rule="nonzero"/></clipPath><clipPath id="222ad2ca23"><path d="M 18.695312 0.222656 L 147.613281 22.394531 L 128.863281 131.421875 L -0.0546875 109.25 Z M 18.695312 0.222656 " clip-rule="nonzero"/></clipPath><clipPath id="7762b652c4"><path d="M 81 27 L 138 27 L 138 95 L 81 95 Z M 81 27 " clip-rule="nonzero"/></clipPath><clipPath id="9baee38072"><path d="M 18.695312 0.222656 L 147.613281 22.394531 L 128.863281 131.421875 L -0.0546875 109.25 Z M 18.695312 0.222656 " clip-rule="nonzero"/></clipPath><clipPath id="a7988927a3"><path d="M 18.695312 0.222656 L 147.613281 22.394531 L 128.863281 131.421875 L -0.0546875 109.25 Z M 18.695312 0.222656 " clip-rule="nonzero"/></clipPath><clipPath id="ef75eecc23"><path d="M 18.695312 0.222656 L 147.613281 22.394531 L 128.863281 131.421875 L -0.0546875 109.25 Z M 18.695312 0.222656 " clip-rule="nonzero"/></clipPath><clipPath id="74d18e1d35"><path d="M 51 8 L 97 8 L 97 89 L 51 89 Z M 51 8 " clip-rule="nonzero"/></clipPath><clipPath id="83bd0f3585"><path d="M 18.695312 0.222656 L 147.613281 22.394531 L 128.863281 131.421875 L -0.0546875 109.25 Z M 18.695312 0.222656 " clip-rule="nonzero"/></clipPath><clipPath id="6e41796ce8"><path d="M 18.695312 0.222656 L 147.613281 22.394531 L 128.863281 131.421875 L -0.0546875 109.25 Z M 18.695312 0.222656 " clip-rule="nonzero"/></clipPath><clipPath id="666c7272a0"><path d="M 18.695312 0.222656 L 147.613281 22.394531 L 128.863281 131.421875 L -0.0546875 109.25 Z M 18.695312 0.222656 " clip-rule="nonzero"/></clipPath><clipPath id="2b89462746"><path d="M 53 10 L 90 10 L 90 81 L 53 81 Z M 53 10 " clip-rule="nonzero"/></clipPath><clipPath id="74c6a03f80"><path d="M 18.695312 0.222656 L 147.613281 22.394531 L 128.863281 131.421875 L -0.0546875 109.25 Z M 18.695312 0.222656 " clip-rule="nonzero"/></clipPath><clipPath id="ae681d0fbd"><path d="M 18.695312 0.222656 L 147.613281 22.394531 L 128.863281 131.421875 L -0.0546875 109.25 Z M 18.695312 0.222656 " clip-rule="nonzero"/></clipPath><clipPath id="5db506499f"><path d="M 18.695312 0.222656 L 147.613281 22.394531 L 128.863281 131.421875 L -0.0546875 109.25 Z M 18.695312 0.222656 " clip-rule="nonzero"/></clipPath><clipPath id="8d52fda838"><path d="M 18 12 L 44 12 L 44 78 L 18 78 Z M 18 12 " clip-rule="nonzero"/></clipPath><clipPath id="c6444d4a51"><path d="M 18.695312 0.222656 L 147.613281 22.394531 L 128.863281 131.421875 L -0.0546875 109.25 Z M 18.695312 0.222656 " clip-rule="nonzero"/></clipPath><clipPath id="08baa3a4cb"><path d="M 18.695312 0.222656 L 147.613281 22.394531 L 128.863281 131.421875 L -0.0546875 109.25 Z M 18.695312 0.222656 " clip-rule="nonzero"/></clipPath><clipPath id="b5d4ea00ca"><path d="M 18.695312 0.222656 L 147.613281 22.394531 L 128.863281 131.421875 L -0.0546875 109.25 Z M 18.695312 0.222656 " clip-rule="nonzero"/></clipPath><clipPath id="13bfb8d911"><path d="M 19 85 L 44 85 L 44 111 L 19 111 Z M 19 85 " clip-rule="nonzero"/></clipPath><clipPath id="24f3cb6aee"><path d="M 18.695312 0.222656 L 147.613281 22.394531 L 128.863281 131.421875 L -0.0546875 109.25 Z M 18.695312 0.222656 " clip-rule="nonzero"/></clipPath><clipPath id="45197f3930"><path d="M 18.695312 0.222656 L 147.613281 22.394531 L 128.863281 131.421875 L -0.0546875 109.25 Z M 18.695312 0.222656 " clip-rule="nonzero"/></clipPath><clipPath id="40cd9c1a53"><path d="M 18.695312 0.222656 L 147.613281 22.394531 L 128.863281 131.421875 L -0.0546875 109.25 Z M 18.695312 0.222656 " clip-rule="nonzero"/></clipPath><clipPath id="fb356a32ce"><path d="M 44 87 L 68 87 L 68 113 L 44 113 Z M 44 87 " clip-rule="nonzero"/></clipPath><clipPath id="1abef9e95d"><path d="M 18.695312 0.222656 L 147.613281 22.394531 L 128.863281 131.421875 L -0.0546875 109.25 Z M 18.695312 0.222656 " clip-rule="nonzero"/></clipPath><clipPath id="bb2f455f28"><path d="M 18.695312 0.222656 L 147.613281 22.394531 L 128.863281 131.421875 L -0.0546875 109.25 Z M 18.695312 0.222656 " clip-rule="nonzero"/></clipPath><clipPath id="1f0fc2bef1"><path d="M 18.695312 0.222656 L 147.613281 22.394531 L 128.863281 131.421875 L -0.0546875 109.25 Z M 18.695312 0.222656 " clip-rule="nonzero"/></clipPath><clipPath id="33a2ac4fe0"><path d="M 66 96 L 90 96 L 90 122 L 66 122 Z M 66 96 " clip-rule="nonzero"/></clipPath><clipPath id="b5355f76fe"><path d="M 18.695312 0.222656 L 147.613281 22.394531 L 128.863281 131.421875 L -0.0546875 109.25 Z M 18.695312 0.222656 " clip-rule="nonzero"/></clipPath><clipPath id="3c8929a59f"><path d="M 18.695312 0.222656 L 147.613281 22.394531 L 128.863281 131.421875 L -0.0546875 109.25 Z M 18.695312 0.222656 " clip-rule="nonzero"/></clipPath><clipPath id="5d4e02d2a5"><path d="M 18.695312 0.222656 L 147.613281 22.394531 L 128.863281 131.421875 L -0.0546875 109.25 Z M 18.695312 0.222656 " clip-rule="nonzero"/></clipPath><clipPath id="102e84f925"><path d="M 21 87 L 39 87 L 39 106 L 21 106 Z M 21 87 " clip-rule="nonzero"/></clipPath><clipPath id="e954ba1ab0"><path d="M 18.695312 0.222656 L 147.613281 22.394531 L 128.863281 131.421875 L -0.0546875 109.25 Z M 18.695312 0.222656 " clip-rule="nonzero"/></clipPath><clipPath id="fe28ba31a0"><path d="M 18.695312 0.222656 L 147.613281 22.394531 L 128.863281 131.421875 L -0.0546875 109.25 Z M 18.695312 0.222656 " clip-rule="nonzero"/></clipPath><clipPath id="95dbb7d89c"><path d="M 18.695312 0.222656 L 147.613281 22.394531 L 128.863281 131.421875 L -0.0546875 109.25 Z M 18.695312 0.222656 " clip-rule="nonzero"/></clipPath><clipPath id="a34ec46410"><path d="M 46 89 L 64 89 L 64 108 L 46 108 Z M 46 89 " clip-rule="nonzero"/></clipPath><clipPath id="8daf6786b6"><path d="M 18.695312 0.222656 L 147.613281 22.394531 L 128.863281 131.421875 L -0.0546875 109.25 Z M 18.695312 0.222656 " clip-rule="nonzero"/></clipPath><clipPath id="d0caf1b945"><path d="M 18.695312 0.222656 L 147.613281 22.394531 L 128.863281 131.421875 L -0.0546875 109.25 Z M 18.695312 0.222656 " clip-rule="nonzero"/></clipPath><clipPath id="b880183e8e"><path d="M 18.695312 0.222656 L 147.613281 22.394531 L 128.863281 131.421875 L -0.0546875 109.25 Z M 18.695312 0.222656 " clip-rule="nonzero"/></clipPath><clipPath id="a9e7a6ee5d"><path d="M 69 98 L 87 98 L 87 117 L 69 117 Z M 69 98 " clip-rule="nonzero"/></clipPath><clipPath id="091fbc72cc"><path d="M 18.695312 0.222656 L 147.613281 22.394531 L 128.863281 131.421875 L -0.0546875 109.25 Z M 18.695312 0.222656 " clip-rule="nonzero"/></clipPath><clipPath id="d043b7042d"><path d="M 18.695312 0.222656 L 147.613281 22.394531 L 128.863281 131.421875 L -0.0546875 109.25 Z M 18.695312 0.222656 " clip-rule="nonzero"/></clipPath><clipPath id="ae34cadd0d"><path d="M 18.695312 0.222656 L 147.613281 22.394531 L 128.863281 131.421875 L -0.0546875 109.25 Z M 18.695312 0.222656 " clip-rule="nonzero"/></clipPath><clipPath id="fd0848e402"><path d="M 16 10 L 50 10 L 50 84 L 16 84 Z M 16 10 " clip-rule="nonzero"/></clipPath><clipPath id="22d387175b"><path d="M 18.695312 0.222656 L 147.613281 22.394531 L 128.863281 131.421875 L -0.0546875 109.25 Z M 18.695312 0.222656 " clip-rule="nonzero"/></clipPath><clipPath id="8cd05eb75f"><path d="M 18.695312 0.222656 L 147.613281 22.394531 L 128.863281 131.421875 L -0.0546875 109.25 Z M 18.695312 0.222656 " clip-rule="nonzero"/></clipPath><clipPath id="30af33fcf4"><path d="M 18.695312 0.222656 L 147.613281 22.394531 L 128.863281 131.421875 L -0.0546875 109.25 Z M 18.695312 0.222656 " clip-rule="nonzero"/></clipPath><clipPath id="f8e573a38f"><path d="M 79 24 L 143 24 L 143 101 L 79 101 Z M 79 24 " clip-rule="nonzero"/></clipPath><clipPath id="a552ade00e"><path d="M 18.695312 0.222656 L 147.613281 22.394531 L 128.863281 131.421875 L -0.0546875 109.25 Z M 18.695312 0.222656 " clip-rule="nonzero"/></clipPath><clipPath id="60f864821c"><path d="M 18.695312 0.222656 L 147.613281 22.394531 L 128.863281 131.421875 L -0.0546875 109.25 Z M 18.695312 0.222656 " clip-rule="nonzero"/></clipPath><clipPath id="fa65eac421"><path d="M 18.695312 0.222656 L 147.613281 22.394531 L 128.863281 131.421875 L -0.0546875 109.25 Z M 18.695312 0.222656 " clip-rule="nonzero"/></clipPath><clipPath id="0968efc096"><path d="M 81 27 L 138 27 L 138 95 L 81 95 Z M 81 27 " clip-rule="nonzero"/></clipPath><clipPath id="68aa110667"><path d="M 18.695312 0.222656 L 147.613281 22.394531 L 128.863281 131.421875 L -0.0546875 109.25 Z M 18.695312 0.222656 " clip-rule="nonzero"/></clipPath><clipPath id="9c5277a02b"><path d="M 18.695312 0.222656 L 147.613281 22.394531 L 128.863281 131.421875 L -0.0546875 109.25 Z M 18.695312 0.222656 " clip-rule="nonzero"/></clipPath><clipPath id="afe6c14e16"><path d="M 18.695312 0.222656 L 147.613281 22.394531 L 128.863281 131.421875 L -0.0546875 109.25 Z M 18.695312 0.222656 " clip-rule="nonzero"/></clipPath><clipPath id="a06b458ed6"><path d="M 51 8 L 97 8 L 97 89 L 51 89 Z M 51 8 " clip-rule="nonzero"/></clipPath><clipPath id="57eca5e327"><path d="M 18.695312 0.222656 L 147.613281 22.394531 L 128.863281 131.421875 L -0.0546875 109.25 Z M 18.695312 0.222656 " clip-rule="nonzero"/></clipPath><clipPath id="f4759b219b"><path d="M 18.695312 0.222656 L 147.613281 22.394531 L 128.863281 131.421875 L -0.0546875 109.25 Z M 18.695312 0.222656 " clip-rule="nonzero"/></clipPath><clipPath id="3f27486b6c"><path d="M 18.695312 0.222656 L 147.613281 22.394531 L 128.863281 131.421875 L -0.0546875 109.25 Z M 18.695312 0.222656 " clip-rule="nonzero"/></clipPath><clipPath id="f4d1e94adf"><path d="M 53 10 L 90 10 L 90 81 L 53 81 Z M 53 10 " clip-rule="nonzero"/></clipPath><clipPath id="7d81986437"><path d="M 18.695312 0.222656 L 147.613281 22.394531 L 128.863281 131.421875 L -0.0546875 109.25 Z M 18.695312 0.222656 " clip-rule="nonzero"/></clipPath><clipPath id="b1defaa53f"><path d="M 18.695312 0.222656 L 147.613281 22.394531 L 128.863281 131.421875 L -0.0546875 109.25 Z M 18.695312 0.222656 " clip-rule="nonzero"/></clipPath><clipPath id="d50777d1b5"><path d="M 18.695312 0.222656 L 147.613281 22.394531 L 128.863281 131.421875 L -0.0546875 109.25 Z M 18.695312 0.222656 " clip-rule="nonzero"/></clipPath><clipPath id="1a671bbff8"><path d="M 18 12 L 44 12 L 44 78 L 18 78 Z M 18 12 " clip-rule="nonzero"/></clipPath><clipPath id="25755e5395"><path d="M 18.695312 0.222656 L 147.613281 22.394531 L 128.863281 131.421875 L -0.0546875 109.25 Z M 18.695312 0.222656 " clip-rule="nonzero"/></clipPath><clipPath id="939dc41358"><path d="M 18.695312 0.222656 L 147.613281 22.394531 L 128.863281 131.421875 L -0.0546875 109.25 Z M 18.695312 0.222656 " clip-rule="nonzero"/></clipPath><clipPath id="b2693f6b99"><path d="M 18.695312 0.222656 L 147.613281 22.394531 L 128.863281 131.421875 L -0.0546875 109.25 Z M 18.695312 0.222656 " clip-rule="nonzero"/></clipPath><clipPath id="e77e16e961"><path d="M 19 85 L 44 85 L 44 111 L 19 111 Z M 19 85 " clip-rule="nonzero"/></clipPath><clipPath id="75239ca714"><path d="M 18.695312 0.222656 L 147.613281 22.394531 L 128.863281 131.421875 L -0.0546875 109.25 Z M 18.695312 0.222656 " clip-rule="nonzero"/></clipPath><clipPath id="2074b82cf6"><path d="M 18.695312 0.222656 L 147.613281 22.394531 L 128.863281 131.421875 L -0.0546875 109.25 Z M 18.695312 0.222656 " clip-rule="nonzero"/></clipPath><clipPath id="e388a8480e"><path d="M 18.695312 0.222656 L 147.613281 22.394531 L 128.863281 131.421875 L -0.0546875 109.25 Z M 18.695312 0.222656 " clip-rule="nonzero"/></clipPath><clipPath id="a27b48221a"><path d="M 44 87 L 68 87 L 68 113 L 44 113 Z M 44 87 " clip-rule="nonzero"/></clipPath><clipPath id="32a00b9017"><path d="M 18.695312 0.222656 L 147.613281 22.394531 L 128.863281 131.421875 L -0.0546875 109.25 Z M 18.695312 0.222656 " clip-rule="nonzero"/></clipPath><clipPath id="78d57a34de"><path d="M 18.695312 0.222656 L 147.613281 22.394531 L 128.863281 131.421875 L -0.0546875 109.25 Z M 18.695312 0.222656 " clip-rule="nonzero"/></clipPath><clipPath id="dbea4898b3"><path d="M 18.695312 0.222656 L 147.613281 22.394531 L 128.863281 131.421875 L -0.0546875 109.25 Z M 18.695312 0.222656 " clip-rule="nonzero"/></clipPath><clipPath id="e9a599434a"><path d="M 66 96 L 90 96 L 90 122 L 66 122 Z M 66 96 " clip-rule="nonzero"/></clipPath><clipPath id="c69011a897"><path d="M 18.695312 0.222656 L 147.613281 22.394531 L 128.863281 131.421875 L -0.0546875 109.25 Z M 18.695312 0.222656 " clip-rule="nonzero"/></clipPath><clipPath id="7203543005"><path d="M 18.695312 0.222656 L 147.613281 22.394531 L 128.863281 131.421875 L -0.0546875 109.25 Z M 18.695312 0.222656 " clip-rule="nonzero"/></clipPath><clipPath id="6edd32d8a8"><path d="M 18.695312 0.222656 L 147.613281 22.394531 L 128.863281 131.421875 L -0.0546875 109.25 Z M 18.695312 0.222656 " clip-rule="nonzero"/></clipPath><clipPath id="3152e78fbd"><path d="M 21 87 L 39 87 L 39 106 L 21 106 Z M 21 87 " clip-rule="nonzero"/></clipPath><clipPath id="4bf325f005"><path d="M 18.695312 0.222656 L 147.613281 22.394531 L 128.863281 131.421875 L -0.0546875 109.25 Z M 18.695312 0.222656 " clip-rule="nonzero"/></clipPath><clipPath id="696f8069dd"><path d="M 18.695312 0.222656 L 147.613281 22.394531 L 128.863281 131.421875 L -0.0546875 109.25 Z M 18.695312 0.222656 " clip-rule="nonzero"/></clipPath><clipPath id="063415ce70"><path d="M 18.695312 0.222656 L 147.613281 22.394531 L 128.863281 131.421875 L -0.0546875 109.25 Z M 18.695312 0.222656 " clip-rule="nonzero"/></clipPath><clipPath id="4cc6076a1e"><path d="M 46 89 L 64 89 L 64 108 L 46 108 Z M 46 89 " clip-rule="nonzero"/></clipPath><clipPath id="9914a24f7c"><path d="M 18.695312 0.222656 L 147.613281 22.394531 L 128.863281 131.421875 L -0.0546875 109.25 Z M 18.695312 0.222656 " clip-rule="nonzero"/></clipPath><clipPath id="7635ff1de5"><path d="M 18.695312 0.222656 L 147.613281 22.394531 L 128.863281 131.421875 L -0.0546875 109.25 Z M 18.695312 0.222656 " clip-rule="nonzero"/></clipPath><clipPath id="c06bb40eb4"><path d="M 18.695312 0.222656 L 147.613281 22.394531 L 128.863281 131.421875 L -0.0546875 109.25 Z M 18.695312 0.222656 " clip-rule="nonzero"/></clipPath><clipPath id="50f72aa61b"><path d="M 69 98 L 87 98 L 87 117 L 69 117 Z M 69 98 " clip-rule="nonzero"/></clipPath><clipPath id="97fb3a4dc8"><path d="M 18.695312 0.222656 L 147.613281 22.394531 L 128.863281 131.421875 L -0.0546875 109.25 Z M 18.695312 0.222656 " clip-rule="nonzero"/></clipPath><clipPath id="cf574d46e4"><path d="M 18.695312 0.222656 L 147.613281 22.394531 L 128.863281 131.421875 L -0.0546875 109.25 Z M 18.695312 0.222656 " clip-rule="nonzero"/></clipPath><clipPath id="9f1d48db9c"><path d="M 18.695312 0.222656 L 147.613281 22.394531 L 128.863281 131.421875 L -0.0546875 109.25 Z M 18.695312 0.222656 " clip-rule="nonzero"/></clipPath></defs><g clip-path="url(#d390844eb0)"><g clip-path="url(#3b619a6e4e)"><g clip-path="url(#e446feefa4)"><g clip-path="url(#59d70527f5)"><path fill="#0a0403" d="M 49.546875 19.378906 C 50.070312 15.40625 50.550781 15.511719 47.554688 12.855469 C 47.070312 12.425781 46.394531 11.84375 45.878906 11.433594 C 43.890625 9.84375 44.347656 10.378906 41.386719 10.566406 C 36.753906 10.863281 18.359375 11.640625 16.558594 12.640625 C 16.339844 13.941406 19.503906 45.238281 19.980469 48.898438 C 20.90625 56.027344 21.8125 66.972656 22.613281 74.835938 C 22.988281 78.5 22.613281 78.375 24.09375 79.972656 L 27.183594 83.878906 L 41.921875 83.234375 C 44.847656 62.15625 46.742188 40.59375 49.546875 19.378906 Z M 49.546875 19.378906 " fill-opacity="1" fill-rule="evenodd"/></g></g></g></g><g clip-path="url(#49e5238eda)"><g clip-path="url(#38f828a40f)"><g clip-path="url(#078a2a5e80)"><g clip-path="url(#222ad2ca23)"><path fill="#0a0403" d="M 79.996094 86.585938 C 79.308594 87.808594 79.1875 87.570312 79.644531 88.78125 C 80.417969 90.820312 80.96875 92.730469 82.914062 93.953125 C 84.101562 94.699219 85.472656 95.527344 86.6875 96.320312 C 94.921875 101.695312 94.769531 101.515625 98.234375 97.414062 C 104.769531 89.6875 110.972656 82.71875 115.898438 76.746094 L 126.867188 63.75 C 130.996094 58.65625 135.320312 53.894531 139.449219 48.824219 C 143.585938 43.75 143.621094 45.597656 140.300781 38.613281 C 139.738281 37.429688 139.636719 37.683594 138.394531 36.96875 L 115.632812 24.164062 C 115.550781 24.234375 115.472656 24.316406 115.402344 24.402344 C 113.566406 26.6875 96.824219 57.25 93.789062 61.984375 C 89.371094 69.316406 84.71875 78.171875 79.996094 86.585938 Z M 79.996094 86.585938 " fill-opacity="1" fill-rule="evenodd"/></g></g></g></g><g clip-path="url(#7762b652c4)"><g clip-path="url(#9baee38072)"><g clip-path="url(#a7988927a3)"><g clip-path="url(#ef75eecc23)"><path fill="#ea1e15" d="M 81.867188 87.390625 L 93.375 94.46875 C 93.929688 93.398438 97.847656 89.085938 98.96875 87.636719 C 99.855469 86.488281 100.796875 85.328125 101.75 84.183594 L 104.578125 80.792969 C 108.324219 76.421875 111.96875 71.589844 115.765625 67.050781 C 117.703125 64.734375 119.496094 62.527344 121.355469 60.183594 C 123.285156 57.753906 124.859375 55.332031 126.800781 53.097656 L 137.828125 39.082031 L 116.445312 27.082031 C 115.628906 27.914062 109.011719 40 107.871094 42.003906 C 104.980469 47.09375 102.070312 52.027344 99.1875 57.179688 C 94.949219 64.746094 90.300781 72.460938 86.253906 79.8125 C 84.902344 82.265625 83.050781 84.878906 81.867188 87.390625 Z M 81.867188 87.390625 " fill-opacity="1" fill-rule="evenodd"/></g></g></g></g><g clip-path="url(#74d18e1d35)"><g clip-path="url(#83bd0f3585)"><g clip-path="url(#6e41796ce8)"><g clip-path="url(#666c7272a0)"><path fill="#0a0403" d="M 51.605469 77.589844 C 51.453125 78.492188 51.152344 79.457031 51.449219 80.109375 L 53.230469 83.699219 C 53.628906 84.628906 53.621094 84.585938 54.894531 84.914062 C 56.640625 85.359375 58.300781 85.679688 60.035156 86.136719 C 62.21875 86.707031 68.304688 88.910156 70.082031 88.035156 C 77.792969 65.039062 87.449219 41.769531 96.039062 18.945312 C 96.230469 18.351562 92.566406 13.21875 90.851562 12.796875 C 88.949219 12.332031 63.691406 8.074219 63.160156 8.269531 C 62.058594 8.679688 62.027344 12.414062 61.839844 13.636719 C 58.574219 34.96875 55.105469 56.507812 51.605469 77.589844 Z M 51.605469 77.589844 " fill-opacity="1" fill-rule="evenodd"/></g></g></g></g><g clip-path="url(#2b89462746)"><g clip-path="url(#74c6a03f80)"><g clip-path="url(#ae681d0fbd)"><g clip-path="url(#5db506499f)"><path fill="#ea1e15" d="M 53.570312 78.1875 C 54.976562 78.671875 65.300781 81.070312 65.96875 80.84375 C 66.683594 80.128906 76.859375 51.304688 77.992188 47.898438 C 79.871094 42.257812 81.992188 36.808594 83.773438 31.269531 C 84.617188 28.652344 85.703125 25.609375 86.722656 23 C 87.398438 21.265625 89.351562 16.363281 89.671875 14.851562 L 64.480469 10.519531 Z M 53.570312 78.1875 " fill-opacity="1" fill-rule="evenodd"/></g></g></g></g><g clip-path="url(#8d52fda838)"><g clip-path="url(#c6444d4a51)"><g clip-path="url(#08baa3a4cb)"><g clip-path="url(#b5d4ea00ca)"><path fill="#ea1e15" d="M 18.75 14.335938 C 20.125 29.925781 21.914062 46 23.355469 61.648438 C 23.605469 64.359375 24.402344 75.582031 25.078125 77.351562 L 37.257812 77.140625 C 38.8125 56.09375 40.492188 33.375 43.472656 12.597656 Z M 18.75 14.335938 " fill-opacity="1" fill-rule="evenodd"/></g></g></g></g><g clip-path="url(#13bfb8d911)"><g clip-path="url(#24f3cb6aee)"><g clip-path="url(#45197f3930)"><g clip-path="url(#40cd9c1a53)"><path fill="#0a0403" d="M 30.992188 85.328125 C 22.582031 84.832031 16.949219 93.664062 21.117188 102.429688 C 22.109375 104.519531 23.632812 105.265625 24.53125 106.554688 C 24.941406 107.144531 24.628906 106.871094 25.160156 107.410156 C 28.769531 111.054688 36.402344 111.203125 40.539062 106.820312 C 44.101562 103.042969 44.308594 96.398438 41.75 93.191406 C 40.238281 91.296875 40.578125 91.023438 39.328125 89.671875 C 37.214844 87.386719 34.988281 85.566406 30.992188 85.328125 Z M 30.992188 85.328125 " fill-opacity="1" fill-rule="evenodd"/></g></g></g></g><g clip-path="url(#fb356a32ce)"><g clip-path="url(#1abef9e95d)"><g clip-path="url(#bb2f455f28)"><g clip-path="url(#1f0fc2bef1)"><path fill="#0a0403" d="M 54.484375 87.601562 C 45.023438 87.972656 41.875 99.433594 46.128906 105.199219 C 46.339844 105.480469 46.519531 105.761719 46.71875 106.101562 L 48.550781 108.714844 C 51.75 112.964844 57.050781 113.511719 61.769531 111.378906 C 62.898438 110.867188 64.355469 109.613281 65.113281 108.691406 C 67.554688 105.722656 68.921875 100.40625 66.875 96.824219 C 66.457031 96.101562 66.078125 95.761719 65.609375 95.101562 C 65.042969 94.308594 64.277344 92.691406 63.222656 91.5625 C 61.183594 89.375 58.363281 87.449219 54.484375 87.601562 Z M 54.484375 87.601562 " fill-opacity="1" fill-rule="evenodd"/></g></g></g></g><g clip-path="url(#33a2ac4fe0)"><g clip-path="url(#b5355f76fe)"><g clip-path="url(#3c8929a59f)"><g clip-path="url(#5d4e02d2a5)"><path fill="#0a0403" d="M 77.710938 96.8125 C 69.746094 96.660156 64.148438 107.496094 68.523438 114.128906 C 69.160156 115.089844 68.890625 115.789062 70.628906 117.875 C 73.332031 121.117188 79.351562 122.878906 83.707031 120.625 C 85.582031 119.65625 85.785156 119.265625 87.0625 117.957031 C 90.542969 114.390625 90.695312 108.113281 88.527344 104.410156 C 87.648438 102.914062 87.308594 102.078125 86.109375 100.882812 C 84.007812 98.785156 81.558594 96.886719 77.710938 96.8125 Z M 77.710938 96.8125 " fill-opacity="1" fill-rule="evenodd"/></g></g></g></g><g clip-path="url(#102e84f925)"><g clip-path="url(#e954ba1ab0)"><g clip-path="url(#fe28ba31a0)"><g clip-path="url(#95dbb7d89c)"><path fill="#ea1e15" d="M 29.648438 87.519531 C 21.511719 87.875 19.164062 97.726562 24.191406 102.671875 C 29.308594 107.710938 38.773438 105.382812 38.917969 95.925781 C 39.003906 90.414062 34.941406 87.289062 29.648438 87.519531 Z M 29.648438 87.519531 " fill-opacity="1" fill-rule="evenodd"/></g></g></g></g><g clip-path="url(#a34ec46410)"><g clip-path="url(#8daf6786b6)"><g clip-path="url(#d0caf1b945)"><g clip-path="url(#b880183e8e)"><path fill="#ea1e15" d="M 48.527344 92.234375 C 46.335938 94.367188 44.75 100.90625 48.890625 105.105469 C 51.15625 107.402344 55.269531 108.414062 58.582031 106.570312 C 64.664062 103.179688 64.753906 96.359375 61.144531 92.308594 C 58.226562 89.03125 51.886719 88.96875 48.527344 92.234375 Z M 48.527344 92.234375 " fill-opacity="1" fill-rule="evenodd"/></g></g></g></g><g clip-path="url(#a9e7a6ee5d)"><g clip-path="url(#091fbc72cc)"><g clip-path="url(#d043b7042d)"><g clip-path="url(#ae34cadd0d)"><path fill="#ea1e15" d="M 77.660156 98.875 C 69.359375 98.394531 65.929688 112.582031 73.453125 116.027344 C 75.535156 116.984375 80.066406 117.03125 82.15625 115.238281 C 84.476562 113.246094 85.652344 111.222656 86.039062 107.613281 C 86.199219 106.109375 85.816406 104.015625 84.929688 102.839844 C 84.613281 102.421875 84.34375 101.996094 84.003906 101.648438 C 82.578125 100.167969 80.007812 99.011719 77.660156 98.875 Z M 77.660156 98.875 " fill-opacity="1" fill-rule="evenodd"/></g></g></g></g><g clip-path="url(#fd0848e402)"><g clip-path="url(#22d387175b)"><g clip-path="url(#8cd05eb75f)"><g clip-path="url(#30af33fcf4)"><path fill="#0a0403" d="M 49.546875 19.378906 C 50.070312 15.40625 50.550781 15.511719 47.554688 12.855469 C 47.070312 12.425781 46.394531 11.84375 45.878906 11.433594 C 43.890625 9.84375 44.347656 10.378906 41.386719 10.566406 C 36.753906 10.863281 18.359375 11.640625 16.558594 12.640625 C 16.339844 13.941406 19.503906 45.238281 19.980469 48.898438 C 20.90625 56.027344 21.8125 66.972656 22.613281 74.835938 C 22.988281 78.5 22.613281 78.375 24.09375 79.972656 L 27.183594 83.878906 L 41.921875 83.234375 C 44.847656 62.15625 46.742188 40.59375 49.546875 19.378906 Z M 49.546875 19.378906 " fill-opacity="1" fill-rule="evenodd"/></g></g></g></g><g clip-path="url(#f8e573a38f)"><g clip-path="url(#a552ade00e)"><g clip-path="url(#60f864821c)"><g clip-path="url(#fa65eac421)"><path fill="#0a0403" d="M 79.996094 86.585938 C 79.308594 87.808594 79.1875 87.570312 79.644531 88.78125 C 80.417969 90.820312 80.96875 92.730469 82.914062 93.953125 C 84.101562 94.699219 85.472656 95.527344 86.6875 96.320312 C 94.921875 101.695312 94.769531 101.515625 98.234375 97.414062 C 104.769531 89.6875 110.972656 82.71875 115.898438 76.746094 L 126.867188 63.75 C 130.996094 58.65625 135.320312 53.894531 139.449219 48.824219 C 143.585938 43.75 143.621094 45.597656 140.300781 38.613281 C 139.738281 37.429688 139.636719 37.683594 138.394531 36.96875 L 115.632812 24.164062 C 115.550781 24.234375 115.472656 24.316406 115.402344 24.402344 C 113.566406 26.6875 96.824219 57.25 93.789062 61.984375 C 89.371094 69.316406 84.71875 78.171875 79.996094 86.585938 Z M 79.996094 86.585938 " fill-opacity="1" fill-rule="evenodd"/></g></g></g></g><g clip-path="url(#0968efc096)"><g clip-path="url(#68aa110667)"><g clip-path="url(#9c5277a02b)"><g clip-path="url(#afe6c14e16)"><path fill="#ea1e15" d="M 81.867188 87.390625 L 93.375 94.46875 C 93.929688 93.398438 97.847656 89.085938 98.96875 87.636719 C 99.855469 86.488281 100.796875 85.328125 101.75 84.183594 L 104.578125 80.792969 C 108.324219 76.421875 111.96875 71.589844 115.765625 67.050781 C 117.703125 64.734375 119.496094 62.527344 121.355469 60.183594 C 123.285156 57.753906 124.859375 55.332031 126.800781 53.097656 L 137.828125 39.082031 L 116.445312 27.082031 C 115.628906 27.914062 109.011719 40 107.871094 42.003906 C 104.980469 47.09375 102.070312 52.027344 99.1875 57.179688 C 94.949219 64.746094 90.300781 72.460938 86.253906 79.8125 C 84.902344 82.265625 83.050781 84.878906 81.867188 87.390625 Z M 81.867188 87.390625 " fill-opacity="1" fill-rule="evenodd"/></g></g></g></g><g clip-path="url(#a06b458ed6)"><g clip-path="url(#57eca5e327)"><g clip-path="url(#f4759b219b)"><g clip-path="url(#3f27486b6c)"><path fill="#0a0403" d="M 51.605469 77.589844 C 51.453125 78.492188 51.152344 79.457031 51.449219 80.109375 L 53.230469 83.699219 C 53.628906 84.628906 53.621094 84.585938 54.894531 84.914062 C 56.640625 85.359375 58.300781 85.679688 60.035156 86.136719 C 62.21875 86.707031 68.304688 88.910156 70.082031 88.035156 C 77.792969 65.039062 87.449219 41.769531 96.039062 18.945312 C 96.230469 18.351562 92.566406 13.21875 90.851562 12.796875 C 88.949219 12.332031 63.691406 8.074219 63.160156 8.269531 C 62.058594 8.679688 62.027344 12.414062 61.839844 13.636719 C 58.574219 34.96875 55.105469 56.507812 51.605469 77.589844 Z M 51.605469 77.589844 " fill-opacity="1" fill-rule="evenodd"/></g></g></g></g><g clip-path="url(#f4d1e94adf)"><g clip-path="url(#7d81986437)"><g clip-path="url(#b1defaa53f)"><g clip-path="url(#d50777d1b5)"><path fill="#ea1e15" d="M 53.570312 78.1875 C 54.976562 78.671875 65.300781 81.070312 65.96875 80.84375 C 66.683594 80.128906 76.859375 51.304688 77.992188 47.898438 C 79.871094 42.257812 81.992188 36.808594 83.773438 31.269531 C 84.617188 28.652344 85.703125 25.609375 86.722656 23 C 87.398438 21.265625 89.351562 16.363281 89.671875 14.851562 L 64.480469 10.519531 Z M 53.570312 78.1875 " fill-opacity="1" fill-rule="evenodd"/></g></g></g></g><g clip-path="url(#1a671bbff8)"><g clip-path="url(#25755e5395)"><g clip-path="url(#939dc41358)"><g clip-path="url(#b2693f6b99)"><path fill="#ea1e15" d="M 18.75 14.335938 C 20.125 29.925781 21.914062 46 23.355469 61.648438 C 23.605469 64.359375 24.402344 75.582031 25.078125 77.351562 L 37.257812 77.140625 C 38.8125 56.09375 40.492188 33.375 43.472656 12.597656 Z M 18.75 14.335938 " fill-opacity="1" fill-rule="evenodd"/></g></g></g></g><g clip-path="url(#e77e16e961)"><g clip-path="url(#75239ca714)"><g clip-path="url(#2074b82cf6)"><g clip-path="url(#e388a8480e)"><path fill="#0a0403" d="M 30.992188 85.328125 C 22.582031 84.832031 16.949219 93.664062 21.117188 102.429688 C 22.109375 104.519531 23.632812 105.265625 24.53125 106.554688 C 24.941406 107.144531 24.628906 106.871094 25.160156 107.410156 C 28.769531 111.054688 36.402344 111.203125 40.539062 106.820312 C 44.101562 103.042969 44.308594 96.398438 41.75 93.191406 C 40.238281 91.296875 40.578125 91.023438 39.328125 89.671875 C 37.214844 87.386719 34.988281 85.566406 30.992188 85.328125 Z M 30.992188 85.328125 " fill-opacity="1" fill-rule="evenodd"/></g></g></g></g><g clip-path="url(#a27b48221a)"><g clip-path="url(#32a00b9017)"><g clip-path="url(#78d57a34de)"><g clip-path="url(#dbea4898b3)"><path fill="#0a0403" d="M 54.484375 87.601562 C 45.023438 87.972656 41.875 99.433594 46.128906 105.199219 C 46.339844 105.480469 46.519531 105.761719 46.71875 106.101562 L 48.550781 108.714844 C 51.75 112.964844 57.050781 113.511719 61.769531 111.378906 C 62.898438 110.867188 64.355469 109.613281 65.113281 108.691406 C 67.554688 105.722656 68.921875 100.40625 66.875 96.824219 C 66.457031 96.101562 66.078125 95.761719 65.609375 95.101562 C 65.042969 94.308594 64.277344 92.691406 63.222656 91.5625 C 61.183594 89.375 58.363281 87.449219 54.484375 87.601562 Z M 54.484375 87.601562 " fill-opacity="1" fill-rule="evenodd"/></g></g></g></g><g clip-path="url(#e9a599434a)"><g clip-path="url(#c69011a897)"><g clip-path="url(#7203543005)"><g clip-path="url(#6edd32d8a8)"><path fill="#0a0403" d="M 77.710938 96.8125 C 69.746094 96.660156 64.148438 107.496094 68.523438 114.128906 C 69.160156 115.089844 68.890625 115.789062 70.628906 117.875 C 73.332031 121.117188 79.351562 122.878906 83.707031 120.625 C 85.582031 119.65625 85.785156 119.265625 87.0625 117.957031 C 90.542969 114.390625 90.695312 108.113281 88.527344 104.410156 C 87.648438 102.914062 87.308594 102.078125 86.109375 100.882812 C 84.007812 98.785156 81.558594 96.886719 77.710938 96.8125 Z M 77.710938 96.8125 " fill-opacity="1" fill-rule="evenodd"/></g></g></g></g><g clip-path="url(#3152e78fbd)"><g clip-path="url(#4bf325f005)"><g clip-path="url(#696f8069dd)"><g clip-path="url(#063415ce70)"><path fill="#ea1e15" d="M 29.648438 87.519531 C 21.511719 87.875 19.164062 97.726562 24.191406 102.671875 C 29.308594 107.710938 38.773438 105.382812 38.917969 95.925781 C 39.003906 90.414062 34.941406 87.289062 29.648438 87.519531 Z M 29.648438 87.519531 " fill-opacity="1" fill-rule="evenodd"/></g></g></g></g><g clip-path="url(#4cc6076a1e)"><g clip-path="url(#9914a24f7c)"><g clip-path="url(#7635ff1de5)"><g clip-path="url(#c06bb40eb4)"><path fill="#ea1e15" d="M 48.527344 92.234375 C 46.335938 94.367188 44.75 100.90625 48.890625 105.105469 C 51.15625 107.402344 55.269531 108.414062 58.582031 106.570312 C 64.664062 103.179688 64.753906 96.359375 61.144531 92.308594 C 58.226562 89.03125 51.886719 88.96875 48.527344 92.234375 Z M 48.527344 92.234375 " fill-opacity="1" fill-rule="evenodd"/></g></g></g></g><g clip-path="url(#50f72aa61b)"><g clip-path="url(#97fb3a4dc8)"><g clip-path="url(#cf574d46e4)"><g clip-path="url(#9f1d48db9c)"><path fill="#ea1e15" d="M 77.660156 98.875 C 69.359375 98.394531 65.929688 112.582031 73.453125 116.027344 C 75.535156 116.984375 80.066406 117.03125 82.15625 115.238281 C 84.476562 113.246094 85.652344 111.222656 86.039062 107.613281 C 86.199219 106.109375 85.816406 104.015625 84.929688 102.839844 C 84.613281 102.421875 84.34375 101.996094 84.003906 101.648438 C 82.578125 100.167969 80.007812 99.011719 77.660156 98.875 Z M 77.660156 98.875 " fill-opacity="1" fill-rule="evenodd"/></g></g></g></g></svg>