<svg xmlns="http://www.w3.org/2000/svg" xmlns:xlink="http://www.w3.org/1999/xlink" width="89" zoomAndPan="magnify" viewBox="0 0 66.75 81.749997" height="109" preserveAspectRatio="xMidYMid meet" version="1.0"><defs><g/><clipPath id="f0649c0172"><path d="M 0 7 L 66.5 7 L 66.5 74 L 0 74 Z M 0 7 " clip-rule="nonzero"/></clipPath><clipPath id="e998dc3d5e"><path d="M 0.109375 0.402344 L 66.472656 0.402344 L 66.472656 66.761719 L 0.109375 66.761719 Z M 0.109375 0.402344 " clip-rule="nonzero"/></clipPath><clipPath id="ec5c4a73ae"><path d="M 33.289062 0.402344 C 14.964844 0.402344 0.109375 15.257812 0.109375 33.582031 C 0.109375 51.90625 14.964844 66.761719 33.289062 66.761719 C 51.617188 66.761719 66.472656 51.90625 66.472656 33.582031 C 66.472656 15.257812 51.617188 0.402344 33.289062 0.402344 Z M 33.289062 0.402344 " clip-rule="nonzero"/></clipPath><clipPath id="5f75a2c12e"><path d="M 0.109375 0.402344 L 66.472656 0.402344 L 66.472656 66.761719 L 0.109375 66.761719 Z M 0.109375 0.402344 " clip-rule="nonzero"/></clipPath><clipPath id="209be21350"><path d="M 33.289062 0.402344 C 14.964844 0.402344 0.109375 15.257812 0.109375 33.582031 C 0.109375 51.90625 14.964844 66.761719 33.289062 66.761719 C 51.617188 66.761719 66.472656 51.90625 66.472656 33.582031 C 66.472656 15.257812 51.617188 0.402344 33.289062 0.402344 Z M 33.289062 0.402344 " clip-rule="nonzero"/></clipPath><clipPath id="dc8e32bc43"><rect x="0" width="67" y="0" height="67"/></clipPath><clipPath id="703b413e31"><rect x="0" width="67" y="0" height="67"/></clipPath></defs><g clip-path="url(#f0649c0172)"><g transform="matrix(1, 0, 0, 1, 0, 7)"><g clip-path="url(#703b413e31)"><g clip-path="url(#e998dc3d5e)"><g clip-path="url(#ec5c4a73ae)"><g transform="matrix(1, 0, 0, 1, 0, -0.000000000000008882)"><g clip-path="url(#dc8e32bc43)"><g clip-path="url(#5f75a2c12e)"><g clip-path="url(#209be21350)"><path fill="#e83d34" d="M 0.109375 0.402344 L 66.472656 0.402344 L 66.472656 66.761719 L 0.109375 66.761719 Z M 0.109375 0.402344 " fill-opacity="1" fill-rule="nonzero"/></g></g></g></g></g></g><g fill="#ffffff" fill-opacity="1"><g transform="translate(14.369415, 46.495867)"><g><path d="M 31.75 -11.875 C 32.507812 -11.875 33.117188 -11.726562 33.578125 -11.4375 C 34.046875 -11.144531 34.28125 -10.769531 34.28125 -10.3125 C 34.28125 -10.21875 34.25 -10.054688 34.1875 -9.828125 C 33.875 -8.484375 32.664062 -7.8125 30.5625 -7.8125 L 28.609375 -7.8125 L 27.859375 -5.15625 C 27.742188 -4.769531 27.6875 -4.390625 27.6875 -4.015625 C 27.6875 -3.671875 27.738281 -3.390625 27.84375 -3.171875 C 27.945312 -2.953125 28.082031 -2.695312 28.25 -2.40625 C 28.519531 -2.019531 28.65625 -1.695312 28.65625 -1.4375 C 28.65625 -0.914062 28.441406 -0.546875 28.015625 -0.328125 C 27.585938 -0.109375 26.910156 0 25.984375 0 L 15.9375 0 C 15.1875 0 14.628906 -0.144531 14.265625 -0.4375 C 13.898438 -0.726562 13.773438 -1.117188 13.890625 -1.609375 C 13.972656 -1.878906 14.085938 -2.078125 14.234375 -2.203125 C 14.378906 -2.335938 14.628906 -2.519531 14.984375 -2.75 C 15.441406 -3.039062 15.820312 -3.347656 16.125 -3.671875 C 16.4375 -3.992188 16.695312 -4.488281 16.90625 -5.15625 L 17.640625 -7.734375 C 15.046875 -7.640625 12.328125 -7.421875 9.484375 -7.078125 C 6.972656 -6.816406 5.109375 -6.6875 3.890625 -6.6875 C 3.066406 -6.6875 2.40625 -6.878906 1.90625 -7.265625 C 1.414062 -7.660156 1.171875 -8.164062 1.171875 -8.78125 C 1.171875 -9.53125 1.414062 -10.175781 1.90625 -10.71875 C 2.40625 -11.257812 3.164062 -11.878906 4.1875 -12.578125 C 5.238281 -13.335938 6.054688 -14.003906 6.640625 -14.578125 C 7.222656 -15.160156 7.644531 -15.890625 7.90625 -16.765625 C 8.019531 -17.117188 8.078125 -17.515625 8.078125 -17.953125 C 8.078125 -18.554688 7.96875 -19.132812 7.75 -19.6875 C 7.53125 -20.25 7.1875 -20.976562 6.71875 -21.875 C 6.3125 -22.632812 6 -23.273438 5.78125 -23.796875 C 5.5625 -24.328125 5.453125 -24.851562 5.453125 -25.375 C 5.453125 -25.71875 5.5 -26.035156 5.59375 -26.328125 C 5.882812 -27.234375 6.4375 -27.914062 7.25 -28.375 C 8.0625 -28.84375 9.050781 -29.078125 10.21875 -29.078125 C 11.613281 -29.078125 12.957031 -28.695312 14.25 -27.9375 C 15.550781 -27.1875 16.609375 -26.160156 17.421875 -24.859375 C 18.234375 -23.566406 18.640625 -22.179688 18.640625 -20.703125 C 18.640625 -20.054688 18.554688 -19.382812 18.390625 -18.6875 C 17.859375 -16.851562 16.804688 -15.351562 15.234375 -14.1875 C 13.671875 -13.03125 11.195312 -11.867188 7.8125 -10.703125 C 12.039062 -11.335938 15.695312 -11.703125 18.78125 -11.796875 L 22.453125 -24.71875 C 22.742188 -25.738281 23.175781 -26.441406 23.75 -26.828125 C 24.332031 -27.222656 25.191406 -27.421875 26.328125 -27.421875 L 31.046875 -27.421875 C 31.835938 -27.421875 32.4375 -27.253906 32.84375 -26.921875 C 33.25 -26.585938 33.453125 -26.113281 33.453125 -25.5 C 33.453125 -25.125 33.394531 -24.757812 33.28125 -24.40625 L 29.734375 -11.875 Z M 31.75 -11.875 "/></g></g></g></g></g></g></svg>